STARTFONT 2.1
COMMENT
COMMENT Converted from OpenType font "DejaVuSans-Bold.ttf" by "otf2bdf 3.0".
COMMENT
FONT -FreeType-DejaVu Sans-Bold-R-Normal--30-300-72-72-P-188-ISO10646-1
SIZE 30 72 72
FONTBOUNDINGBOX 91 45 -32 -12
STARTPROPERTIES 19
FOUNDRY "FreeType"
FAMILY_NAME "DejaVu Sans"
WEIGHT_NAME "Bold"
SLANT "R"
SETWIDTH_NAME "Normal"
ADD_STYLE_NAME ""
PIXEL_SIZE 30
POINT_SIZE 300
RESOLUTION_X 72
RESOLUTION_Y 72
SPACING "P"
AVERAGE_WIDTH 188
CHARSET_REGISTRY "ISO10646"
CHARSET_ENCODING "1"
FONT_ASCENT 27
FONT_DESCENT 7
COPYRIGHT "Copyright (c) 2003 by Bitstream, Inc. All Rights Reserved.  Copyright (c) 2006 by Tavmjong Bah. All Rights Reserved.  DejaVu changes are in public domain  "
_OTF_FONTFILE "DejaVuSans-Bold.ttf"
_OTF_PSNAME "DejaVuSans-Bold"
ENDPROPERTIES
CHARS 5366
STARTCHAR 0020
ENCODING 32
SWIDTH 333 0
DWIDTH 10 0
BBX 0 0 0 0
BITMAP
ENDCHAR
STARTCHAR 0021
ENCODING 33
SWIDTH 466 0
DWIDTH 14 0
BBX 5 22 4 0
BITMAP
F8
F8
F8
F8
F8
F8
F8
F8
F8
F8
F8
78
78
78
78
00
00
F8
F8
F8
F8
F8
ENDCHAR
STARTCHAR 0022
ENCODING 34
SWIDTH 533 0
DWIDTH 16 0
BBX 10 8 3 14
BITMAP
E3C0
E3C0
E3C0
E3C0
E3C0
E3C0
E3C0
E3C0
ENDCHAR
STARTCHAR 0023
ENCODING 35
SWIDTH 833 0
DWIDTH 25 0
BBX 21 22 2 0
BITMAP
00E1C0
00E1C0
01E1C0
01E3C0
01C380
01C380
3FFFF8
3FFFF8
3FFFF8
038700
078700
078F00
070E00
FFFFE0
FFFFE0
FFFFE0
0E1C00
0E1C00
0E1C00
1E3C00
1C3800
1C3800
ENDCHAR
STARTCHAR 0024
ENCODING 36
SWIDTH 700 0
DWIDTH 21 0
BBX 17 26 2 -4
BITMAP
01C000
01C000
01C000
0FF800
3FFF00
7FFF00
7DCF00
F9C100
F9C000
F9C000
7FC000
7FF800
3FFE00
0FFF00
01FF80
01CF80
01CF80
81CF80
F1CF00
FFFF00
FFFE00
1FF800
01C000
01C000
01C000
01C000
ENDCHAR
STARTCHAR 0025
ENCODING 37
SWIDTH 1000 0
DWIDTH 30 0
BBX 28 22 1 0
BITMAP
1F001C00
3FC03C00
79E03800
F0E07000
F0F0F000
F0F0E000
F0F1C000
F0F1C000
F0E38000
79E78000
3FC70F80
1F0E3FC0
001E79E0
001C70F0
0038F0F0
0038F0F0
0070F0F0
00F0F0F0
00E070F0
01C079E0
03C03FC0
03800F80
ENDCHAR
STARTCHAR 0026
ENCODING 38
SWIDTH 866 0
DWIDTH 26 0
BBX 22 22 2 0
BITMAP
01FC00
07FF00
0FFF00
1F8700
1F0100
1F0000
1F8000
0FC000
0FC000
1FE07C
3FF07C
7FF87C
FCFC78
F87EF8
F83FF8
F81FF0
F81FE0
FC0FE0
7E1FE0
3FFFF0
1FFFF8
07F8FC
ENDCHAR
STARTCHAR 0027
ENCODING 39
SWIDTH 300 0
DWIDTH 9 0
BBX 3 8 3 14
BITMAP
E0
E0
E0
E0
E0
E0
E0
E0
ENDCHAR
STARTCHAR 0028
ENCODING 40
SWIDTH 466 0
DWIDTH 14 0
BBX 8 27 3 -4
BITMAP
0F
1F
1E
3E
3C
7C
7C
F8
F8
F8
F8
F8
F8
F8
F8
F8
F8
F8
F8
F8
7C
7C
3C
3E
1E
1F
0F
ENDCHAR
STARTCHAR 0029
ENCODING 41
SWIDTH 466 0
DWIDTH 14 0
BBX 8 27 3 -4
BITMAP
F0
F8
78
7C
7C
3E
3E
3E
1E
1F
1F
1F
1F
1F
1F
1F
1F
1F
1F
3E
3E
3E
7C
7C
78
F8
F0
ENDCHAR
STARTCHAR 002A
ENCODING 42
SWIDTH 533 0
DWIDTH 16 0
BBX 14 14 1 8
BITMAP
0300
0300
C308
E33C
FB7C
3FF0
0FC0
0FC0
3FF0
FB7C
E33C
C308
0300
0300
ENDCHAR
STARTCHAR 002B
ENCODING 43
SWIDTH 833 0
DWIDTH 25 0
BBX 19 19 3 0
BITMAP
00E000
00E000
00E000
00E000
00E000
00E000
00E000
00E000
FFFFE0
FFFFE0
FFFFE0
00E000
00E000
00E000
00E000
00E000
00E000
00E000
00E000
ENDCHAR
STARTCHAR 002C
ENCODING 44
SWIDTH 366 0
DWIDTH 11 0
BBX 6 10 2 -4
BITMAP
7C
7C
7C
7C
7C
7C
78
F0
F0
E0
ENDCHAR
STARTCHAR 002D
ENCODING 45
SWIDTH 400 0
DWIDTH 12 0
BBX 9 4 2 7
BITMAP
FF80
FF80
FF80
FF80
ENDCHAR
STARTCHAR 002E
ENCODING 46
SWIDTH 366 0
DWIDTH 11 0
BBX 5 6 3 0
BITMAP
F8
F8
F8
F8
F8
F8
ENDCHAR
STARTCHAR 002F
ENCODING 47
SWIDTH 366 0
DWIDTH 11 0
BBX 11 25 0 -3
BITMAP
00E0
01E0
01C0
01C0
03C0
0380
0380
0780
0700
0700
0F00
0E00
0E00
0E00
1C00
1C00
1C00
3C00
3800
3800
7800
7000
7000
F000
E000
ENDCHAR
STARTCHAR 0030
ENCODING 48
SWIDTH 700 0
DWIDTH 21 0
BBX 18 22 1 0
BITMAP
03F800
0FFE00
1FFF00
3FFF80
3F1F80
7E0FC0
7E0FC0
7C07C0
7C07C0
FC07C0
FC07C0
FC07C0
FC07C0
7C07C0
7C07C0
7E0FC0
7E0FC0
3F1F80
3FFF80
1FFF00
0FFE00
03F800
ENDCHAR
STARTCHAR 0031
ENCODING 49
SWIDTH 700 0
DWIDTH 21 0
BBX 16 22 3 0
BITMAP
1FE0
FFE0
FFE0
FFE0
E7E0
07E0
07E0
07E0
07E0
07E0
07E0
07E0
07E0
07E0
07E0
07E0
07E0
07E0
7FFF
7FFF
7FFF
7FFF
ENDCHAR
STARTCHAR 0032
ENCODING 50
SWIDTH 700 0
DWIDTH 21 0
BBX 16 22 2 0
BITMAP
1FF0
FFFC
FFFE
FFFE
F07F
803F
003F
003F
003F
003E
007E
00FC
01F8
07F0
0FE0
1FC0
3F00
7E00
FFFF
FFFF
FFFF
FFFF
ENDCHAR
STARTCHAR 0033
ENCODING 51
SWIDTH 700 0
DWIDTH 21 0
BBX 16 22 2 0
BITMAP
1FF0
7FFC
7FFE
7FFF
607F
003F
003F
003F
007E
0FFC
0FF0
0FFC
0FFE
007F
001F
001F
801F
E07F
FFFF
FFFE
7FFC
1FE0
ENDCHAR
STARTCHAR 0034
ENCODING 52
SWIDTH 700 0
DWIDTH 21 0
BBX 19 22 1 0
BITMAP
007E00
00FE00
01FE00
01FE00
03FE00
07FE00
07BE00
0F3E00
1F3E00
1E3E00
3C3E00
7C3E00
783E00
F03E00
FFFFE0
FFFFE0
FFFFE0
FFFFE0
003E00
003E00
003E00
003E00
ENDCHAR
STARTCHAR 0035
ENCODING 53
SWIDTH 700 0
DWIDTH 21 0
BBX 17 22 2 0
BITMAP
7FFE00
7FFE00
7FFE00
7FFE00
7C0000
7C0000
7C0000
7FF000
7FFC00
7FFE00
7FFF00
707F00
401F80
001F80
001F80
001F80
803F80
F07F00
FFFF00
FFFE00
7FFC00
0FF000
ENDCHAR
STARTCHAR 0036
ENCODING 54
SWIDTH 700 0
DWIDTH 21 0
BBX 17 22 2 0
BITMAP
01F800
0FFE00
1FFF00
3FFF00
7F0700
7E0100
7C0000
F9F800
FFFE00
FFFF00
FFFF00
FE1F80
FC1F80
FC0F80
FC0F80
FC0F80
7C1F80
7E1F80
3FFF00
3FFE00
0FFC00
07F000
ENDCHAR
STARTCHAR 0037
ENCODING 55
SWIDTH 700 0
DWIDTH 21 0
BBX 16 22 2 0
BITMAP
FFFF
FFFF
FFFF
FFFF
003F
003E
007E
007E
007C
00FC
00F8
01F8
01F0
03F0
03E0
07E0
07C0
0FC0
0FC0
0F80
1F80
1F00
ENDCHAR
STARTCHAR 0038
ENCODING 56
SWIDTH 700 0
DWIDTH 21 0
BBX 17 22 2 0
BITMAP
0FF800
3FFE00
7FFF00
7FFF00
FC3F00
FC1F80
FC1F00
7C3F00
3FFE00
1FFC00
1FFC00
7FFE00
7C3F00
F81F80
F80F80
F80F80
F81F80
FC3F80
FFFF00
7FFF00
3FFE00
0FF000
ENDCHAR
STARTCHAR 0039
ENCODING 57
SWIDTH 700 0
DWIDTH 21 0
BBX 17 22 2 0
BITMAP
07E000
1FF800
7FFC00
7FFE00
FC3F00
F81F00
F81F00
F81F80
F81F80
F81F80
FC3F80
FFFF80
7FFF80
3FEF80
0FDF80
001F00
403F00
707E00
7FFE00
7FFC00
3FF000
0FC000
ENDCHAR
STARTCHAR 003A
ENCODING 58
SWIDTH 400 0
DWIDTH 12 0
BBX 6 16 3 0
BITMAP
FC
FC
FC
FC
FC
FC
00
00
00
00
FC
FC
FC
FC
FC
FC
ENDCHAR
STARTCHAR 003B
ENCODING 59
SWIDTH 400 0
DWIDTH 12 0
BBX 7 20 2 -4
BITMAP
7E
7E
7E
7E
7E
7E
00
00
00
00
7E
7E
7E
7E
7E
7C
78
78
F0
E0
ENDCHAR
STARTCHAR 003C
ENCODING 60
SWIDTH 833 0
DWIDTH 25 0
BBX 19 17 3 1
BITMAP
000020
0001E0
000FE0
007FE0
03FF80
0FFC00
7FE000
FF0000
F80000
FF0000
7FE000
0FFC00
03FF00
007FE0
000FE0
0001E0
000020
ENDCHAR
STARTCHAR 003D
ENCODING 61
SWIDTH 833 0
DWIDTH 25 0
BBX 19 9 3 5
BITMAP
FFFFE0
FFFFE0
FFFFE0
000000
000000
000000
FFFFE0
FFFFE0
FFFFE0
ENDCHAR
STARTCHAR 003E
ENCODING 62
SWIDTH 833 0
DWIDTH 25 0
BBX 19 17 3 1
BITMAP
C00000
F00000
FE0000
FFC000
1FF800
07FE00
00FFC0
001FE0
0003E0
001FE0
00FFC0
03FE00
1FF800
FFC000
FE0000
F00000
C00000
ENDCHAR
STARTCHAR 003F
ENCODING 63
SWIDTH 566 0
DWIDTH 17 0
BBX 13 22 2 0
BITMAP
FFC0
FFF0
FFF8
E1F8
80F8
00F8
00F8
01F8
03F8
07F0
0FE0
0FC0
1F80
1F00
1F00
0000
0000
1F00
1F00
1F00
1F00
1F00
ENDCHAR
STARTCHAR 0040
ENCODING 64
SWIDTH 1000 0
DWIDTH 30 0
BBX 26 26 2 -4
BITMAP
003F8000
01FFF000
07FFF800
0FC07E00
1F001F00
3C000700
38000380
703EE380
707FE1C0
E0FFE1C0
E1E1E1C0
E1C0E1C0
E1C0E1C0
E1C0E1C0
E1C0E380
E1E1E780
E0FFFF00
707FFE00
703CF800
38000000
3C001000
1F003800
0FC0F800
07FFF800
01FFE000
007F8000
ENDCHAR
STARTCHAR 0041
ENCODING 65
SWIDTH 766 0
DWIDTH 23 0
BBX 23 22 0 0
BITMAP
00FE00
00FF00
01FF00
01FF00
01FF80
03FF80
03EF80
07EFC0
07C7C0
07C7C0
0FC7E0
0F83E0
0F83F0
1F83F0
1FFFF0
1FFFF8
3FFFF8
3FFFF8
7E00FC
7E007C
7C007E
FC007E
ENDCHAR
STARTCHAR 0042
ENCODING 66
SWIDTH 766 0
DWIDTH 23 0
BBX 18 22 3 0
BITMAP
FFF800
FFFE00
FFFF00
FFFF00
F83F80
F81F80
F81F80
F81F80
F83F00
FFFF00
FFFC00
FFFF00
FFFF80
F81F80
F80FC0
F80FC0
F80FC0
F81FC0
FFFF80
FFFF80
FFFF00
FFF800
ENDCHAR
STARTCHAR 0043
ENCODING 67
SWIDTH 733 0
DWIDTH 22 0
BBX 19 22 1 0
BITMAP
00FF00
03FFE0
0FFFE0
1FFFE0
3FC0E0
3F0020
7F0000
7E0000
7E0000
7C0000
FC0000
FC0000
7C0000
7E0000
7E0000
7F0000
3F0020
3FC0E0
1FFFE0
0FFFE0
03FFE0
00FF00
ENDCHAR
STARTCHAR 0044
ENCODING 68
SWIDTH 833 0
DWIDTH 25 0
BBX 20 22 3 0
BITMAP
FFF000
FFFE00
FFFF80
FFFFC0
F81FC0
F80FE0
F807F0
F803F0
F803F0
F803F0
F803F0
F803F0
F803F0
F803F0
F803F0
F807F0
F80FE0
F81FC0
FFFFC0
FFFF80
FFFE00
FFF000
ENDCHAR
STARTCHAR 0045
ENCODING 69
SWIDTH 700 0
DWIDTH 21 0
BBX 15 22 3 0
BITMAP
FFFE
FFFE
FFFE
FFFE
F800
F800
F800
F800
F800
FFFC
FFFC
FFFC
FFFC
F800
F800
F800
F800
F800
FFFE
FFFE
FFFE
FFFE
ENDCHAR
STARTCHAR 0046
ENCODING 70
SWIDTH 700 0
DWIDTH 21 0
BBX 15 22 3 0
BITMAP
FFFE
FFFE
FFFE
FFFE
F800
F800
F800
F800
F800
FFFC
FFFC
FFFC
FFFC
F800
F800
F800
F800
F800
F800
F800
F800
F800
ENDCHAR
STARTCHAR 0047
ENCODING 71
SWIDTH 833 0
DWIDTH 25 0
BBX 21 22 1 0
BITMAP
00FF80
03FFF0
0FFFF8
1FFFF8
3FC078
3F8008
7F0000
7E0000
7E0000
7C0000
FC07F8
FC07F8
7C07F8
7E07F8
7E00F8
7F00F8
3F00F8
3FC0F8
1FFFF8
0FFFF8
03FFF0
00FF80
ENDCHAR
STARTCHAR 0048
ENCODING 72
SWIDTH 833 0
DWIDTH 25 0
BBX 19 22 3 0
BITMAP
F803E0
F803E0
F803E0
F803E0
F803E0
F803E0
F803E0
F803E0
F803E0
FFFFE0
FFFFE0
FFFFE0
FFFFE0
F803E0
F803E0
F803E0
F803E0
F803E0
F803E0
F803E0
F803E0
F803E0
ENDCHAR
STARTCHAR 0049
ENCODING 73
SWIDTH 366 0
DWIDTH 11 0
BBX 5 22 3 0
BITMAP
F8
F8
F8
F8
F8
F8
F8
F8
F8
F8
F8
F8
F8
F8
F8
F8
F8
F8
F8
F8
F8
F8
ENDCHAR
STARTCHAR 004A
ENCODING 74
SWIDTH 366 0
DWIDTH 11 0
BBX 10 28 -2 -6
BITMAP
07C0
07C0
07C0
07C0
07C0
07C0
07C0
07C0
07C0
07C0
07C0
07C0
07C0
07C0
07C0
07C0
07C0
07C0
07C0
07C0
07C0
07C0
0FC0
1FC0
FF80
FF80
FF00
F800
ENDCHAR
STARTCHAR 004B
ENCODING 75
SWIDTH 766 0
DWIDTH 23 0
BBX 21 22 3 0
BITMAP
F807F0
F80FE0
F81FC0
F83F80
F87F00
F8FE00
F9FC00
FBF800
FFF000
FFC000
FFC000
FFE000
FFF000
FBF800
F9FC00
F8FE00
F87F00
F83F80
F81FC0
F80FE0
F807F0
F803F8
ENDCHAR
STARTCHAR 004C
ENCODING 76
SWIDTH 633 0
DWIDTH 19 0
BBX 15 22 3 0
BITMAP
F800
F800
F800
F800
F800
F800
F800
F800
F800
F800
F800
F800
F800
F800
F800
F800
F800
F800
FFFE
FFFE
FFFE
FFFE
ENDCHAR
STARTCHAR 004D
ENCODING 77
SWIDTH 1000 0
DWIDTH 30 0
BBX 24 22 3 0
BITMAP
FE007F
FF00FF
FF00FF
FF01FF
FF81FF
FF81FF
FFC3FF
FBC3DF
FBC7DF
F9E79F
F9EF9F
F9FF1F
F8FF1F
F8FF1F
F87E1F
F87E1F
F83C1F
F83C1F
F8001F
F8001F
F8001F
F8001F
ENDCHAR
STARTCHAR 004E
ENCODING 78
SWIDTH 833 0
DWIDTH 25 0
BBX 19 22 3 0
BITMAP
FC03E0
FE03E0
FE03E0
FF03E0
FF03E0
FF83E0
FF83E0
FFC3E0
FBE3E0
FBE3E0
F9F3E0
F8F3E0
F8FBE0
F87BE0
F87FE0
F83FE0
F83FE0
F81FE0
F81FE0
F80FE0
F80FE0
F807E0
ENDCHAR
STARTCHAR 004F
ENCODING 79
SWIDTH 866 0
DWIDTH 26 0
BBX 23 22 1 0
BITMAP
00FF00
07FFC0
0FFFF0
1FFFF8
3F83F8
3F01FC
7E00FC
7E007E
7E007E
7C007E
FC007E
FC007E
7C007E
7E007E
7E007E
7E00FC
3F01FC
3F83F8
1FFFF8
0FFFF0
07FFC0
00FF00
ENDCHAR
STARTCHAR 0050
ENCODING 80
SWIDTH 733 0
DWIDTH 22 0
BBX 18 22 3 0
BITMAP
FFF800
FFFE00
FFFF00
FFFF80
F81F80
F80FC0
F80FC0
F80FC0
F80FC0
F81F80
FFFF80
FFFF00
FFFE00
FFF800
F80000
F80000
F80000
F80000
F80000
F80000
F80000
F80000
ENDCHAR
STARTCHAR 0051
ENCODING 81
SWIDTH 866 0
DWIDTH 26 0
BBX 23 26 1 -4
BITMAP
00FF00
07FFC0
0FFFF0
1FFFF8
3F83F8
3F01FC
7E00FC
7E007E
7E007E
7C007E
FC007E
FC007E
7E007E
7E007E
7E007E
7E00FC
3F01FC
3F83F8
1FFFF0
0FFFE0
07FFC0
00FF80
0007C0
0003E0
0001F0
0001F8
ENDCHAR
STARTCHAR 0052
ENCODING 82
SWIDTH 766 0
DWIDTH 23 0
BBX 19 22 3 0
BITMAP
FFF000
FFFE00
FFFF00
FFFF00
F83F80
F81F80
F81F80
F81F80
F81F00
F83F00
FFFE00
FFFC00
FFFC00
FFFE00
F87F00
F83F00
F81F80
F81F80
F80FC0
F80FC0
F807E0
F807E0
ENDCHAR
STARTCHAR 0053
ENCODING 83
SWIDTH 733 0
DWIDTH 22 0
BBX 17 22 2 0
BITMAP
07F800
1FFF00
7FFF00
7FFF00
FE0F00
F80100
F80000
FC0000
FF0000
7FF000
7FFE00
1FFF00
07FF80
007F80
001F80
000F80
800F80
F01F80
FFFF80
FFFF00
FFFE00
0FF800
ENDCHAR
STARTCHAR 0054
ENCODING 84
SWIDTH 666 0
DWIDTH 20 0
BBX 20 22 0 0
BITMAP
FFFFF0
FFFFF0
FFFFF0
FFFFF0
01F800
01F800
01F800
01F800
01F800
01F800
01F800
01F800
01F800
01F800
01F800
01F800
01F800
01F800
01F800
01F800
01F800
01F800
ENDCHAR
STARTCHAR 0055
ENCODING 85
SWIDTH 800 0
DWIDTH 24 0
BBX 19 22 3 0
BITMAP
F807E0
F807E0
F807E0
F807E0
F807E0
F807E0
F807E0
F807E0
F807E0
F807E0
F807E0
F807E0
F807E0
F807E0
F807E0
FC07C0
FC0FC0
7E1FC0
7FFF80
3FFF80
1FFE00
07F800
ENDCHAR
STARTCHAR 0056
ENCODING 86
SWIDTH 766 0
DWIDTH 23 0
BBX 23 22 0 0
BITMAP
FC007E
7C007E
7E007C
7E00FC
3E00F8
3F01F8
1F01F8
1F01F0
1F83F0
0F83F0
0FC3E0
0FC7E0
07C7C0
07E7C0
07EFC0
03EF80
03FF80
01FF80
01FF00
01FF00
00FF00
00FE00
ENDCHAR
STARTCHAR 0057
ENCODING 87
SWIDTH 1100 0
DWIDTH 33 0
BBX 31 22 1 0
BITMAP
F807C03E
FC0FE07E
FC0FE07E
7C0FE07C
7C0FE07C
7E0EF0FC
7E1EF0FC
3E1EF0F8
3E1EF0F8
3F1E78F8
3F3C79F8
1F3C79F0
1F3C79F0
1F3C79F0
1FF83FF0
0FF83FF0
0FF83FE0
0FF83FE0
0FF01FE0
0FF01FE0
07F01FC0
07F01FC0
ENDCHAR
STARTCHAR 0058
ENCODING 88
SWIDTH 766 0
DWIDTH 23 0
BBX 21 22 1 0
BITMAP
FC01F8
7E03F0
3E03F0
3F07E0
1F8FC0
0F8FC0
0FDF80
07FF00
03FE00
03FE00
01FC00
01FC00
03FE00
07FF00
07FF00
0FDF80
1F8FC0
1F87E0
3F07E0
7E03F0
7E01F8
FC01F8
ENDCHAR
STARTCHAR 0059
ENCODING 89
SWIDTH 733 0
DWIDTH 22 0
BBX 22 22 0 0
BITMAP
FC00FC
7E01F8
7E03F0
3F03F0
1F87E0
1F8FC0
0FCFC0
07FF80
07FF00
03FF00
01FE00
01FE00
00FC00
00FC00
00FC00
00FC00
00FC00
00FC00
00FC00
00FC00
00FC00
00FC00
ENDCHAR
STARTCHAR 005A
ENCODING 90
SWIDTH 733 0
DWIDTH 22 0
BBX 19 22 1 0
BITMAP
7FFFE0
7FFFE0
7FFFE0
7FFFE0
000FC0
001F80
003F80
007F00
00FE00
00FC00
01F800
03F800
07F000
0FE000
0FC000
1F8000
3F8000
7F0000
FFFFE0
FFFFE0
FFFFE0
FFFFE0
ENDCHAR
STARTCHAR 005B
ENCODING 91
SWIDTH 466 0
DWIDTH 14 0
BBX 9 27 3 -4
BITMAP
FF80
FF80
FF80
F800
F800
F800
F800
F800
F800
F800
F800
F800
F800
F800
F800
F800
F800
F800
F800
F800
F800
F800
F800
F800
FF80
FF80
FF80
ENDCHAR
STARTCHAR 005C
ENCODING 92
SWIDTH 366 0
DWIDTH 11 0
BBX 11 25 0 -3
BITMAP
E000
F000
7000
7000
7800
3800
3800
3C00
1C00
1C00
1C00
0E00
0E00
0E00
0F00
0700
0700
0780
0380
0380
03C0
01C0
01C0
01C0
00E0
ENDCHAR
STARTCHAR 005D
ENCODING 93
SWIDTH 466 0
DWIDTH 14 0
BBX 9 27 2 -4
BITMAP
FF80
FF80
FF80
0F80
0F80
0F80
0F80
0F80
0F80
0F80
0F80
0F80
0F80
0F80
0F80
0F80
0F80
0F80
0F80
0F80
0F80
0F80
0F80
0F80
FF80
FF80
FF80
ENDCHAR
STARTCHAR 005E
ENCODING 94
SWIDTH 833 0
DWIDTH 25 0
BBX 18 8 4 14
BITMAP
03E000
07F000
0FF800
1FFC00
3E3E00
7C1F00
F80F80
E003C0
ENDCHAR
STARTCHAR 005F
ENCODING 95
SWIDTH 500 0
DWIDTH 15 0
BBX 15 3 0 -7
BITMAP
FFFE
FFFE
FFFE
ENDCHAR
STARTCHAR 0060
ENCODING 96
SWIDTH 500 0
DWIDTH 15 0
BBX 7 6 2 18
BITMAP
F0
78
38
1C
1E
0E
ENDCHAR
STARTCHAR 0061
ENCODING 97
SWIDTH 666 0
DWIDTH 20 0
BBX 17 16 1 0
BITMAP
3FF800
3FFE00
3FFF00
201F00
000F80
0FFF80
3FFF80
7FFF80
7E0F80
FC0F80
FC1F80
FC1F80
7C3F80
7FEF80
3FCF80
1F8F80
ENDCHAR
STARTCHAR 0062
ENCODING 98
SWIDTH 700 0
DWIDTH 21 0
BBX 17 23 3 0
BITMAP
F80000
F80000
F80000
F80000
F80000
F80000
F80000
F8F800
FBFC00
FFFE00
FC3F00
FC1F80
F81F80
F80F80
F80F80
F80F80
F80F80
F81F80
FC1F80
FC3F00
FFFE00
FBFC00
F8F800
ENDCHAR
STARTCHAR 0063
ENCODING 99
SWIDTH 600 0
DWIDTH 18 0
BBX 15 16 1 0
BITMAP
03F8
0FFE
3FFE
3F06
7E02
7C00
FC00
FC00
FC00
FC00
7C00
7E02
3F06
3FFE
0FFE
03F8
ENDCHAR
STARTCHAR 0064
ENCODING 100
SWIDTH 700 0
DWIDTH 21 0
BBX 18 23 1 0
BITMAP
0007C0
0007C0
0007C0
0007C0
0007C0
0007C0
0007C0
07C7C0
1FE7C0
3FF7C0
7E1FC0
7E0FC0
7C0FC0
FC07C0
FC07C0
FC07C0
FC07C0
7C0FC0
7E0FC0
7E1FC0
3FF7C0
1FE7C0
07C7C0
ENDCHAR
STARTCHAR 0065
ENCODING 101
SWIDTH 666 0
DWIDTH 20 0
BBX 18 16 1 0
BITMAP
03F800
0FFE00
3FFF00
7F1F00
7E0F80
7C0F80
FC0FC0
FFFFC0
FFFFC0
FFFFC0
7C0000
7C0080
7E0380
3FFF80
0FFF80
03FE00
ENDCHAR
STARTCHAR 0066
ENCODING 102
SWIDTH 433 0
DWIDTH 13 0
BBX 12 23 1 0
BITMAP
07F0
1FF0
1FF0
3F00
3E00
3E00
3E00
FFF0
FFF0
FFF0
3E00
3E00
3E00
3E00
3E00
3E00
3E00
3E00
3E00
3E00
3E00
3E00
3E00
ENDCHAR
STARTCHAR 0067
ENCODING 103
SWIDTH 700 0
DWIDTH 21 0
BBX 18 22 1 -6
BITMAP
07C7C0
1FE7C0
3FF7C0
7F1FC0
7E0FC0
7C0FC0
FC07C0
FC07C0
FC07C0
FC07C0
7C0FC0
7E0FC0
7E1FC0
3FF7C0
1FE7C0
07C7C0
000FC0
200F80
383F80
3FFF00
3FFE00
0FF000
ENDCHAR
STARTCHAR 0068
ENCODING 104
SWIDTH 700 0
DWIDTH 21 0
BBX 16 23 3 0
BITMAP
F800
F800
F800
F800
F800
F800
F800
F8F8
FBFE
FFFE
FE3F
FC3F
F81F
F81F
F81F
F81F
F81F
F81F
F81F
F81F
F81F
F81F
F81F
ENDCHAR
STARTCHAR 0069
ENCODING 105
SWIDTH 333 0
DWIDTH 10 0
BBX 5 23 3 0
BITMAP
F8
F8
F8
F8
F8
00
00
F8
F8
F8
F8
F8
F8
F8
F8
F8
F8
F8
F8
F8
F8
F8
F8
ENDCHAR
STARTCHAR 006A
ENCODING 106
SWIDTH 333 0
DWIDTH 10 0
BBX 9 29 -1 -6
BITMAP
0F80
0F80
0F80
0F80
0F80
0000
0000
0F80
0F80
0F80
0F80
0F80
0F80
0F80
0F80
0F80
0F80
0F80
0F80
0F80
0F80
0F80
0F80
1F80
1F80
1F00
FF00
FE00
F800
ENDCHAR
STARTCHAR 006B
ENCODING 107
SWIDTH 666 0
DWIDTH 20 0
BBX 17 23 3 0
BITMAP
F80000
F80000
F80000
F80000
F80000
F80000
F80000
F83F00
F87E00
F8FC00
F9F800
FBF000
FFE000
FFC000
FF8000
FFC000
FFE000
FBF000
F9F800
F8FC00
F87E00
F83F00
F81F80
ENDCHAR
STARTCHAR 006C
ENCODING 108
SWIDTH 333 0
DWIDTH 10 0
BBX 5 23 3 0
BITMAP
F8
F8
F8
F8
F8
F8
F8
F8
F8
F8
F8
F8
F8
F8
F8
F8
F8
F8
F8
F8
F8
F8
F8
ENDCHAR
STARTCHAR 006D
ENCODING 109
SWIDTH 1033 0
DWIDTH 31 0
BBX 27 16 2 0
BITMAP
FCF81F00
FDFE7F80
FFFEFFC0
FE3FC7E0
FC1F87E0
FC1F83E0
FC1F03E0
FC1F03E0
FC1F03E0
FC1F03E0
FC1F03E0
FC1F03E0
FC1F03E0
FC1F03E0
FC1F03E0
FC1F03E0
ENDCHAR
STARTCHAR 006E
ENCODING 110
SWIDTH 700 0
DWIDTH 21 0
BBX 16 16 3 0
BITMAP
F8F8
FBFE
FFFE
FE3F
FC3F
F81F
F81F
F81F
F81F
F81F
F81F
F81F
F81F
F81F
F81F
F81F
ENDCHAR
STARTCHAR 006F
ENCODING 111
SWIDTH 700 0
DWIDTH 21 0
BBX 18 16 1 0
BITMAP
03F800
0FFE00
3FFF00
7F1F80
7E0FC0
7C07C0
FC07C0
FC07C0
FC07C0
FC07C0
7C07C0
7E0FC0
7F1F80
3FFF00
1FFE00
03F800
ENDCHAR
STARTCHAR 0070
ENCODING 112
SWIDTH 700 0
DWIDTH 21 0
BBX 17 22 3 -6
BITMAP
F8F800
FBFC00
FFFE00
FC3F00
FC1F80
F81F80
F80F80
F80F80
F80F80
F80F80
F81F80
FC1F80
FC3F00
FFFE00
FBFC00
F8F800
F80000
F80000
F80000
F80000
F80000
F80000
ENDCHAR
STARTCHAR 0071
ENCODING 113
SWIDTH 700 0
DWIDTH 21 0
BBX 18 22 1 -6
BITMAP
07C7C0
1FE7C0
3FF7C0
7E1FC0
7E0FC0
7C0FC0
FC07C0
FC07C0
FC07C0
FC07C0
7C0FC0
7E0FC0
7E1FC0
3FF7C0
1FE7C0
07C7C0
0007C0
0007C0
0007C0
0007C0
0007C0
0007C0
ENDCHAR
STARTCHAR 0072
ENCODING 114
SWIDTH 500 0
DWIDTH 15 0
BBX 12 16 3 0
BITMAP
F8F0
FBF0
FFF0
FFF0
FE10
FC00
F800
F800
F800
F800
F800
F800
F800
F800
F800
F800
ENDCHAR
STARTCHAR 0073
ENCODING 115
SWIDTH 600 0
DWIDTH 18 0
BBX 14 16 2 0
BITMAP
1FE0
7FF8
FFF8
F838
F008
F800
FF00
FFF0
3FFC
03FC
007C
807C
E07C
FFFC
FFF8
3FE0
ENDCHAR
STARTCHAR 0074
ENCODING 116
SWIDTH 466 0
DWIDTH 14 0
BBX 14 21 0 0
BITMAP
1F00
1F00
1F00
1F00
1F00
FFFC
FFFC
FFFC
1F00
1F00
1F00
1F00
1F00
1F00
1F00
1F00
1F00
1F80
1FF8
0FF8
07F8
ENDCHAR
STARTCHAR 0075
ENCODING 117
SWIDTH 700 0
DWIDTH 21 0
BBX 17 16 2 0
BITMAP
FC0F80
FC0F80
FC0F80
FC0F80
FC0F80
FC0F80
FC0F80
FC0F80
FC0F80
FC1F80
FC1F80
FC1F80
7E3F80
7FEF80
3FCF80
1F8F80
ENDCHAR
STARTCHAR 0076
ENCODING 118
SWIDTH 666 0
DWIDTH 20 0
BBX 18 16 1 0
BITMAP
F807C0
F80FC0
FC0F80
7C0F80
7C1F00
3E1F00
3E3F00
3E3E00
1F3E00
1F7C00
0FFC00
0FF800
0FF800
07F800
07F000
03F000
ENDCHAR
STARTCHAR 0077
ENCODING 119
SWIDTH 933 0
DWIDTH 28 0
BBX 26 16 1 0
BITMAP
F81E0FC0
FC3E0F80
7C3F0F80
7C3F0F80
7C3F1F00
3E7F1F00
3E779F00
3E779F00
3E73BE00
1FF3BE00
1FE3FE00
1FE3FE00
1FE1FC00
0FE1FC00
0FC1FC00
0FC1FC00
ENDCHAR
STARTCHAR 0078
ENCODING 120
SWIDTH 633 0
DWIDTH 19 0
BBX 18 16 1 0
BITMAP
FC0F80
7C1F00
3E3F00
3F3E00
1F7C00
0FF800
07F800
07F000
07F000
0FF800
0FFC00
1F7E00
3F3E00
7E1F00
7C1F80
F80FC0
ENDCHAR
STARTCHAR 0079
ENCODING 121
SWIDTH 666 0
DWIDTH 20 0
BBX 18 22 1 -6
BITMAP
F807C0
F80F80
FC0F80
7C0F80
7C1F00
3E1F00
3E1E00
1F3E00
1F3E00
0F7C00
0FFC00
0FF800
07F800
07F800
03F000
03F000
01F000
03E000
03E000
3FC000
3F8000
3F0000
ENDCHAR
STARTCHAR 007A
ENCODING 122
SWIDTH 566 0
DWIDTH 17 0
BBX 15 16 1 0
BITMAP
7FFE
7FFE
7FFE
007E
00FC
01F8
03F0
07F0
0FE0
1FC0
3F80
7F00
FE00
FFFE
FFFE
FFFE
ENDCHAR
STARTCHAR 007B
ENCODING 123
SWIDTH 700 0
DWIDTH 21 0
BBX 14 28 4 -5
BITMAP
01FC
03FC
07FC
0FC0
0FC0
0F80
0F80
0F80
0F80
0F80
0F80
0F80
1F80
FF00
FE00
FF00
1F80
0F80
0F80
0F80
0F80
0F80
0F80
0F80
0FC0
07FC
07FC
01FC
ENDCHAR
STARTCHAR 007C
ENCODING 124
SWIDTH 366 0
DWIDTH 11 0
BBX 3 30 4 -7
BITMAP
E0
E0
E0
E0
E0
E0
E0
E0
E0
E0
E0
E0
E0
E0
E0
E0
E0
E0
E0
E0
E0
E0
E0
E0
E0
E0
E0
E0
E0
E0
ENDCHAR
STARTCHAR 007D
ENCODING 125
SWIDTH 700 0
DWIDTH 21 0
BBX 14 28 4 -5
BITMAP
FC00
FF00
FF00
1F80
0F80
0F80
0F80
0F80
0F80
0F80
0F80
0F80
07C0
07FC
01FC
07FC
0FC0
0F80
0F80
0F80
0F80
0F80
0F80
0F80
1F80
FF80
FF00
FC00
ENDCHAR
STARTCHAR 007E
ENCODING 126
SWIDTH 833 0
DWIDTH 25 0
BBX 19 5 3 7
BITMAP
1F0020
7FE0E0
FFFFE0
E0FFC0
801F00
ENDCHAR
STARTCHAR 00A0
ENCODING 160
SWIDTH 333 0
DWIDTH 10 0
BBX 0 0 0 0
BITMAP
ENDCHAR
STARTCHAR 00A1
ENCODING 161
SWIDTH 466 0
DWIDTH 14 0
BBX 5 22 4 -6
BITMAP
F8
F8
F8
F8
F8
00
00
78
78
78
78
F8
F8
F8
F8
F8
F8
F8
F8
F8
F8
F8
ENDCHAR
STARTCHAR 00A2
ENCODING 162
SWIDTH 700 0
DWIDTH 21 0
BBX 14 25 3 -5
BITMAP
01C0
01C0
01C0
01C0
07F8
1FFC
7FFC
7FCC
FDC4
FDC0
F9C0
F9C0
F9C0
F9C0
F9C0
FDC4
7FCC
3FFC
1FFC
07F8
01C0
01C0
01C0
01C0
01C0
ENDCHAR
STARTCHAR 00A3
ENCODING 163
SWIDTH 700 0
DWIDTH 21 0
BBX 16 22 2 0
BITMAP
01FC
07FF
07FF
0FFF
0FC3
1F81
1F80
1F80
1F80
1F80
FFFC
FFFC
FFFC
1F80
1F80
1F80
1F80
1F80
FFFF
FFFF
FFFF
FFFF
ENDCHAR
STARTCHAR 00A4
ENCODING 164
SWIDTH 633 0
DWIDTH 19 0
BBX 16 17 2 1
BITMAP
4004
E00E
F7DF
7FFE
3FFC
3C78
383C
701C
701C
701C
383C
3C78
3FFC
7FFE
F7DF
E00E
4004
ENDCHAR
STARTCHAR 00A5
ENCODING 165
SWIDTH 700 0
DWIDTH 21 0
BBX 19 22 1 0
BITMAP
FC07E0
FC07E0
7E0FC0
3E1F80
3F1F80
1FBF00
1FBF00
0FFE00
FFFFE0
FFFFE0
FFFFE0
03F800
01F000
FFFFE0
FFFFE0
FFFFE0
01F000
01F000
01F000
01F000
01F000
01F000
ENDCHAR
STARTCHAR 00A6
ENCODING 166
SWIDTH 366 0
DWIDTH 11 0
BBX 3 26 4 -5
BITMAP
E0
E0
E0
E0
E0
E0
E0
E0
E0
E0
E0
00
00
00
00
E0
E0
E0
E0
E0
E0
E0
E0
E0
E0
E0
ENDCHAR
STARTCHAR 00A7
ENCODING 167
SWIDTH 500 0
DWIDTH 15 0
BBX 15 25 0 -3
BITMAP
0FF0
1FF8
3FF8
3E18
7C00
3E00
3F80
1FE0
3FF8
7FFC
78FC
F03E
F01E
F81E
7E3E
7FFC
3FF8
0FF0
03F8
00FC
007C
307C
3FF8
3FF0
1FC0
ENDCHAR
STARTCHAR 00A8
ENCODING 168
SWIDTH 500 0
DWIDTH 15 0
BBX 9 4 3 19
BITMAP
E380
E380
E380
E380
ENDCHAR
STARTCHAR 00A9
ENCODING 169
SWIDTH 1000 0
DWIDTH 30 0
BBX 22 22 4 0
BITMAP
00FC00
03FF00
0F03C0
1C00E0
380070
307E30
71FE38
63C218
E7801C
C7800C
C7800C
C7800C
C7801C
E7801C
63C218
71FE38
30FE30
380070
1C00E0
0F03C0
07FF80
00FC00
ENDCHAR
STARTCHAR 00AA
ENCODING 170
SWIDTH 566 0
DWIDTH 17 0
BBX 13 17 2 5
BITMAP
3FC0
7FE0
60F0
0078
1FF8
7FF8
7878
F078
F0F8
71F8
7FF8
3E78
0000
0000
7FF0
7FF0
7FF0
ENDCHAR
STARTCHAR 00AB
ENCODING 171
SWIDTH 633 0
DWIDTH 19 0
BBX 15 14 2 2
BITMAP
0102
0306
0F1E
1F3E
3C78
F9F0
F1E0
F1E0
F9F0
3C78
1F3E
0F1E
0306
0102
ENDCHAR
STARTCHAR 00AC
ENCODING 172
SWIDTH 833 0
DWIDTH 25 0
BBX 19 9 3 4
BITMAP
FFFFE0
FFFFE0
FFFFE0
0000E0
0000E0
0000E0
0000E0
0000E0
0000E0
ENDCHAR
STARTCHAR 00AD
ENCODING 173
SWIDTH 400 0
DWIDTH 12 0
BBX 9 4 2 7
BITMAP
FF80
FF80
FF80
FF80
ENDCHAR
STARTCHAR 00AE
ENCODING 174
SWIDTH 1000 0
DWIDTH 30 0
BBX 22 22 4 0
BITMAP
00FC00
03FF00
0F03C0
1C00E0
380070
31FC30
71FE38
61CF18
E1CF1C
C1CF0C
C1FE0C
C1F80C
C1DC1C
E1DE1C
61CE18
71CF38
31C730
380070
1C00E0
0F03C0
07FF80
00FC00
ENDCHAR
STARTCHAR 00AF
ENCODING 175
SWIDTH 500 0
DWIDTH 15 0
BBX 9 3 3 20
BITMAP
FF80
FF80
FF80
ENDCHAR
STARTCHAR 00B0
ENCODING 176
SWIDTH 500 0
DWIDTH 15 0
BBX 9 10 3 12
BITMAP
3E00
7F00
E380
C180
C180
C180
C180
E380
7F00
3E00
ENDCHAR
STARTCHAR 00B1
ENCODING 177
SWIDTH 833 0
DWIDTH 25 0
BBX 19 19 3 0
BITMAP
00E000
00E000
00E000
00E000
00E000
FFFFE0
FFFFE0
FFFFE0
00E000
00E000
00E000
00E000
00E000
000000
000000
000000
FFFFE0
FFFFE0
FFFFE0
ENDCHAR
STARTCHAR 00B2
ENCODING 178
SWIDTH 433 0
DWIDTH 13 0
BBX 9 13 2 9
BITMAP
7E00
FF80
8780
0380
0380
0780
0F00
1E00
3C00
7800
F800
FF80
FF80
ENDCHAR
STARTCHAR 00B3
ENCODING 179
SWIDTH 433 0
DWIDTH 13 0
BBX 11 13 1 9
BITMAP
7F00
7FC0
43C0
01C0
03C0
1F80
1F80
03C0
01C0
01E0
83C0
FFC0
7F00
ENDCHAR
STARTCHAR 00B4
ENCODING 180
SWIDTH 500 0
DWIDTH 15 0
BBX 7 6 6 18
BITMAP
1E
3C
38
70
F0
E0
ENDCHAR
STARTCHAR 00B5
ENCODING 181
SWIDTH 733 0
DWIDTH 22 0
BBX 18 22 3 -6
BITMAP
F81F00
F81F00
F81F00
F81F00
F81F00
F81F00
F81F00
F81F00
F81F00
F81F00
F81F00
F83F00
FC3F00
FFFFC0
FFFFC0
FBC7C0
F80000
F80000
F80000
F80000
F80000
F80000
ENDCHAR
STARTCHAR 00B6
ENCODING 182
SWIDTH 633 0
DWIDTH 19 0
BBX 14 25 2 -3
BITMAP
0FFC
3FFC
7F8C
FF8C
FF8C
FF8C
FF8C
FF8C
FF8C
7F8C
3F8C
0F8C
038C
038C
038C
038C
038C
038C
038C
038C
038C
038C
038C
038C
038C
ENDCHAR
STARTCHAR 00B7
ENCODING 183
SWIDTH 366 0
DWIDTH 11 0
BBX 5 6 3 7
BITMAP
F8
F8
F8
F8
F8
F8
ENDCHAR
STARTCHAR 00B8
ENCODING 184
SWIDTH 500 0
DWIDTH 15 0
BBX 6 6 4 -6
BITMAP
18
0C
0C
0C
FC
F8
ENDCHAR
STARTCHAR 00B9
ENCODING 185
SWIDTH 433 0
DWIDTH 13 0
BBX 9 13 2 9
BITMAP
7C00
FC00
DC00
1C00
1C00
1C00
1C00
1C00
1C00
1C00
1C00
FF80
FF80
ENDCHAR
STARTCHAR 00BA
ENCODING 186
SWIDTH 566 0
DWIDTH 17 0
BBX 13 17 2 5
BITMAP
1F80
3FE0
78F0
F078
F078
F078
F078
F078
F078
78F0
3FE0
1F80
0000
0000
FFF0
FFF0
FFF0
ENDCHAR
STARTCHAR 00BB
ENCODING 187
SWIDTH 633 0
DWIDTH 19 0
BBX 14 14 3 2
BITMAP
8200
C180
E1C0
F1E0
7CF8
3E7C
1E3C
1E3C
3E7C
7CF8
F1E0
E1C0
C180
8100
ENDCHAR
STARTCHAR 00BC
ENCODING 188
SWIDTH 1033 0
DWIDTH 31 0
BBX 28 22 1 0
BITMAP
3E000E00
FE001E00
EE001C00
0E003800
0E007800
0E007000
0E00E000
0E01E000
0E01C000
0E03C000
0E0383C0
7FC707C0
7FCF0FC0
000E1FC0
001C1BC0
003C33C0
003873C0
007863C0
00707FF0
00E07FF0
01E003C0
01C003C0
ENDCHAR
STARTCHAR 00BD
ENCODING 189
SWIDTH 1033 0
DWIDTH 31 0
BBX 29 23 1 -1
BITMAP
3E000E00
FE001E00
EE001C00
0E003800
0E007800
0E007000
0E00E000
0E01E000
0E01C000
0E03C000
0E038FC0
7FC71FF0
7FCF10F0
000E0078
001C0070
003C00F0
003801F0
007803E0
007007C0
00E00F80
01E01F00
01C01FF8
00001FF8
ENDCHAR
STARTCHAR 00BE
ENCODING 190
SWIDTH 1033 0
DWIDTH 31 0
BBX 27 22 2 0
BITMAP
FE001C00
FF803C00
87803800
03807000
0780F000
3F00E000
3F01C000
0783C000
03C38000
03C78000
87870780
FF8E0F80
FE1E1F80
001C3F80
00383780
00786780
0070E780
00F0C780
00E0FFE0
01C0FFE0
03C00780
03800780
ENDCHAR
STARTCHAR 00BF
ENCODING 191
SWIDTH 566 0
DWIDTH 17 0
BBX 13 22 2 -6
BITMAP
07C0
07C0
07C0
07C0
07C0
0000
0000
07C0
07C0
07C0
0FC0
1F80
3F00
7E00
FC00
FC00
F800
F808
FC18
7FF8
3FF8
0FF8
ENDCHAR
STARTCHAR 00C0
ENCODING 192
SWIDTH 766 0
DWIDTH 23 0
BBX 23 27 0 0
BITMAP
01E000
00F000
007000
003800
000000
00FE00
00FF00
01FF00
01FF00
01FF80
03FF80
03EF80
07EFC0
07C7C0
07C7C0
0FC7E0
0F83E0
0F83F0
1F83F0
1FFFF0
1FFFF8
3FFFF8
3FFFF8
7E00FC
7E007C
7C007E
FC007E
ENDCHAR
STARTCHAR 00C1
ENCODING 193
SWIDTH 766 0
DWIDTH 23 0
BBX 23 27 0 0
BITMAP
000F00
001E00
003C00
007800
000000
00FE00
00FF00
01FF00
01FF00
01FF80
03FF80
03EF80
07EFC0
07C7C0
07C7C0
0FC7E0
0F83E0
0F83F0
1F83F0
1FFFF0
1FFFF8
3FFFF8
3FFFF8
7E00FC
7E007C
7C007E
FC007E
ENDCHAR
STARTCHAR 00C2
ENCODING 194
SWIDTH 766 0
DWIDTH 23 0
BBX 23 27 0 0
BITMAP
007C00
00FE00
01C700
038380
000000
00FE00
00FF00
01FF00
01FF00
01FF80
03FF80
03EF80
07EFC0
07C7C0
07C7C0
0FC7E0
0F83E0
0F83F0
1F83F0
1FFFF0
1FFFF8
3FFFF8
3FFFF8
7E00FC
7E007C
7C007E
FC007E
ENDCHAR
STARTCHAR 00C3
ENCODING 195
SWIDTH 766 0
DWIDTH 23 0
BBX 23 28 0 0
BITMAP
00E180
01F380
019F00
018E00
000000
000000
00FE00
00FF00
01FF00
01FF00
01FF80
03FF80
03EF80
07EFC0
07C7C0
07C7C0
0FC7E0
0F83E0
0F83F0
1F83F0
1FFFF0
1FFFF8
3FFFF8
3FFFF8
7E00FC
7E007C
7C007E
FC007E
ENDCHAR
STARTCHAR 00C4
ENCODING 196
SWIDTH 766 0
DWIDTH 23 0
BBX 23 28 0 0
BITMAP
01C700
01C700
01C700
01C700
000000
000000
00FE00
00FF00
01FF00
01FF00
01FF80
03FF80
03EF80
07EFC0
07C7C0
07C7C0
0FC7E0
0F83E0
0F83F0
1F83F0
1FFFF0
1FFFF8
3FFFF8
3FFFF8
7E00FC
7E007C
7C007E
FC007E
ENDCHAR
STARTCHAR 00C5
ENCODING 197
SWIDTH 766 0
DWIDTH 23 0
BBX 23 28 0 0
BITMAP
003C00
00FE00
00C600
01C700
01C700
00C700
00FE00
00FF00
01FF00
01FF00
01FF80
03EF80
03EF80
07EFC0
07C7C0
07C7E0
0FC7E0
0F83E0
0F83F0
1F83F0
1FFFF0
1FFFF8
3FFFF8
3FFFF8
7E00FC
7E007C
7C007E
FC007E
ENDCHAR
STARTCHAR 00C6
ENCODING 198
SWIDTH 1100 0
DWIDTH 33 0
BBX 30 22 0 0
BITMAP
007FFFFC
007FFFFC
00FFFFFC
00FFFFFC
01F9F000
01F1F000
03F1F000
03E1F000
03E1F000
07E1FFF8
07C1FFF8
0FC1FFF8
0FC1FFF8
0FFFF000
1FFFF000
1FFFF000
3FFFF000
3E01F000
7E01FFFC
7E01FFFC
7C01FFFC
FC01FFFC
ENDCHAR
STARTCHAR 00C7
ENCODING 199
SWIDTH 733 0
DWIDTH 22 0
BBX 19 28 1 -6
BITMAP
00FF00
03FFE0
0FFFE0
1FFFE0
3FC0E0
3F0020
7F0000
7E0000
7E0000
7C0000
FC0000
FC0000
7C0000
7E0000
7E0000
7F0000
3F0020
3FC0E0
1FFFE0
0FFFE0
03FFE0
00FF00
000C00
000C00
000E00
000E00
00FE00
00FC00
ENDCHAR
STARTCHAR 00C8
ENCODING 200
SWIDTH 700 0
DWIDTH 21 0
BBX 15 27 3 0
BITMAP
1E00
0E00
0700
0380
0000
FFFE
FFFE
FFFE
FFFE
F800
F800
F800
F800
F800
FFFC
FFFC
FFFC
FFFC
F800
F800
F800
F800
F800
FFFE
FFFE
FFFE
FFFE
ENDCHAR
STARTCHAR 00C9
ENCODING 201
SWIDTH 700 0
DWIDTH 21 0
BBX 15 27 3 0
BITMAP
00F0
01C0
0380
0700
0000
FFFE
FFFE
FFFE
FFFE
F800
F800
F800
F800
F800
FFFC
FFFC
FFFC
FFFC
F800
F800
F800
F800
F800
FFFE
FFFE
FFFE
FFFE
ENDCHAR
STARTCHAR 00CA
ENCODING 202
SWIDTH 700 0
DWIDTH 21 0
BBX 15 27 3 0
BITMAP
0FC0
0FE0
1CE0
3870
0000
FFFE
FFFE
FFFE
FFFE
F800
F800
F800
F800
F800
FFFC
FFFC
FFFC
FFFC
F800
F800
F800
F800
F800
FFFE
FFFE
FFFE
FFFE
ENDCHAR
STARTCHAR 00CB
ENCODING 203
SWIDTH 700 0
DWIDTH 21 0
BBX 15 28 3 0
BITMAP
1CF0
1CF0
1CF0
1CF0
0000
0000
FFFE
FFFE
FFFE
FFFE
F800
F800
F800
F800
F800
FFFC
FFFC
FFFC
FFFC
F800
F800
F800
F800
F800
FFFE
FFFE
FFFE
FFFE
ENDCHAR
STARTCHAR 00CC
ENCODING 204
SWIDTH 366 0
DWIDTH 11 0
BBX 7 27 1 0
BITMAP
F0
78
38
1C
00
3E
3E
3E
3E
3E
3E
3E
3E
3E
3E
3E
3E
3E
3E
3E
3E
3E
3E
3E
3E
3E
3E
ENDCHAR
STARTCHAR 00CD
ENCODING 205
SWIDTH 366 0
DWIDTH 11 0
BBX 7 27 3 0
BITMAP
1E
3C
78
E0
00
F8
F8
F8
F8
F8
F8
F8
F8
F8
F8
F8
F8
F8
F8
F8
F8
F8
F8
F8
F8
F8
F8
ENDCHAR
STARTCHAR 00CE
ENCODING 206
SWIDTH 366 0
DWIDTH 11 0
BBX 11 27 0 0
BITMAP
1F00
3F80
71C0
E0E0
0000
1F00
1F00
1F00
1F00
1F00
1F00
1F00
1F00
1F00
1F00
1F00
1F00
1F00
1F00
1F00
1F00
1F00
1F00
1F00
1F00
1F00
1F00
ENDCHAR
STARTCHAR 00CF
ENCODING 207
SWIDTH 366 0
DWIDTH 11 0
BBX 9 28 1 0
BITMAP
E380
E380
E380
E380
0000
0000
3E00
3E00
3E00
3E00
3E00
3E00
3E00
3E00
3E00
3E00
3E00
3E00
3E00
3E00
3E00
3E00
3E00
3E00
3E00
3E00
3E00
3E00
ENDCHAR
STARTCHAR 00D0
ENCODING 208
SWIDTH 833 0
DWIDTH 25 0
BBX 24 22 0 0
BITMAP
1FFF00
1FFFC0
1FFFF0
1FFFF8
1F83FC
1F80FC
1F807E
1F807E
1F807E
FFF03F
FFF03F
FFF03F
FFF03F
1F807E
1F807E
1F807E
1F80FC
1F83FC
1FFFF8
1FFFF0
1FFFC0
1FFF00
ENDCHAR
STARTCHAR 00D1
ENCODING 209
SWIDTH 833 0
DWIDTH 25 0
BBX 19 27 3 0
BITMAP
070C00
0FCC00
0CFC00
0C3800
000000
FC03E0
FE03E0
FE03E0
FF03E0
FF03E0
FF83E0
FF83E0
FFC3E0
FBE3E0
FBE3E0
F9F3E0
F8F3E0
F8FBE0
F87BE0
F87FE0
F83FE0
F83FE0
F81FE0
F81FE0
F80FE0
F80FE0
F807E0
ENDCHAR
STARTCHAR 00D2
ENCODING 210
SWIDTH 866 0
DWIDTH 26 0
BBX 23 27 1 0
BITMAP
01E000
00F000
007000
003800
000000
00FF00
07FFC0
0FFFF0
1FFFF8
3F83F8
3F01FC
7E00FC
7E007E
7E007E
7C007E
FC007E
FC007E
7C007E
7E007E
7E007E
7E00FC
3F01FC
3F83F8
1FFFF8
0FFFF0
07FFC0
00FF00
ENDCHAR
STARTCHAR 00D3
ENCODING 211
SWIDTH 866 0
DWIDTH 26 0
BBX 23 27 1 0
BITMAP
000F00
001E00
003C00
003800
000000
00FF00
07FFC0
0FFFF0
1FFFF8
3F83F8
3F01FC
7E00FC
7E007E
7E007E
7C007E
FC007E
FC007E
7C007E
7E007E
7E007E
7E00FC
3F01FC
3F83F8
1FFFF8
0FFFF0
07FFC0
00FF00
ENDCHAR
STARTCHAR 00D4
ENCODING 212
SWIDTH 866 0
DWIDTH 26 0
BBX 23 27 1 0
BITMAP
007C00
00FE00
01CF00
038300
000000
00FF00
07FFC0
0FFFF0
1FFFF8
3F83F8
3F01FC
7E00FC
7E007E
7E007E
7C007E
FC007E
FC007E
7C007E
7E007E
7E007E
7E00FC
3F01FC
3F83F8
1FFFF8
0FFFF0
07FFC0
00FF00
ENDCHAR
STARTCHAR 00D5
ENCODING 213
SWIDTH 866 0
DWIDTH 26 0
BBX 23 27 1 0
BITMAP
00E180
01F980
019F00
018F00
000000
00FF00
07FFC0
0FFFF0
1FFFF8
3F83F8
3F01FC
7E00FC
7E007E
7E007E
7C007E
FC007E
FC007E
7C007E
7E007E
7E007E
7E00FC
3F01FC
3F83F8
1FFFF8
0FFFF0
07FFC0
00FF00
ENDCHAR
STARTCHAR 00D6
ENCODING 214
SWIDTH 866 0
DWIDTH 26 0
BBX 23 28 1 0
BITMAP
01E700
01E700
01E700
01E700
000000
000000
00FF00
07FFC0
0FFFF0
1FFFF8
3F83F8
3F01FC
7E00FC
7E007E
7E007E
7C007E
FC007E
FC007E
7C007E
7E007E
7E007E
7E00FC
3F01FC
3F83F8
1FFFF8
0FFFF0
07FFC0
00FF00
ENDCHAR
STARTCHAR 00D7
ENCODING 215
SWIDTH 833 0
DWIDTH 25 0
BBX 17 18 4 0
BITMAP
200200
700700
F80F80
7C1F00
3E1E00
1F3C00
0FFC00
07F800
03F000
03F000
07F000
0FF800
1F7C00
3E1E00
7C1F00
F80F80
700700
200200
ENDCHAR
STARTCHAR 00D8
ENCODING 216
SWIDTH 866 0
DWIDTH 26 0
BBX 23 22 1 0
BITMAP
00FF06
07FFCE
0FFFFC
1FFFF8
3F83F8
3F01FC
7E01FC
7E03FE
7E077E
7C0E7E
FC1C7E
FC787E
7CF07E
7FE07E
7FC07E
7F80FC
3F01FC
3F83F8
3FFFF8
7FFFF0
F7FFC0
C0FF00
ENDCHAR
STARTCHAR 00D9
ENCODING 217
SWIDTH 800 0
DWIDTH 24 0
BBX 19 27 3 0
BITMAP
0F0000
038000
01C000
00E000
000000
F807E0
F807E0
F807E0
F807E0
F807E0
F807E0
F807E0
F807E0
F807E0
F807E0
F807E0
F807E0
F807E0
F807E0
F807E0
FC07C0
FC0FC0
7E1FC0
7FFF80
3FFF80
1FFE00
07F800
ENDCHAR
STARTCHAR 00DA
ENCODING 218
SWIDTH 800 0
DWIDTH 24 0
BBX 19 27 3 0
BITMAP
007800
00F000
00E000
01C000
000000
F807E0
F807E0
F807E0
F807E0
F807E0
F807E0
F807E0
F807E0
F807E0
F807E0
F807E0
F807E0
F807E0
F807E0
F807E0
FC07C0
FC0FC0
7E1FC0
7FFF80
3FFF80
1FFE00
07F800
ENDCHAR
STARTCHAR 00DB
ENCODING 219
SWIDTH 800 0
DWIDTH 24 0
BBX 19 27 3 0
BITMAP
01F000
03F800
073800
0E1C00
000000
F807E0
F807E0
F807E0
F807E0
F807E0
F807E0
F807E0
F807E0
F807E0
F807E0
F807E0
F807E0
F807E0
F807E0
F807E0
FC07C0
FC0FC0
7E1FC0
7FFF80
3FFF80
1FFE00
07F800
ENDCHAR
STARTCHAR 00DC
ENCODING 220
SWIDTH 800 0
DWIDTH 24 0
BBX 19 28 3 0
BITMAP
073C00
073C00
073C00
073C00
000000
000000
F807E0
F807E0
F807E0
F807E0
F807E0
F807E0
F807E0
F807E0
F807E0
F807E0
F807E0
F807E0
F807E0
F807E0
F807E0
FC07C0
FC0FC0
7E1FC0
7FFF80
3FFF80
1FFE00
07F800
ENDCHAR
STARTCHAR 00DD
ENCODING 221
SWIDTH 733 0
DWIDTH 22 0
BBX 22 27 0 0
BITMAP
001E00
003C00
007800
007000
000000
FC00FC
7E01F8
7E03F0
3F03F0
1F87E0
1F8FC0
0FCFC0
07FF80
07FF00
03FF00
01FE00
01FE00
00FC00
00FC00
00FC00
00FC00
00FC00
00FC00
00FC00
00FC00
00FC00
00FC00
ENDCHAR
STARTCHAR 00DE
ENCODING 222
SWIDTH 733 0
DWIDTH 22 0
BBX 18 22 3 0
BITMAP
F80000
F80000
F80000
F80000
FFF800
FFFE00
FFFF00
FFFF80
F81F80
F80FC0
F80FC0
F80FC0
F80FC0
F81F80
FFFF80
FFFF00
FFFE00
FFF800
F80000
F80000
F80000
F80000
ENDCHAR
STARTCHAR 00DF
ENCODING 223
SWIDTH 733 0
DWIDTH 22 0
BBX 17 23 3 0
BITMAP
0FE000
3FF800
7FFC00
FC3E00
F83E00
F83E00
F87E00
F9F800
F9E000
FBE000
FBE000
FBF000
F9FC00
F9FF00
F87F00
F83F80
F80F80
F80F80
F80F80
FB1F80
FBFF80
FBFF00
F8FC00
ENDCHAR
STARTCHAR 00E0
ENCODING 224
SWIDTH 666 0
DWIDTH 20 0
BBX 17 24 1 0
BITMAP
0F0000
0F0000
078000
03C000
01C000
00E000
000000
000000
3FF800
3FFE00
3FFF00
201F00
000F80
0FFF80
3FFF80
7FFF80
7E0F80
FC0F80
FC1F80
FC1F80
7C3F80
7FEF80
3FCF80
1F8F80
ENDCHAR
STARTCHAR 00E1
ENCODING 225
SWIDTH 666 0
DWIDTH 20 0
BBX 17 24 1 0
BITMAP
001E00
003C00
007800
007000
00E000
01C000
000000
000000
3FF800
3FFE00
3FFF00
201F00
000F80
0FFF80
3FFF80
7FFF80
7E0F80
FC0F80
FC1F80
FC1F80
7C3F80
7FEF80
3FCF80
1F8F80
ENDCHAR
STARTCHAR 00E2
ENCODING 226
SWIDTH 666 0
DWIDTH 20 0
BBX 17 24 1 0
BITMAP
01E000
01F000
03F800
073800
071C00
0E0C00
000000
000000
3FF800
3FFE00
3FFF00
201F00
000F80
0FFF80
3FFF80
7FFF80
7E0F80
FC0F80
FC1F80
FC1F80
7C3F80
7FEF80
3FCF80
1F8F80
ENDCHAR
STARTCHAR 00E3
ENCODING 227
SWIDTH 666 0
DWIDTH 20 0
BBX 17 24 1 0
BITMAP
030C00
078C00
06CC00
0C4C00
0C7C00
0C3800
000000
000000
3FF800
3FFE00
3FFF00
201F00
000F80
0FFF80
3FFF80
7FFF80
7E0F80
FC0F80
FC1F80
FC1F80
7C3F80
7FEF80
3FCF80
1F8F80
ENDCHAR
STARTCHAR 00E4
ENCODING 228
SWIDTH 666 0
DWIDTH 20 0
BBX 17 23 1 0
BITMAP
073C00
073C00
073C00
073C00
000000
000000
000000
3FF800
3FFE00
3FFF00
201F00
000F80
0FFF80
3FFF80
7FFF80
7E0F80
FC0F80
FC1F80
FC1F80
7C3F80
7FEF80
3FCF80
1F8F80
ENDCHAR
STARTCHAR 00E5
ENCODING 229
SWIDTH 666 0
DWIDTH 20 0
BBX 17 27 1 0
BITMAP
01E000
03F000
073800
061800
061800
073800
03F800
01E000
000000
000000
000000
3FF800
3FFE00
3FFF00
201F00
000F80
0FFF80
3FFF80
7FFF80
7E0F80
FC0F80
FC1F80
FC1F80
7C3F80
7FEF80
3FCF80
1F8F80
ENDCHAR
STARTCHAR 00E6
ENCODING 230
SWIDTH 1033 0
DWIDTH 31 0
BBX 29 16 1 0
BITMAP
3FF07F00
3FFDFFC0
3FFFFFE0
201FE3F0
000FC1F0
0FFF81F8
3FFF80F8
7FFFFFF8
7E0FFFF8
FC0FFFF8
FC0F8000
FC1F8010
7C3FE070
7FFBFFF0
3FE1FFF0
0FC07FC0
ENDCHAR
STARTCHAR 00E7
ENCODING 231
SWIDTH 600 0
DWIDTH 18 0
BBX 15 22 1 -6
BITMAP
03F8
0FFE
3FFE
3F06
7E02
7C00
FC00
FC00
FC00
FC00
7C00
7E02
3F06
3FFE
0FFE
03F8
0060
0070
0030
0070
03F0
03E0
ENDCHAR
STARTCHAR 00E8
ENCODING 232
SWIDTH 666 0
DWIDTH 20 0
BBX 18 24 1 0
BITMAP
0F0000
078000
038000
01C000
00E000
00E000
000000
000000
03F800
0FFE00
3FFF00
7F1F00
7E0F80
7C0F80
FC0FC0
FFFFC0
FFFFC0
FFFFC0
7C0000
7C0080
7E0380
3FFF80
0FFF80
03FE00
ENDCHAR
STARTCHAR 00E9
ENCODING 233
SWIDTH 666 0
DWIDTH 20 0
BBX 18 24 1 0
BITMAP
001E00
001C00
003C00
007800
007000
00E000
000000
000000
03F800
0FFE00
3FFF00
7F1F00
7E0F80
7C0F80
FC0FC0
FFFFC0
FFFFC0
FFFFC0
7C0000
7C0080
7E0380
3FFF80
0FFF80
03FE00
ENDCHAR
STARTCHAR 00EA
ENCODING 234
SWIDTH 666 0
DWIDTH 20 0
BBX 18 24 1 0
BITMAP
00F000
01F000
03F800
039C00
071C00
0E0E00
000000
000000
03F800
0FFE00
3FFF00
7F1F00
7E0F80
7C0F80
FC0FC0
FFFFC0
FFFFC0
FFFFC0
7C0000
7C0080
7E0380
3FFF80
0FFF80
03FE00
ENDCHAR
STARTCHAR 00EB
ENCODING 235
SWIDTH 666 0
DWIDTH 20 0
BBX 18 23 1 0
BITMAP
079C00
079C00
079C00
079C00
000000
000000
000000
03F800
0FFE00
3FFF00
7F1F00
7E0F80
7C0F80
FC0FC0
FFFFC0
FFFFC0
FFFFC0
7C0000
7C0080
7E0380
3FFF80
0FFF80
03FE00
ENDCHAR
STARTCHAR 00EC
ENCODING 236
SWIDTH 333 0
DWIDTH 10 0
BBX 8 24 0 0
BITMAP
F0
78
38
1C
1E
0E
00
00
1F
1F
1F
1F
1F
1F
1F
1F
1F
1F
1F
1F
1F
1F
1F
1F
ENDCHAR
STARTCHAR 00ED
ENCODING 237
SWIDTH 333 0
DWIDTH 10 0
BBX 8 24 3 0
BITMAP
0F
1E
1C
38
78
70
00
00
F8
F8
F8
F8
F8
F8
F8
F8
F8
F8
F8
F8
F8
F8
F8
F8
ENDCHAR
STARTCHAR 00EE
ENCODING 238
SWIDTH 333 0
DWIDTH 10 0
BBX 10 24 0 0
BITMAP
1E00
3F00
3F00
7380
61C0
E0C0
0000
0000
1F00
1F00
1F00
1F00
1F00
1F00
1F00
1F00
1F00
1F00
1F00
1F00
1F00
1F00
1F00
1F00
ENDCHAR
STARTCHAR 00EF
ENCODING 239
SWIDTH 333 0
DWIDTH 10 0
BBX 9 23 1 0
BITMAP
E780
E780
E780
E780
0000
0000
0000
3E00
3E00
3E00
3E00
3E00
3E00
3E00
3E00
3E00
3E00
3E00
3E00
3E00
3E00
3E00
3E00
ENDCHAR
STARTCHAR 00F0
ENCODING 240
SWIDTH 700 0
DWIDTH 21 0
BBX 18 23 1 0
BITMAP
0F8100
07CF80
03FE00
03F000
1FF800
3E7C00
107C00
003E00
07FF00
1FFF80
3FFF80
7E0FC0
7C07C0
FC07C0
FC07C0
FC07C0
FC07C0
7C0FC0
7E0FC0
3F1F80
3FFF00
0FFE00
03F800
ENDCHAR
STARTCHAR 00F1
ENCODING 241
SWIDTH 700 0
DWIDTH 21 0
BBX 16 24 3 0
BITMAP
0E18
0F18
1998
1898
18F0
1870
0000
0000
F8F8
FBFE
FFFE
FE3F
FC3F
F81F
F81F
F81F
F81F
F81F
F81F
F81F
F81F
F81F
F81F
F81F
ENDCHAR
STARTCHAR 00F2
ENCODING 242
SWIDTH 700 0
DWIDTH 21 0
BBX 18 24 1 0
BITMAP
0F0000
078000
038000
01C000
00E000
00E000
000000
000000
03F800
0FFE00
3FFF00
7F1F80
7E0FC0
7C07C0
FC07C0
FC07C0
FC07C0
FC07C0
7C07C0
7E0FC0
7F1F80
3FFF00
1FFE00
03F800
ENDCHAR
STARTCHAR 00F3
ENCODING 243
SWIDTH 700 0
DWIDTH 21 0
BBX 18 24 1 0
BITMAP
001E00
001C00
003C00
007800
007000
00E000
000000
000000
03F800
0FFE00
3FFF00
7F1F80
7E0FC0
7C07C0
FC07C0
FC07C0
FC07C0
FC07C0
7C07C0
7E0FC0
7F1F80
3FFF00
1FFE00
03F800
ENDCHAR
STARTCHAR 00F4
ENCODING 244
SWIDTH 700 0
DWIDTH 21 0
BBX 18 24 1 0
BITMAP
01E000
01F000
03F800
073800
071C00
0E0E00
000000
000000
03F800
0FFE00
3FFF00
7F1F80
7E0FC0
7C07C0
FC07C0
FC07C0
FC07C0
FC07C0
7C07C0
7E0FC0
7F1F80
3FFF00
1FFE00
03F800
ENDCHAR
STARTCHAR 00F5
ENCODING 245
SWIDTH 700 0
DWIDTH 21 0
BBX 18 24 1 0
BITMAP
030C00
078C00
06CC00
0C4C00
0C7C00
0C3800
000000
000000
03F800
0FFE00
3FFF00
7F1F80
7E0FC0
7C07C0
FC07C0
FC07C0
FC07C0
FC07C0
7C07C0
7E0FC0
7F1F80
3FFF00
1FFE00
03F800
ENDCHAR
STARTCHAR 00F6
ENCODING 246
SWIDTH 700 0
DWIDTH 21 0
BBX 18 23 1 0
BITMAP
073C00
073C00
073C00
073C00
000000
000000
000000
03F800
0FFE00
3FFF00
7F1F80
7E0FC0
7C07C0
FC07C0
FC07C0
FC07C0
FC07C0
7C07C0
7E0FC0
7F1F80
3FFF00
1FFE00
03F800
ENDCHAR
STARTCHAR 00F7
ENCODING 247
SWIDTH 833 0
DWIDTH 25 0
BBX 19 17 3 1
BITMAP
01F000
01F000
01F000
01F000
01F000
000000
000000
FFFFE0
FFFFE0
FFFFE0
000000
000000
01F000
01F000
01F000
01F000
01F000
ENDCHAR
STARTCHAR 00F8
ENCODING 248
SWIDTH 700 0
DWIDTH 21 0
BBX 18 18 1 -1
BITMAP
000080
03F9C0
0FFF80
3FFF80
3F1F80
7E1FC0
7C3FC0
FC77C0
FCE7C0
FDC7C0
FF87C0
7F07C0
7F0FC0
7F1F80
3FFF00
3FFE00
77F800
400000
ENDCHAR
STARTCHAR 00F9
ENCODING 249
SWIDTH 700 0
DWIDTH 21 0
BBX 17 24 2 0
BITMAP
1E0000
0F0000
078000
038000
01C000
00E000
000000
000000
FC0F80
FC0F80
FC0F80
FC0F80
FC0F80
FC0F80
FC0F80
FC0F80
FC0F80
FC1F80
FC1F80
FC1F80
7E3F80
7FEF80
3FCF80
1F8F80
ENDCHAR
STARTCHAR 00FA
ENCODING 250
SWIDTH 700 0
DWIDTH 21 0
BBX 17 24 2 0
BITMAP
001E00
003C00
007800
007000
00E000
01C000
000000
000000
FC0F80
FC0F80
FC0F80
FC0F80
FC0F80
FC0F80
FC0F80
FC0F80
FC0F80
FC1F80
FC1F80
FC1F80
7E3F80
7FEF80
3FCF80
1F8F80
ENDCHAR
STARTCHAR 00FB
ENCODING 251
SWIDTH 700 0
DWIDTH 21 0
BBX 17 24 2 0
BITMAP
01E000
03E000
07F000
077800
0E3800
1C1C00
000000
000000
FC0F80
FC0F80
FC0F80
FC0F80
FC0F80
FC0F80
FC0F80
FC0F80
FC0F80
FC1F80
FC1F80
FC1F80
7E3F80
7FEF80
3FCF80
1F8F80
ENDCHAR
STARTCHAR 00FC
ENCODING 252
SWIDTH 700 0
DWIDTH 21 0
BBX 17 23 2 0
BITMAP
0E3800
0E3800
0E3800
0E3800
000000
000000
000000
FC0F80
FC0F80
FC0F80
FC0F80
FC0F80
FC0F80
FC0F80
FC0F80
FC0F80
FC1F80
FC1F80
FC1F80
7E3F80
7FEF80
3FCF80
1F8F80
ENDCHAR
STARTCHAR 00FD
ENCODING 253
SWIDTH 666 0
DWIDTH 20 0
BBX 18 30 1 -6
BITMAP
003C00
003C00
007800
00F000
00E000
01C000
000000
000000
F807C0
F80F80
FC0F80
7C0F80
7C1F00
3E1F00
3E1E00
1F3E00
1F3E00
0F7C00
0FFC00
0FF800
07F800
07F800
03F000
03F000
01F000
03E000
03E000
3FC000
3F8000
3F0000
ENDCHAR
STARTCHAR 00FE
ENCODING 254
SWIDTH 700 0
DWIDTH 21 0
BBX 17 29 3 -6
BITMAP
F80000
F80000
F80000
F80000
F80000
F80000
F80000
F8F800
FBFC00
FFFE00
FC3F00
FC1F80
F81F80
F80F80
F80F80
F80F80
F80F80
F81F80
FC1F80
FC3F00
FFFE00
FBFC00
F8F800
F80000
F80000
F80000
F80000
F80000
F80000
ENDCHAR
STARTCHAR 00FF
ENCODING 255
SWIDTH 666 0
DWIDTH 20 0
BBX 18 29 1 -6
BITMAP
0F3800
0F3800
0F3800
0F3800
000000
000000
000000
F807C0
F80F80
FC0F80
7C0F80
7C1F00
3E1F00
3E1E00
1F3E00
1F3E00
0F7C00
0FFC00
0FF800
07F800
07F800
03F000
03F000
01F000
03E000
03E000
3FC000
3F8000
3F0000
ENDCHAR
STARTCHAR 0100
ENCODING 256
SWIDTH 766 0
DWIDTH 23 0
BBX 23 28 0 0
BITMAP
01FF00
01FF00
01FF00
000000
000000
000000
00FE00
00FF00
01FF00
01FF00
01FF80
03FF80
03EF80
07EFC0
07C7C0
07C7C0
0FC7E0
0F83E0
0F83F0
1F83F0
1FFFF0
1FFFF8
3FFFF8
3FFFF8
7E00FC
7E007C
7C007E
FC007E
ENDCHAR
STARTCHAR 0101
ENCODING 257
SWIDTH 666 0
DWIDTH 20 0
BBX 17 23 1 0
BITMAP
0FF800
0FF800
0FF800
000000
000000
000000
000000
3FF800
3FFE00
3FFF00
201F00
000F80
0FFF80
3FFF80
7FFF80
7E0F80
FC0F80
FC1F80
FC1F80
7C3F80
7FEF80
3FCF80
1F8F80
ENDCHAR
STARTCHAR 0102
ENCODING 258
SWIDTH 766 0
DWIDTH 23 0
BBX 23 29 0 0
BITMAP
018300
01C700
00FF00
007C00
000000
000000
000000
00FE00
00FF00
01FF00
01FF00
01FF80
03FF80
03EF80
07EFC0
07C7C0
07C7C0
0FC7E0
0F83E0
0F83F0
1F83F0
1FFFF0
1FFFF8
3FFFF8
3FFFF8
7E00FC
7E007C
7C007E
FC007E
ENDCHAR
STARTCHAR 0103
ENCODING 259
SWIDTH 666 0
DWIDTH 20 0
BBX 17 24 1 0
BITMAP
060E00
070C00
03FC00
01F000
000000
000000
000000
000000
3FF800
3FFE00
3FFF00
201F00
000F80
0FFF80
3FFF80
7FFF80
7E0F80
FC0F80
FC1F80
FC1F80
7C3F80
7FEF80
3FCF80
1F8F80
ENDCHAR
STARTCHAR 0104
ENCODING 260
SWIDTH 766 0
DWIDTH 23 0
BBX 23 28 0 -6
BITMAP
00FE00
00FF00
01FF00
01FF00
01FF80
03FF80
03EF80
07EFC0
07C7C0
07C7C0
0FC7E0
0F83E0
0F83F0
1F83F0
1FFFF0
1FFFF8
3FFFF8
3FFFF8
7E00FC
7E007C
7C007E
FC007E
000060
0000E0
0000C0
0000E0
0000FC
00007C
ENDCHAR
STARTCHAR 0105
ENCODING 261
SWIDTH 666 0
DWIDTH 20 0
BBX 17 22 1 -6
BITMAP
3FF800
3FFE00
3FFF00
201F00
000F80
0FFF80
3FFF80
7FFF80
7E0F80
FC0F80
FC1F80
FC1F80
7C3F80
7FEF80
3FCF80
1F8F80
001800
001800
003000
003800
003F00
001F00
ENDCHAR
STARTCHAR 0106
ENCODING 262
SWIDTH 733 0
DWIDTH 22 0
BBX 19 27 1 0
BITMAP
000F00
001E00
001C00
003800
000000
00FF00
03FFE0
0FFFE0
1FFFE0
3FC0E0
3F0020
7F0000
7E0000
7E0000
7C0000
FC0000
FC0000
7C0000
7E0000
7E0000
7F0000
3F0020
3FC0E0
1FFFE0
0FFFE0
03FFE0
00FF00
ENDCHAR
STARTCHAR 0107
ENCODING 263
SWIDTH 600 0
DWIDTH 18 0
BBX 15 24 1 0
BITMAP
001E
001C
0038
0078
00F0
00E0
0000
0000
03F8
0FFE
3FFE
3F06
7E02
7C00
FC00
FC00
FC00
FC00
7C00
7E02
3F06
3FFE
0FFE
03F8
ENDCHAR
STARTCHAR 0108
ENCODING 264
SWIDTH 733 0
DWIDTH 22 0
BBX 19 27 1 0
BITMAP
003E00
007F00
00E780
01C180
000000
00FF00
03FFE0
0FFFE0
1FFFE0
3FC0E0
3F0020
7F0000
7E0000
7E0000
7C0000
FC0000
FC0000
7C0000
7E0000
7E0000
7F0000
3F0020
3FC0E0
1FFFE0
0FFFE0
03FFE0
00FF00
ENDCHAR
STARTCHAR 0109
ENCODING 265
SWIDTH 600 0
DWIDTH 18 0
BBX 15 24 1 0
BITMAP
00F0
01F0
03F8
039C
071C
060E
0000
0000
03F8
0FFE
3FFE
3F06
7E02
7C00
FC00
FC00
FC00
FC00
7C00
7E02
3F06
3FFE
0FFE
03F8
ENDCHAR
STARTCHAR 010A
ENCODING 266
SWIDTH 733 0
DWIDTH 22 0
BBX 19 28 1 0
BITMAP
003C00
003C00
003C00
003C00
000000
000000
00FF00
03FFE0
0FFFE0
1FFFE0
3FC0E0
3F0020
7F0000
7E0000
7E0000
7C0000
FC0000
FC0000
7C0000
7E0000
7E0000
7F0000
3F0020
3FC0E0
1FFFE0
0FFFE0
03FFE0
00FF00
ENDCHAR
STARTCHAR 010B
ENCODING 267
SWIDTH 600 0
DWIDTH 18 0
BBX 15 25 1 0
BITMAP
01F0
01F0
01F0
01F0
01F0
01F0
0000
0000
0000
03F8
0FFE
3FFE
3F06
7E02
7C00
FC00
FC00
FC00
FC00
7C00
7E02
3F06
3FFE
0FFE
03F8
ENDCHAR
STARTCHAR 010C
ENCODING 268
SWIDTH 733 0
DWIDTH 22 0
BBX 19 27 1 0
BITMAP
018380
01E700
00FE00
007C00
000000
00FF00
03FFE0
0FFFE0
1FFFE0
3FC0E0
3F0020
7F0000
7E0000
7E0000
7C0000
FC0000
FC0000
7C0000
7E0000
7E0000
7F0000
3F0020
3FC0E0
1FFFE0
0FFFE0
03FFE0
00FF00
ENDCHAR
STARTCHAR 010D
ENCODING 269
SWIDTH 600 0
DWIDTH 18 0
BBX 15 24 1 0
BITMAP
0E0E
071C
03BC
03F8
01F0
00F0
0000
0000
03F8
0FFE
3FFE
3F06
7E02
7C00
FC00
FC00
FC00
FC00
7C00
7E02
3F06
3FFE
0FFE
03F8
ENDCHAR
STARTCHAR 010E
ENCODING 270
SWIDTH 833 0
DWIDTH 25 0
BBX 20 27 3 0
BITMAP
1C1C00
0E3800
07F000
03E000
000000
FFF000
FFFE00
FFFF80
FFFFC0
F81FC0
F80FE0
F807F0
F803F0
F803F0
F803F0
F803F0
F803F0
F803F0
F803F0
F803F0
F807F0
F80FE0
F81FC0
FFFFC0
FFFF80
FFFE00
FFF000
ENDCHAR
STARTCHAR 010F
ENCODING 271
SWIDTH 700 0
DWIDTH 21 0
BBX 25 23 1 0
BITMAP
0007C780
0007C780
0007CF00
0007CF00
0007CE00
0007CE00
0007C000
07C7C000
1FE7C000
3FF7C000
7E1FC000
7E0FC000
7C0FC000
FC07C000
FC07C000
FC07C000
FC07C000
7C0FC000
7E0FC000
7E1FC000
3FF7C000
1FE7C000
07C7C000
ENDCHAR
STARTCHAR 0110
ENCODING 272
SWIDTH 833 0
DWIDTH 25 0
BBX 24 22 0 0
BITMAP
1FFF00
1FFFC0
1FFFF0
1FFFF8
1F83FC
1F80FC
1F807E
1F807E
1F807E
FFF03F
FFF03F
FFF03F
FFF03F
1F807E
1F807E
1F807E
1F80FC
1F83FC
1FFFF8
1FFFF0
1FFFC0
1FFF00
ENDCHAR
STARTCHAR 0111
ENCODING 273
SWIDTH 700 0
DWIDTH 21 0
BBX 20 23 1 0
BITMAP
0007C0
0007C0
0007C0
00FFF0
00FFF0
00FFF0
0007C0
07C7C0
1FE7C0
3FF7C0
7E1FC0
7E0FC0
7C0FC0
FC07C0
FC07C0
FC07C0
FC07C0
7C0FC0
7E0FC0
7E1FC0
3FF7C0
1FE7C0
07C7C0
ENDCHAR
STARTCHAR 0112
ENCODING 274
SWIDTH 700 0
DWIDTH 21 0
BBX 15 28 3 0
BITMAP
1FF0
1FF0
1FF0
0000
0000
0000
FFFE
FFFE
FFFE
FFFE
F800
F800
F800
F800
F800
FFFC
FFFC
FFFC
FFFC
F800
F800
F800
F800
F800
FFFE
FFFE
FFFE
FFFE
ENDCHAR
STARTCHAR 0113
ENCODING 275
SWIDTH 666 0
DWIDTH 20 0
BBX 18 23 1 0
BITMAP
0FFC00
0FFC00
0FFC00
000000
000000
000000
000000
03F800
0FFE00
3FFF00
7F1F00
7E0F80
7C0F80
FC0FC0
FFFFC0
FFFFC0
FFFFC0
7C0000
7C0080
7E0380
3FFF80
0FFF80
03FE00
ENDCHAR
STARTCHAR 0114
ENCODING 276
SWIDTH 700 0
DWIDTH 21 0
BBX 15 27 3 0
BITMAP
3830
1870
1FE0
07C0
0000
FFFE
FFFE
FFFE
FFFE
F800
F800
F800
F800
F800
FFFC
FFFC
FFFC
FFFC
F800
F800
F800
F800
F800
FFFE
FFFE
FFFE
FFFE
ENDCHAR
STARTCHAR 0115
ENCODING 277
SWIDTH 666 0
DWIDTH 20 0
BBX 18 24 1 0
BITMAP
060E00
070C00
03FC00
01F000
000000
000000
000000
000000
03F800
0FFE00
3FFF00
7F1F00
7E0F80
7C0F80
FC0FC0
FFFFC0
FFFFC0
FFFFC0
7C0000
7C0080
7E0380
3FFF80
0FFF80
03FE00
ENDCHAR
STARTCHAR 0116
ENCODING 278
SWIDTH 700 0
DWIDTH 21 0
BBX 15 28 3 0
BITMAP
0780
0780
0780
0780
0000
0000
FFFE
FFFE
FFFE
FFFE
F800
F800
F800
F800
F800
FFFC
FFFC
FFFC
FFFC
F800
F800
F800
F800
F800
FFFE
FFFE
FFFE
FFFE
ENDCHAR
STARTCHAR 0117
ENCODING 279
SWIDTH 666 0
DWIDTH 20 0
BBX 18 25 1 0
BITMAP
01F000
01F000
01F000
01F000
01F000
01F000
000000
000000
000000
03F800
0FFE00
3FFF00
7F1F00
7E0F80
7C0F80
FC0FC0
FFFFC0
FFFFC0
FFFFC0
7C0000
7C0080
7E0380
3FFF80
0FFF80
03FE00
ENDCHAR
STARTCHAR 0118
ENCODING 280
SWIDTH 700 0
DWIDTH 21 0
BBX 15 28 3 -6
BITMAP
FFFE
FFFE
FFFE
FFFE
F800
F800
F800
F800
F800
FFFC
FFFC
FFFC
FFFC
F800
F800
F800
F800
F800
FFFE
FFFE
FFFE
FFFE
0030
0030
0060
0070
007E
003E
ENDCHAR
STARTCHAR 0119
ENCODING 281
SWIDTH 666 0
DWIDTH 20 0
BBX 18 22 1 -6
BITMAP
03F800
0FFE00
3FFF00
7F1F00
7E0F80
7C0F80
FC0FC0
FFFFC0
FFFFC0
FFFFC0
7C0000
7C0080
7E0380
3FFF80
0FFF80
03FE00
001800
001800
003000
003800
003F00
001F00
ENDCHAR
STARTCHAR 011A
ENCODING 282
SWIDTH 700 0
DWIDTH 21 0
BBX 15 27 3 0
BITMAP
3838
1C70
0FE0
07C0
0000
FFFE
FFFE
FFFE
FFFE
F800
F800
F800
F800
F800
FFFC
FFFC
FFFC
FFFC
F800
F800
F800
F800
F800
FFFE
FFFE
FFFE
FFFE
ENDCHAR
STARTCHAR 011B
ENCODING 283
SWIDTH 666 0
DWIDTH 20 0
BBX 18 24 1 0
BITMAP
0E0E00
071C00
03BC00
03F800
01F000
00F000
000000
000000
03F800
0FFE00
3FFF00
7F1F00
7E0F80
7C0F80
FC0FC0
FFFFC0
FFFFC0
FFFFC0
7C0000
7C0080
7E0380
3FFF80
0FFF80
03FE00
ENDCHAR
STARTCHAR 011C
ENCODING 284
SWIDTH 833 0
DWIDTH 25 0
BBX 21 27 1 0
BITMAP
003E00
007F00
00F380
00C1C0
000000
00FF80
03FFF0
0FFFF8
1FFFF8
3FC078
3F8008
7F0000
7E0000
7E0000
7C0000
FC07F8
FC07F8
7C07F8
7E07F8
7E00F8
7F00F8
3F00F8
3FC0F8
1FFFF8
0FFFF8
03FFF0
00FF80
ENDCHAR
STARTCHAR 011D
ENCODING 285
SWIDTH 700 0
DWIDTH 21 0
BBX 18 30 1 -6
BITMAP
01E000
01F000
03F800
073800
071C00
0E0C00
000000
000000
07C7C0
1FE7C0
3FF7C0
7F1FC0
7E0FC0
7C0FC0
FC07C0
FC07C0
FC07C0
FC07C0
7C0FC0
7E0FC0
7E1FC0
3FF7C0
1FE7C0
07C7C0
000FC0
200F80
383F80
3FFF00
3FFE00
0FF000
ENDCHAR
STARTCHAR 011E
ENCODING 286
SWIDTH 833 0
DWIDTH 25 0
BBX 21 27 1 0
BITMAP
030300
038700
01FE00
00FC00
000000
00FF80
03FFF0
0FFFF8
1FFFF8
3FC078
3F8008
7F0000
7E0000
7E0000
7C0000
FC07F8
FC07F8
7C07F8
7E07F8
7E00F8
7F00F8
3F00F8
3FC0F8
1FFFF8
0FFFF8
03FFF0
00FF80
ENDCHAR
STARTCHAR 011F
ENCODING 287
SWIDTH 700 0
DWIDTH 21 0
BBX 18 30 1 -6
BITMAP
060E00
070C00
03FC00
01F000
000000
000000
000000
000000
07C7C0
1FE7C0
3FF7C0
7F1FC0
7E0FC0
7C0FC0
FC07C0
FC07C0
FC07C0
FC07C0
7C0FC0
7E0FC0
7E1FC0
3FF7C0
1FE7C0
07C7C0
000FC0
200F80
383F80
3FFF00
3FFE00
0FF000
ENDCHAR
STARTCHAR 0120
ENCODING 288
SWIDTH 833 0
DWIDTH 25 0
BBX 21 28 1 0
BITMAP
001E00
001E00
001E00
001E00
000000
000000
00FF80
03FFF0
0FFFF8
1FFFF8
3FC078
3F8008
7F0000
7E0000
7E0000
7C0000
FC07F8
FC07F8
7C07F8
7E07F8
7E00F8
7F00F8
3F00F8
3FC0F8
1FFFF8
0FFFF8
03FFF0
00FF80
ENDCHAR
STARTCHAR 0121
ENCODING 289
SWIDTH 700 0
DWIDTH 21 0
BBX 18 31 1 -6
BITMAP
01F000
01F000
01F000
01F000
01F000
01F000
000000
000000
000000
07C7C0
1FE7C0
3FF7C0
7F1FC0
7E0FC0
7C0FC0
FC07C0
FC07C0
FC07C0
FC07C0
7C0FC0
7E0FC0
7E1FC0
3FF7C0
1FE7C0
07C7C0
000FC0
200F80
383F80
3FFF00
3FFE00
0FF000
ENDCHAR
STARTCHAR 0122
ENCODING 290
SWIDTH 833 0
DWIDTH 25 0
BBX 21 29 1 -7
BITMAP
00FF80
03FFF0
0FFFF8
1FFFF8
3FC078
3F8008
7F0000
7E0000
7E0000
7C0000
FC07F8
FC07F8
7C07F8
7E07F8
7E00F8
7F00F8
3F00F8
3FC0F8
1FFFF8
0FFFF8
03FFF0
00FF80
000000
000000
000000
003E00
003C00
003800
007800
ENDCHAR
STARTCHAR 0123
ENCODING 291
SWIDTH 700 0
DWIDTH 21 0
BBX 18 29 1 -6
BITMAP
003800
007800
00F000
01F000
000000
000000
000000
07C7C0
1FE7C0
3FF7C0
7F1FC0
7E0FC0
7C0FC0
FC07C0
FC07C0
FC07C0
FC07C0
7C0FC0
7E0FC0
7E1FC0
3FF7C0
1FE7C0
07C7C0
000FC0
200F80
383F80
3FFF00
3FFE00
0FF000
ENDCHAR
STARTCHAR 0124
ENCODING 292
SWIDTH 833 0
DWIDTH 25 0
BBX 19 27 3 0
BITMAP
01F000
03F800
071C00
0E0E00
000000
F803E0
F803E0
F803E0
F803E0
F803E0
F803E0
F803E0
F803E0
F803E0
FFFFE0
FFFFE0
FFFFE0
FFFFE0
F803E0
F803E0
F803E0
F803E0
F803E0
F803E0
F803E0
F803E0
F803E0
ENDCHAR
STARTCHAR 0125
ENCODING 293
SWIDTH 700 0
DWIDTH 21 0
BBX 19 27 0 0
BITMAP
1F0000
3F8000
73C000
E0C000
1F0000
1F0000
1F0000
1F0000
1F0000
1F0000
1F0000
1F1F00
1F7FC0
1FFFC0
1FC7E0
1F87E0
1F03E0
1F03E0
1F03E0
1F03E0
1F03E0
1F03E0
1F03E0
1F03E0
1F03E0
1F03E0
1F03E0
ENDCHAR
STARTCHAR 0126
ENCODING 294
SWIDTH 966 0
DWIDTH 29 0
BBX 23 22 3 0
BITMAP
3E00F8
3E00F8
3E00F8
FFFFFE
FFFFFE
FFFFFE
3E00F8
3E00F8
3E00F8
3FFFF8
3FFFF8
3FFFF8
3FFFF8
3E00F8
3E00F8
3E00F8
3E00F8
3E00F8
3E00F8
3E00F8
3E00F8
3E00F8
ENDCHAR
STARTCHAR 0127
ENCODING 295
SWIDTH 800 0
DWIDTH 24 0
BBX 19 23 2 0
BITMAP
1F0000
1F0000
FFF800
FFF800
FFF800
1F0000
1F0000
1F1F00
1F7FC0
1FFFC0
1FC7E0
1F83E0
1F03E0
1F03E0
1F03E0
1F03E0
1F03E0
1F03E0
1F03E0
1F03E0
1F03E0
1F03E0
1F03E0
ENDCHAR
STARTCHAR 0128
ENCODING 296
SWIDTH 366 0
DWIDTH 11 0
BBX 11 27 0 0
BITMAP
3860
7CE0
67C0
E380
0000
1F00
1F00
1F00
1F00
1F00
1F00
1F00
1F00
1F00
1F00
1F00
1F00
1F00
1F00
1F00
1F00
1F00
1F00
1F00
1F00
1F00
1F00
ENDCHAR
STARTCHAR 0129
ENCODING 297
SWIDTH 333 0
DWIDTH 10 0
BBX 10 24 0 0
BITMAP
30C0
78C0
ECC0
C4C0
C780
C380
0000
0000
1F00
1F00
1F00
1F00
1F00
1F00
1F00
1F00
1F00
1F00
1F00
1F00
1F00
1F00
1F00
1F00
ENDCHAR
STARTCHAR 012A
ENCODING 298
SWIDTH 366 0
DWIDTH 11 0
BBX 9 28 1 0
BITMAP
FF80
FF80
FF80
0000
0000
0000
3E00
3E00
3E00
3E00
3E00
3E00
3E00
3E00
3E00
3E00
3E00
3E00
3E00
3E00
3E00
3E00
3E00
3E00
3E00
3E00
3E00
3E00
ENDCHAR
STARTCHAR 012B
ENCODING 299
SWIDTH 333 0
DWIDTH 10 0
BBX 9 23 1 0
BITMAP
FF80
FF80
FF80
0000
0000
0000
0000
3E00
3E00
3E00
3E00
3E00
3E00
3E00
3E00
3E00
3E00
3E00
3E00
3E00
3E00
3E00
3E00
ENDCHAR
STARTCHAR 012C
ENCODING 300
SWIDTH 366 0
DWIDTH 11 0
BBX 9 27 1 0
BITMAP
C180
E380
7F00
3E00
0000
3E00
3E00
3E00
3E00
3E00
3E00
3E00
3E00
3E00
3E00
3E00
3E00
3E00
3E00
3E00
3E00
3E00
3E00
3E00
3E00
3E00
3E00
ENDCHAR
STARTCHAR 012D
ENCODING 301
SWIDTH 333 0
DWIDTH 10 0
BBX 10 24 0 0
BITMAP
C0C0
61C0
7F80
3F00
0000
0000
0000
0000
1F00
1F00
1F00
1F00
1F00
1F00
1F00
1F00
1F00
1F00
1F00
1F00
1F00
1F00
1F00
1F00
ENDCHAR
STARTCHAR 012E
ENCODING 302
SWIDTH 366 0
DWIDTH 11 0
BBX 8 28 3 -6
BITMAP
F8
F8
F8
F8
F8
F8
F8
F8
F8
F8
F8
F8
F8
F8
F8
F8
F8
F8
F8
F8
F8
F8
18
30
30
30
3F
1F
ENDCHAR
STARTCHAR 012F
ENCODING 303
SWIDTH 333 0
DWIDTH 10 0
BBX 7 29 3 -6
BITMAP
F8
F8
F8
F8
F8
00
00
F8
F8
F8
F8
F8
F8
F8
F8
F8
F8
F8
F8
F8
F8
F8
F8
30
30
70
70
7E
3E
ENDCHAR
STARTCHAR 0130
ENCODING 304
SWIDTH 366 0
DWIDTH 11 0
BBX 5 28 3 0
BITMAP
78
78
78
78
00
00
F8
F8
F8
F8
F8
F8
F8
F8
F8
F8
F8
F8
F8
F8
F8
F8
F8
F8
F8
F8
F8
F8
ENDCHAR
STARTCHAR 0131
ENCODING 305
SWIDTH 333 0
DWIDTH 10 0
BBX 5 16 3 0
BITMAP
F8
F8
F8
F8
F8
F8
F8
F8
F8
F8
F8
F8
F8
F8
F8
F8
ENDCHAR
STARTCHAR 0132
ENCODING 306
SWIDTH 733 0
DWIDTH 22 0
BBX 17 28 3 -6
BITMAP
F81F80
F81F80
F81F80
F81F80
F81F80
F81F80
F81F80
F81F80
F81F80
F81F80
F81F80
F81F80
F81F80
F81F80
F81F80
F81F80
F81F80
F81F80
F81F80
F81F80
F81F80
F81F00
003F00
007F00
03FF00
03FE00
03FC00
03F000
ENDCHAR
STARTCHAR 0133
ENCODING 307
SWIDTH 700 0
DWIDTH 21 0
BBX 15 29 3 -6
BITMAP
F83E
F83E
F83E
F83E
F83E
0000
0000
F83E
F83E
F83E
F83E
F83E
F83E
F83E
F83E
F83E
F83E
F83E
F83E
F83E
F83E
F83E
F83E
003E
003E
007E
03FC
03F8
03F0
ENDCHAR
STARTCHAR 0134
ENCODING 308
SWIDTH 366 0
DWIDTH 11 0
BBX 13 33 -2 -6
BITMAP
07C0
0FE0
1C70
3838
0000
07C0
07C0
07C0
07C0
07C0
07C0
07C0
07C0
07C0
07C0
07C0
07C0
07C0
07C0
07C0
07C0
07C0
07C0
07C0
07C0
07C0
07C0
0FC0
1FC0
FF80
FF80
FF00
F800
ENDCHAR
STARTCHAR 0135
ENCODING 309
SWIDTH 333 0
DWIDTH 10 0
BBX 11 30 -1 -6
BITMAP
0F00
1F80
1F80
39C0
30E0
7060
0000
0000
0F80
0F80
0F80
0F80
0F80
0F80
0F80
0F80
0F80
0F80
0F80
0F80
0F80
0F80
0F80
0F80
1F80
1F80
1F00
FF00
FE00
F800
ENDCHAR
STARTCHAR 0136
ENCODING 310
SWIDTH 766 0
DWIDTH 23 0
BBX 21 28 3 -6
BITMAP
F807F0
F80FE0
F81FC0
F83F80
F87F00
F8FE00
F9FC00
FBF800
FFF000
FFC000
FFC000
FFE000
FFF000
FBF800
F9FC00
F8FE00
F87F00
F83F80
F81FC0
F80FE0
F807F0
F803F8
000000
000000
007800
00F000
00E000
00E000
ENDCHAR
STARTCHAR 0137
ENCODING 311
SWIDTH 666 0
DWIDTH 20 0
BBX 17 29 3 -6
BITMAP
F80000
F80000
F80000
F80000
F80000
F80000
F80000
F83F00
F87E00
F8FC00
F9F800
FBF000
FFE000
FFC000
FF8000
FFC000
FFE000
FBF000
F9F800
F8FC00
F87E00
F83F00
F81F80
000000
000000
01E000
03C000
03C000
038000
ENDCHAR
STARTCHAR 0138
ENCODING 312
SWIDTH 666 0
DWIDTH 20 0
BBX 17 16 3 0
BITMAP
F83F00
F87E00
F8FC00
F9F800
FBF000
FFE000
FFC000
FF8000
FFC000
FFE000
FBF000
F9F800
F8FC00
F87E00
F83F00
F81F80
ENDCHAR
STARTCHAR 0139
ENCODING 313
SWIDTH 633 0
DWIDTH 19 0
BBX 15 27 3 0
BITMAP
0F00
1E00
3C00
3800
0000
F800
F800
F800
F800
F800
F800
F800
F800
F800
F800
F800
F800
F800
F800
F800
F800
F800
F800
FFFE
FFFE
FFFE
FFFE
ENDCHAR
STARTCHAR 013A
ENCODING 314
SWIDTH 333 0
DWIDTH 10 0
BBX 7 27 3 0
BITMAP
1E
3C
38
70
F8
F8
F8
F8
F8
F8
F8
F8
F8
F8
F8
F8
F8
F8
F8
F8
F8
F8
F8
F8
F8
F8
F8
ENDCHAR
STARTCHAR 013B
ENCODING 315
SWIDTH 633 0
DWIDTH 19 0
BBX 15 28 3 -6
BITMAP
F800
F800
F800
F800
F800
F800
F800
F800
F800
F800
F800
F800
F800
F800
F800
F800
F800
F800
FFFE
FFFE
FFFE
FFFE
0000
0000
03C0
0780
0780
0700
ENDCHAR
STARTCHAR 013C
ENCODING 316
SWIDTH 333 0
DWIDTH 10 0
BBX 6 29 2 -6
BITMAP
7C
7C
7C
7C
7C
7C
7C
7C
7C
7C
7C
7C
7C
7C
7C
7C
7C
7C
7C
7C
7C
7C
7C
00
00
7C
78
70
E0
ENDCHAR
STARTCHAR 013D
ENCODING 317
SWIDTH 633 0
DWIDTH 19 0
BBX 15 22 3 0
BITMAP
F81E
F81E
F81C
F83C
F838
F838
F800
F800
F800
F800
F800
F800
F800
F800
F800
F800
F800
F800
FFFE
FFFE
FFFE
FFFE
ENDCHAR
STARTCHAR 013E
ENCODING 318
SWIDTH 466 0
DWIDTH 14 0
BBX 11 23 3 0
BITMAP
F9E0
F9E0
F9C0
F9C0
FBC0
FB80
F800
F800
F800
F800
F800
F800
F800
F800
F800
F800
F800
F800
F800
F800
F800
F800
F800
ENDCHAR
STARTCHAR 013F
ENCODING 319
SWIDTH 633 0
DWIDTH 19 0
BBX 15 22 3 0
BITMAP
F800
F800
F800
F800
F800
F800
F87E
F87E
F87E
F87E
F87E
F87E
F800
F800
F800
F800
F800
F800
FFFE
FFFE
FFFE
FFFE
ENDCHAR
STARTCHAR 0140
ENCODING 320
SWIDTH 566 0
DWIDTH 17 0
BBX 12 23 3 0
BITMAP
F800
F800
F800
F800
F800
F800
F800
FBF0
FBF0
FBF0
FBF0
FBF0
FBF0
F800
F800
F800
F800
F800
F800
F800
F800
F800
F800
ENDCHAR
STARTCHAR 0141
ENCODING 321
SWIDTH 633 0
DWIDTH 19 0
BBX 19 22 -1 0
BITMAP
0FC000
0FC000
0FC000
0FC000
0FCC00
0FDE00
0FFE00
0FFC00
0FF000
0FE000
0FC000
3FC000
7FC000
FFC000
7FC000
6FC000
0FC000
0FC000
0FFFE0
0FFFE0
0FFFE0
0FFFE0
ENDCHAR
STARTCHAR 0142
ENCODING 322
SWIDTH 366 0
DWIDTH 11 0
BBX 13 23 -1 0
BITMAP
0F80
0F80
0F80
0F80
0F80
0F80
0F80
0FF0
0FF8
0FE0
1FC0
3F80
FF80
7F80
2F80
0F80
0F80
0F80
0F80
0F80
0F80
0F80
0F80
ENDCHAR
STARTCHAR 0143
ENCODING 323
SWIDTH 833 0
DWIDTH 25 0
BBX 19 27 3 0
BITMAP
007800
007000
00E000
01C000
000000
FC03E0
FE03E0
FE03E0
FF03E0
FF03E0
FF83E0
FF83E0
FFC3E0
FBE3E0
FBE3E0
F9F3E0
F8F3E0
F8FBE0
F87BE0
F87FE0
F83FE0
F83FE0
F81FE0
F81FE0
F80FE0
F80FE0
F807E0
ENDCHAR
STARTCHAR 0144
ENCODING 324
SWIDTH 700 0
DWIDTH 21 0
BBX 16 24 3 0
BITMAP
00F0
01E0
01C0
0380
0700
0700
0000
0000
F8F8
FBFE
FFFE
FE3F
FC3F
F81F
F81F
F81F
F81F
F81F
F81F
F81F
F81F
F81F
F81F
F81F
ENDCHAR
STARTCHAR 0145
ENCODING 325
SWIDTH 833 0
DWIDTH 25 0
BBX 19 28 3 -6
BITMAP
FC03E0
FE03E0
FE03E0
FF03E0
FF03E0
FF83E0
FF83E0
FFC3E0
FBE3E0
FBE3E0
F9F3E0
F8F3E0
F8FBE0
F87BE0
F87FE0
F83FE0
F83FE0
F81FE0
F81FE0
F80FE0
F80FE0
F807E0
000000
000000
00F000
01E000
01E000
01C000
ENDCHAR
STARTCHAR 0146
ENCODING 326
SWIDTH 700 0
DWIDTH 21 0
BBX 16 22 3 -6
BITMAP
F8F8
FBFE
FFFE
FE3F
FC3F
F81F
F81F
F81F
F81F
F81F
F81F
F81F
F81F
F81F
F81F
F81F
0000
0000
03C0
03C0
0780
0700
ENDCHAR
STARTCHAR 0147
ENCODING 327
SWIDTH 833 0
DWIDTH 25 0
BBX 19 27 3 0
BITMAP
070E00
039C00
03F800
01F800
000000
FC03E0
FE03E0
FE03E0
FF03E0
FF03E0
FF83E0
FF83E0
FFC3E0
FBE3E0
FBE3E0
F9F3E0
F8F3E0
F8FBE0
F87BE0
F87FE0
F83FE0
F83FE0
F81FE0
F81FE0
F80FE0
F80FE0
F807E0
ENDCHAR
STARTCHAR 0148
ENCODING 328
SWIDTH 700 0
DWIDTH 21 0
BBX 16 24 3 0
BITMAP
3070
3870
1CE0
0FC0
0FC0
0780
0000
0000
F8F8
FBFE
FFFE
FE3F
FC3F
F81F
F81F
F81F
F81F
F81F
F81F
F81F
F81F
F81F
F81F
F81F
ENDCHAR
STARTCHAR 0149
ENCODING 329
SWIDTH 966 0
DWIDTH 29 0
BBX 25 22 2 0
BITMAP
7C000000
7C000000
7C000000
7C000000
7C000000
78000000
F0F87C00
F0F9FE00
E0FBFF00
00FE3F00
00FC1F80
00FC1F80
00FC1F80
00F81F80
00F81F80
00F81F80
00F81F80
00F81F80
00F81F80
00F81F80
00F81F80
00F81F80
ENDCHAR
STARTCHAR 014A
ENCODING 330
SWIDTH 833 0
DWIDTH 25 0
BBX 19 28 3 -6
BITMAP
F87E00
F9FF00
FBFF80
FFFFC0
FF0FC0
FC07E0
FC07E0
F807E0
F803E0
F803E0
F803E0
F803E0
F803E0
F803E0
F803E0
F803E0
F803E0
F803E0
F803E0
F803E0
F803E0
F807E0
0007E0
000FC0
007FC0
007F80
007F00
007C00
ENDCHAR
STARTCHAR 014B
ENCODING 331
SWIDTH 700 0
DWIDTH 21 0
BBX 16 22 3 -6
BITMAP
F8F8
FBFC
FFFE
FE3F
FC3F
F81F
F81F
F81F
F81F
F81F
F81F
F81F
F81F
F81F
F81F
F81F
001F
001F
003F
03FE
03FC
03F8
ENDCHAR
STARTCHAR 014C
ENCODING 332
SWIDTH 866 0
DWIDTH 26 0
BBX 23 28 1 0
BITMAP
01FF00
01FF00
01FF00
000000
000000
000000
00FF00
07FFC0
0FFFF0
1FFFF8
3F83F8
3F01FC
7E00FC
7E007E
7E007E
7C007E
FC007E
FC007E
7C007E
7E007E
7E007E
7E00FC
3F01FC
3F83F8
1FFFF8
0FFFF0
07FFC0
00FF00
ENDCHAR
STARTCHAR 014D
ENCODING 333
SWIDTH 700 0
DWIDTH 21 0
BBX 18 23 1 0
BITMAP
07FC00
07FC00
07FC00
000000
000000
000000
000000
03F800
0FFE00
3FFF00
7F1F80
7E0FC0
7C07C0
FC07C0
FC07C0
FC07C0
FC07C0
7C07C0
7E0FC0
7F1F80
3FFF00
1FFE00
03F800
ENDCHAR
STARTCHAR 014E
ENCODING 334
SWIDTH 866 0
DWIDTH 26 0
BBX 23 27 1 0
BITMAP
018380
01C700
00FF00
007C00
000000
00FF00
07FFC0
0FFFF0
1FFFF8
3F83F8
3F01FC
7E00FC
7E007E
7E007E
7C007E
FC007E
FC007E
7C007E
7E007E
7E007E
7E00FC
3F01FC
3F83F8
1FFFF8
0FFFF0
07FFC0
00FF00
ENDCHAR
STARTCHAR 014F
ENCODING 335
SWIDTH 700 0
DWIDTH 21 0
BBX 18 24 1 0
BITMAP
0E0C00
061C00
07F800
01F000
000000
000000
000000
000000
03F800
0FFE00
3FFF00
7F1F80
7E0FC0
7C07C0
FC07C0
FC07C0
FC07C0
FC07C0
7C07C0
7E0FC0
7F1F80
3FFF00
1FFE00
03F800
ENDCHAR
STARTCHAR 0150
ENCODING 336
SWIDTH 866 0
DWIDTH 26 0
BBX 23 27 1 0
BITMAP
007BC0
00F380
01E700
01CE00
000000
00FF00
07FFC0
0FFFF0
1FFFF8
3F83F8
3F01FC
7E00FC
7E007E
7E007E
7C007E
FC007E
FC007E
7C007E
7E007E
7E007E
7E00FC
3F01FC
3F83F8
1FFFF8
0FFFF0
07FFC0
00FF00
ENDCHAR
STARTCHAR 0151
ENCODING 337
SWIDTH 700 0
DWIDTH 21 0
BBX 18 24 1 0
BITMAP
00E700
01CF00
01CE00
039C00
031C00
073800
000000
000000
03F800
0FFE00
3FFF00
7F1F80
7E0FC0
7C07C0
FC07C0
FC07C0
FC07C0
FC07C0
7C07C0
7E0FC0
7F1F80
3FFF00
1FFE00
03F800
ENDCHAR
STARTCHAR 0152
ENCODING 338
SWIDTH 1166 0
DWIDTH 35 0
BBX 32 22 1 0
BITMAP
007FFFFE
03FFFFFE
0FFFFFFE
1FFFFFFE
3FE0FC00
3F80FC00
7F00FC00
7E00FC00
7E00FC00
7C00FFFE
FC00FFFE
FC00FFFE
7C00FFFE
7E00FC00
7E00FC00
7F00FC00
3F80FC00
3FE0FC00
1FFFFFFF
0FFFFFFF
03FFFFFF
007FFFFF
ENDCHAR
STARTCHAR 0153
ENCODING 339
SWIDTH 1100 0
DWIDTH 33 0
BBX 30 16 1 0
BITMAP
03F83F80
0FFEFFE0
3FFFFFF0
7F1FF1F8
7E0FE0FC
7C07E07C
FC07C07C
FC07FFFC
FC07FFFC
FC07FFFC
7C07C000
7E0FE004
7F1FF03C
3FFFFFFC
1FFEFFFC
03F83FE0
ENDCHAR
STARTCHAR 0154
ENCODING 340
SWIDTH 766 0
DWIDTH 23 0
BBX 19 27 3 0
BITMAP
00F000
01E000
03C000
070000
000000
FFF000
FFFE00
FFFF00
FFFF00
F83F80
F81F80
F81F80
F81F80
F81F00
F83F00
FFFE00
FFFC00
FFFC00
FFFE00
F87F00
F83F00
F81F80
F81F80
F80FC0
F80FC0
F807E0
F807E0
ENDCHAR
STARTCHAR 0155
ENCODING 341
SWIDTH 500 0
DWIDTH 15 0
BBX 12 24 3 0
BITMAP
00F0
01E0
01C0
0380
0700
0700
0000
0000
F8F0
FBF0
FFF0
FFF0
FE10
FC00
F800
F800
F800
F800
F800
F800
F800
F800
F800
F800
ENDCHAR
STARTCHAR 0156
ENCODING 342
SWIDTH 766 0
DWIDTH 23 0
BBX 19 28 3 -6
BITMAP
FFF000
FFFE00
FFFF00
FFFF00
F83F80
F81F80
F81F80
F81F80
F81F00
F83F00
FFFE00
FFFC00
FFFC00
FFFE00
F87F00
F83F00
F81F80
F81F80
F80FC0
F80FC0
F807E0
F807E0
000000
000000
00F000
01E000
01E000
01C000
ENDCHAR
STARTCHAR 0157
ENCODING 343
SWIDTH 500 0
DWIDTH 15 0
BBX 13 22 2 -6
BITMAP
7C78
7DF8
7FF8
7FF8
7F08
7E00
7C00
7C00
7C00
7C00
7C00
7C00
7C00
7C00
7C00
7C00
0000
0000
7C00
7800
7000
E000
ENDCHAR
STARTCHAR 0158
ENCODING 344
SWIDTH 766 0
DWIDTH 23 0
BBX 19 27 3 0
BITMAP
383800
1C7000
0FE000
07C000
000000
FFF000
FFFE00
FFFF00
FFFF00
F83F80
F81F80
F81F80
F81F80
F81F00
F83F00
FFFE00
FFFC00
FFFC00
FFFE00
F87F00
F83F00
F81F80
F81F80
F80FC0
F80FC0
F807E0
F807E0
ENDCHAR
STARTCHAR 0159
ENCODING 345
SWIDTH 500 0
DWIDTH 15 0
BBX 12 24 3 0
BITMAP
60E0
71C0
39C0
3F80
1F00
0F00
0000
0000
F8F0
FBF0
FFF0
FFF0
FE10
FC00
F800
F800
F800
F800
F800
F800
F800
F800
F800
F800
ENDCHAR
STARTCHAR 015A
ENCODING 346
SWIDTH 733 0
DWIDTH 22 0
BBX 17 27 2 0
BITMAP
007800
00F000
01E000
038000
000000
07F800
1FFF00
7FFF00
7FFF00
FE0F00
F80100
F80000
FC0000
FF0000
7FF000
7FFE00
1FFF00
07FF80
007F80
001F80
000F80
800F80
F01F80
FFFF80
FFFF00
FFFE00
0FF800
ENDCHAR
STARTCHAR 015B
ENCODING 347
SWIDTH 600 0
DWIDTH 18 0
BBX 14 24 2 0
BITMAP
0078
00F0
00E0
01C0
0380
0380
0000
0000
1FE0
7FF8
FFF8
F838
F008
F800
FF00
FFF0
3FFC
03FC
007C
807C
E07C
FFFC
FFF8
3FE0
ENDCHAR
STARTCHAR 015C
ENCODING 348
SWIDTH 733 0
DWIDTH 22 0
BBX 17 27 2 0
BITMAP
03E000
07F000
0E7800
1C1800
000000
07F800
1FFF00
7FFF00
7FFF00
FE0F00
F80100
F80000
FC0000
FF0000
7FF000
7FFE00
1FFF00
07FF80
007F80
001F80
000F80
800F80
F01F80
FFFF80
FFFF00
FFFE00
0FF800
ENDCHAR
STARTCHAR 015D
ENCODING 349
SWIDTH 600 0
DWIDTH 18 0
BBX 14 24 2 0
BITMAP
0780
0FC0
1FC0
1CE0
38E0
3070
0000
0000
1FE0
7FF8
FFF8
F838
F008
F800
FF00
FFF0
3FFC
03FC
007C
807C
E07C
FFFC
FFF8
3FE0
ENDCHAR
STARTCHAR 015E
ENCODING 350
SWIDTH 733 0
DWIDTH 22 0
BBX 17 28 2 -6
BITMAP
07F800
1FFF00
7FFF00
7FFF00
FE0F00
F80100
F80000
FC0000
FF0000
7FF000
7FFE00
1FFF00
07FF80
007F80
001F80
000F80
800F80
F01F80
FFFF80
FFFF00
FFFE00
0FF800
00C000
006000
007000
007000
07E000
07C000
ENDCHAR
STARTCHAR 015F
ENCODING 351
SWIDTH 600 0
DWIDTH 18 0
BBX 14 22 2 -6
BITMAP
1FE0
7FF8
FFF8
F838
F008
F800
FF00
FFF0
3FFC
03FC
007C
807C
E07C
FFFC
FFF8
3FE0
0180
0180
01C0
01C0
1FC0
1F80
ENDCHAR
STARTCHAR 0160
ENCODING 352
SWIDTH 733 0
DWIDTH 22 0
BBX 17 27 2 0
BITMAP
1C1C00
0E3800
07F000
03E000
000000
07F800
1FFF00
7FFF00
7FFF00
FE0F00
F80100
F80000
FC0000
FF0000
7FF000
7FFE00
1FFF00
07FF80
007F80
001F80
000F80
800F80
F01F80
FFFF80
FFFF00
FFFE00
0FF800
ENDCHAR
STARTCHAR 0161
ENCODING 353
SWIDTH 600 0
DWIDTH 18 0
BBX 14 24 2 0
BITMAP
3070
38E0
1CE0
1FC0
0FC0
0780
0000
0000
1FE0
7FF8
FFF8
F838
F008
F800
FF00
FFF0
3FFC
03FC
007C
807C
E07C
FFFC
FFF8
3FE0
ENDCHAR
STARTCHAR 0162
ENCODING 354
SWIDTH 666 0
DWIDTH 20 0
BBX 20 28 0 -6
BITMAP
FFFFF0
FFFFF0
FFFFF0
FFFFF0
01F800
01F800
01F800
01F800
01F800
01F800
01F800
01F800
01F800
01F800
01F800
01F800
01F800
01F800
01F800
01F800
01F800
01F800
003000
003800
001800
003800
01F800
01F000
ENDCHAR
STARTCHAR 0163
ENCODING 355
SWIDTH 466 0
DWIDTH 14 0
BBX 14 27 0 -6
BITMAP
1F00
1F00
1F00
1F00
1F00
FFFC
FFFC
FFFC
1F00
1F00
1F00
1F00
1F00
1F00
1F00
1F00
1F00
1F80
1FF8
0FF8
07F8
0180
00C0
00C0
00C0
0FC0
0F80
ENDCHAR
STARTCHAR 0164
ENCODING 356
SWIDTH 666 0
DWIDTH 20 0
BBX 20 28 0 0
BITMAP
070E00
039C00
01FC00
00F800
000000
000000
FFFFF0
FFFFF0
FFFFF0
FFFFF0
01F800
01F800
01F800
01F800
01F800
01F800
01F800
01F800
01F800
01F800
01F800
01F800
01F800
01F800
01F800
01F800
01F800
01F800
ENDCHAR
STARTCHAR 0165
ENCODING 357
SWIDTH 466 0
DWIDTH 14 0
BBX 15 24 0 0
BITMAP
001E
001E
001C
1F3C
1F38
1F38
1F00
1F00
FFFC
FFFC
FFFC
1F00
1F00
1F00
1F00
1F00
1F00
1F00
1F00
1F00
1F80
1FF8
0FF8
07F8
ENDCHAR
STARTCHAR 0166
ENCODING 358
SWIDTH 666 0
DWIDTH 20 0
BBX 20 22 0 0
BITMAP
FFFFF0
FFFFF0
FFFFF0
FFFFF0
01F800
01F800
01F800
01F800
01F800
01F800
0FFF80
0FFF80
0FFF80
0FFF80
01F800
01F800
01F800
01F800
01F800
01F800
01F800
01F800
ENDCHAR
STARTCHAR 0167
ENCODING 359
SWIDTH 466 0
DWIDTH 14 0
BBX 14 21 0 0
BITMAP
1F00
1F00
1F00
1F00
1F00
FFFC
FFFC
FFFC
1F00
1F00
FFFC
FFFC
FFFC
FFFC
1F00
1F00
1F00
1F80
0FF8
0FF8
03F8
ENDCHAR
STARTCHAR 0168
ENCODING 360
SWIDTH 800 0
DWIDTH 24 0
BBX 19 27 3 0
BITMAP
078C00
07CC00
0CFC00
0C3800
000000
F807E0
F807E0
F807E0
F807E0
F807E0
F807E0
F807E0
F807E0
F807E0
F807E0
F807E0
F807E0
F807E0
F807E0
F807E0
FC07C0
FC0FC0
7E1FC0
7FFF80
3FFF80
1FFE00
07F800
ENDCHAR
STARTCHAR 0169
ENCODING 361
SWIDTH 700 0
DWIDTH 21 0
BBX 17 24 2 0
BITMAP
070C00
078C00
0CCC00
0C4C00
0C7800
0C3800
000000
000000
FC0F80
FC0F80
FC0F80
FC0F80
FC0F80
FC0F80
FC0F80
FC0F80
FC0F80
FC1F80
FC1F80
FC1F80
7E3F80
7FEF80
3FCF80
1F8F80
ENDCHAR
STARTCHAR 016A
ENCODING 362
SWIDTH 800 0
DWIDTH 24 0
BBX 19 28 3 0
BITMAP
07FC00
07FC00
07FC00
000000
000000
000000
F807E0
F807E0
F807E0
F807E0
F807E0
F807E0
F807E0
F807E0
F807E0
F807E0
F807E0
F807E0
F807E0
F807E0
F807E0
FC07C0
FC0FC0
7E1FC0
7FFF80
3FFF80
1FFE00
07F800
ENDCHAR
STARTCHAR 016B
ENCODING 363
SWIDTH 700 0
DWIDTH 21 0
BBX 17 23 2 0
BITMAP
0FF800
0FF800
0FF800
000000
000000
000000
000000
FC0F80
FC0F80
FC0F80
FC0F80
FC0F80
FC0F80
FC0F80
FC0F80
FC0F80
FC1F80
FC1F80
FC1F80
7E3F80
7FEF80
3FCF80
1F8F80
ENDCHAR
STARTCHAR 016C
ENCODING 364
SWIDTH 800 0
DWIDTH 24 0
BBX 19 27 3 0
BITMAP
0E0C00
061C00
07F800
01F000
000000
F807E0
F807E0
F807E0
F807E0
F807E0
F807E0
F807E0
F807E0
F807E0
F807E0
F807E0
F807E0
F807E0
F807E0
F807E0
FC07C0
FC0FC0
7E1FC0
7FFF80
3FFF80
1FFE00
07F800
ENDCHAR
STARTCHAR 016D
ENCODING 365
SWIDTH 700 0
DWIDTH 21 0
BBX 17 24 2 0
BITMAP
0C0C00
0E1C00
07F800
03F000
000000
000000
000000
000000
FC0F80
FC0F80
FC0F80
FC0F80
FC0F80
FC0F80
FC0F80
FC0F80
FC0F80
FC1F80
FC1F80
FC1F80
7E3F80
7FEF80
3FCF80
1F8F80
ENDCHAR
STARTCHAR 016E
ENCODING 366
SWIDTH 800 0
DWIDTH 24 0
BBX 19 28 3 0
BITMAP
01E000
03F800
073800
061800
061800
073800
FBFFE0
F9E7E0
F807E0
F807E0
F807E0
F807E0
F807E0
F807E0
F807E0
F807E0
F807E0
F807E0
F807E0
F807E0
F807E0
FC07C0
FC0FC0
7E1FC0
7FFF80
3FFF80
1FFE00
07F800
ENDCHAR
STARTCHAR 016F
ENCODING 367
SWIDTH 700 0
DWIDTH 21 0
BBX 17 27 2 0
BITMAP
01E000
07F000
063800
061800
061800
063800
07F000
01E000
000000
000000
000000
FC0F80
FC0F80
FC0F80
FC0F80
FC0F80
FC0F80
FC0F80
FC0F80
FC0F80
FC1F80
FC1F80
FC1F80
7E3F80
7FEF80
3FCF80
1F8F80
ENDCHAR
STARTCHAR 0170
ENCODING 368
SWIDTH 800 0
DWIDTH 24 0
BBX 19 27 3 0
BITMAP
03CF00
079E00
073C00
0E3800
000000
F807E0
F807E0
F807E0
F807E0
F807E0
F807E0
F807E0
F807E0
F807E0
F807E0
F807E0
F807E0
F807E0
F807E0
F807E0
FC07C0
FC0FC0
7E1FC0
7FFF80
3FFF80
1FFE00
07F800
ENDCHAR
STARTCHAR 0171
ENCODING 369
SWIDTH 700 0
DWIDTH 21 0
BBX 17 24 2 0
BITMAP
01CF00
03CE00
039C00
031C00
073800
063000
000000
000000
FC0F80
FC0F80
FC0F80
FC0F80
FC0F80
FC0F80
FC0F80
FC0F80
FC0F80
FC1F80
FC1F80
FC1F80
7E3F80
7FEF80
3FCF80
1F8F80
ENDCHAR
STARTCHAR 0172
ENCODING 370
SWIDTH 800 0
DWIDTH 24 0
BBX 19 28 3 -6
BITMAP
F807E0
F807E0
F807E0
F807E0
F807E0
F807E0
F807E0
F807E0
F807E0
F807E0
F807E0
F807E0
F807E0
F807E0
F807E0
FC07C0
FC0FC0
7E1FC0
7FFF80
3FFF80
1FFE00
07F800
00C000
018000
018000
018000
01F800
00F800
ENDCHAR
STARTCHAR 0173
ENCODING 371
SWIDTH 700 0
DWIDTH 21 0
BBX 19 22 2 -6
BITMAP
FC0F80
FC0F80
FC0F80
FC0F80
FC0F80
FC0F80
FC0F80
FC0F80
FC0F80
FC1F80
FC1F80
FC1F80
7E3F80
7FEF80
3FCF80
1F8F80
000380
000300
000700
000700
0007E0
0003E0
ENDCHAR
STARTCHAR 0174
ENCODING 372
SWIDTH 1100 0
DWIDTH 33 0
BBX 31 28 1 0
BITMAP
0007C000
000FE000
001C7000
00383800
00000000
00000000
F807C03E
FC0FE07E
FC0FE07E
7C0FE07C
7C0FE07C
7E0EF0FC
7E1EF0FC
3E1EF0F8
3E1EF0F8
3F1E78F8
3F3C79F8
1F3C79F0
1F3C79F0
1F3C79F0
1FF83FF0
0FF83FF0
0FF83FE0
0FF83FE0
0FF01FE0
0FF01FE0
07F01FC0
07F01FC0
ENDCHAR
STARTCHAR 0175
ENCODING 373
SWIDTH 933 0
DWIDTH 28 0
BBX 26 24 1 0
BITMAP
001E0000
003F0000
003F0000
00738000
00E18000
00C1C000
00000000
00000000
F81E0FC0
FC3E0F80
7C3F0F80
7C3F0F80
7C3F1F00
3E7F1F00
3E779F00
3E779F00
3E73BE00
1FF3BE00
1FE3FE00
1FE3FE00
1FE1FC00
0FE1FC00
0FC1FC00
0FC1FC00
ENDCHAR
STARTCHAR 0176
ENCODING 374
SWIDTH 733 0
DWIDTH 22 0
BBX 22 28 0 0
BITMAP
00FC00
01FC00
01CE00
038700
000000
000000
FC00FC
7E01F8
7E03F0
3F03F0
1F87E0
1F8FC0
0FCFC0
07FF80
07FF00
03FF00
01FE00
01FE00
00FC00
00FC00
00FC00
00FC00
00FC00
00FC00
00FC00
00FC00
00FC00
00FC00
ENDCHAR
STARTCHAR 0177
ENCODING 375
SWIDTH 666 0
DWIDTH 20 0
BBX 18 30 1 -6
BITMAP
01E000
03E000
07F000
073800
0E3800
1C1C00
000000
000000
F807C0
F80F80
FC0F80
7C0F80
7C1F00
3E1F00
3E1E00
1F3E00
1F3E00
0F7C00
0FFC00
0FF800
07F800
07F800
03F000
03F000
01F000
03E000
03E000
3FC000
3F8000
3F0000
ENDCHAR
STARTCHAR 0178
ENCODING 376
SWIDTH 733 0
DWIDTH 22 0
BBX 22 28 0 0
BITMAP
03CE00
03CE00
03CE00
03CE00
000000
000000
FC00FC
7E01F8
7E03F0
3F03F0
1F87E0
1F8FC0
0FCFC0
07FF80
07FF00
03FF00
01FE00
01FE00
00FC00
00FC00
00FC00
00FC00
00FC00
00FC00
00FC00
00FC00
00FC00
00FC00
ENDCHAR
STARTCHAR 0179
ENCODING 377
SWIDTH 733 0
DWIDTH 22 0
BBX 19 27 1 0
BITMAP
003C00
007800
00F000
01C000
000000
7FFFE0
7FFFE0
7FFFE0
7FFFE0
000FC0
001F80
003F80
007F00
00FE00
00FC00
01F800
03F800
07F000
0FE000
0FC000
1F8000
3F8000
7F0000
FFFFE0
FFFFE0
FFFFE0
FFFFE0
ENDCHAR
STARTCHAR 017A
ENCODING 378
SWIDTH 566 0
DWIDTH 17 0
BBX 15 24 1 0
BITMAP
003C
0078
0070
00E0
01C0
01C0
0000
0000
7FFE
7FFE
7FFE
007E
00FC
01F8
03F0
07F0
0FE0
1FC0
3F80
7F00
FE00
FFFE
FFFE
FFFE
ENDCHAR
STARTCHAR 017B
ENCODING 379
SWIDTH 733 0
DWIDTH 22 0
BBX 19 29 1 0
BITMAP
00F000
00F000
00F000
00F000
000000
000000
000000
7FFFE0
7FFFE0
7FFFE0
7FFFE0
000FC0
001F80
003F80
007F00
00FE00
00FC00
01F800
03F800
07F000
0FE000
0FC000
1F8000
3F8000
7F0000
FFFFE0
FFFFE0
FFFFE0
FFFFE0
ENDCHAR
STARTCHAR 017C
ENCODING 380
SWIDTH 566 0
DWIDTH 17 0
BBX 15 25 1 0
BITMAP
07C0
07C0
07C0
07C0
07C0
07C0
0000
0000
0000
7FFE
7FFE
7FFE
007E
00FC
01F8
03F0
07F0
0FE0
1FC0
3F80
7F00
FE00
FFFE
FFFE
FFFE
ENDCHAR
STARTCHAR 017D
ENCODING 381
SWIDTH 733 0
DWIDTH 22 0
BBX 19 27 1 0
BITMAP
0E0E00
071C00
03F800
01F000
000000
7FFFE0
7FFFE0
7FFFE0
7FFFE0
000FC0
001F80
003F80
007F00
00FE00
00FC00
01F800
03F800
07F000
0FE000
0FC000
1F8000
3F8000
7F0000
FFFFE0
FFFFE0
FFFFE0
FFFFE0
ENDCHAR
STARTCHAR 017E
ENCODING 382
SWIDTH 566 0
DWIDTH 17 0
BBX 15 24 1 0
BITMAP
1838
1C70
0E70
0FE0
07C0
03C0
0000
0000
7FFE
7FFE
7FFE
007E
00FC
01F8
03F0
07F0
0FE0
1FC0
3F80
7F00
FE00
FFFE
FFFE
FFFE
ENDCHAR
STARTCHAR 017F
ENCODING 383
SWIDTH 433 0
DWIDTH 13 0
BBX 12 23 1 0
BITMAP
07F0
0FF0
1FF0
3F00
3E00
3E00
3E00
FE00
FE00
FE00
3E00
3E00
3E00
3E00
3E00
3E00
3E00
3E00
3E00
3E00
3E00
3E00
3E00
ENDCHAR
STARTCHAR 0180
ENCODING 384
SWIDTH 700 0
DWIDTH 21 0
BBX 20 23 0 0
BITMAP
1F0000
1F0000
1F0000
FFF800
FFF800
FFF800
1F0000
1F1F00
1F7F80
1FFFC0
1F87E0
1F83F0
1F03F0
1F01F0
1F01F0
1F01F0
1F01F0
1F03F0
1F83F0
1F87E0
1FFFC0
1F7F80
1F1F00
ENDCHAR
STARTCHAR 0181
ENCODING 385
SWIDTH 800 0
DWIDTH 24 0
BBX 24 22 -2 0
BITMAP
1FFFE0
7FFFF8
FFFFFC
FFFFFE
F3F07E
F3F03E
03F03E
03F03E
03F07E
03FFFC
03FFF8
03FFFC
03FFFE
03F07F
03F03F
03F01F
03F03F
03F07F
03FFFF
03FFFE
03FFFC
03FFF0
ENDCHAR
STARTCHAR 0182
ENCODING 386
SWIDTH 766 0
DWIDTH 23 0
BBX 18 22 3 0
BITMAP
FFFF00
FFFF00
FFFF00
FFFF00
F80000
F80000
F80000
F80000
F80000
FFF800
FFFE00
FFFF80
FFFF80
F81F80
F80FC0
F80FC0
F80FC0
F81FC0
FFFF80
FFFF80
FFFE00
FFF800
ENDCHAR
STARTCHAR 0183
ENCODING 387
SWIDTH 700 0
DWIDTH 21 0
BBX 17 23 3 0
BITMAP
FFFE00
FFFE00
FFFE00
F80000
F80000
F80000
F80000
F8F800
FBFC00
FFFE00
FC3F00
FC1F80
F81F80
F80F80
F80F80
F80F80
F80F80
F81F80
FC1F80
FC3F00
FFFE00
FBFC00
F8F800
ENDCHAR
STARTCHAR 0184
ENCODING 388
SWIDTH 766 0
DWIDTH 23 0
BBX 20 22 2 0
BITMAP
010000
030000
0F0000
1F0000
7F0000
FF0000
FF0000
7F0000
3FF000
3FFF80
3FFFC0
3FFFE0
3FFFF0
3F03F0
3F03F0
3F03F0
3F03F0
3F07F0
3FFFE0
3FFFE0
3FFF80
3FFE00
ENDCHAR
STARTCHAR 0185
ENCODING 389
SWIDTH 700 0
DWIDTH 21 0
BBX 20 23 1 0
BITMAP
010000
030000
070000
0F0000
3F0000
7F0000
FF1E00
FF7F80
7FFFC0
3FFFE0
3F87E0
3F03E0
3F03F0
3F03F0
3F03F0
3F03F0
3F03F0
3F03F0
3F87E0
3FCFE0
3FFFC0
3FFF80
3F7F00
ENDCHAR
STARTCHAR 0186
ENCODING 390
SWIDTH 733 0
DWIDTH 22 0
BBX 19 22 1 0
BITMAP
0FE000
3FFC00
7FFE00
FFFF00
F03F80
E01FC0
C00FC0
8007E0
0007E0
0007E0
0007E0
0007E0
0007E0
0007E0
8007E0
C00FC0
E01FC0
F03F80
FFFF00
7FFE00
3FFC00
0FE000
ENDCHAR
STARTCHAR 0187
ENCODING 391
SWIDTH 733 0
DWIDTH 22 0
BBX 24 28 1 0
BITMAP
00003F
0000FF
0001FF
0003FF
0003F8
0003F0
00FFE0
03FFE0
0FFFE0
1FFFE0
3FC0E0
3F0020
7F0000
7E0000
7E0000
7C0000
FC0000
FC0000
7C0000
7E0000
7E0000
7F0000
3F0020
3FC0E0
1FFFE0
0FFFE0
03FFE0
00FF00
ENDCHAR
STARTCHAR 0188
ENCODING 392
SWIDTH 600 0
DWIDTH 18 0
BBX 18 21 1 0
BITMAP
0007C0
001FC0
001FC0
003F00
003E00
03FE00
1FFE00
3FFE00
7F0600
7E0200
7C0000
FC0000
FC0000
FC0000
FC0000
7C0000
7E0200
3F0600
3FFE00
0FFE00
03F800
ENDCHAR
STARTCHAR 0189
ENCODING 393
SWIDTH 833 0
DWIDTH 25 0
BBX 24 22 0 0
BITMAP
1FFF00
1FFFC0
1FFFF0
1FFFF8
1F83FC
1F80FC
1F807E
1F807E
1F807E
FFF03F
FFF03F
FFF03F
FFF03F
1F807E
1F807E
1F807E
1F80FC
1F83FC
1FFFF8
1FFFF0
1FFFC0
1FFF00
ENDCHAR
STARTCHAR 018A
ENCODING 394
SWIDTH 866 0
DWIDTH 26 0
BBX 27 22 -2 0
BITMAP
1FFFE000
7FFFFC00
FFFFFE00
FFFFFF00
F3F07F80
F3F01FC0
03F00FC0
03F00FC0
03F007E0
03F007E0
03F007E0
03F007E0
03F007E0
03F007E0
03F00FC0
03F00FC0
03F01FC0
03F07F80
03FFFF00
03FFFE00
03FFFC00
03FFE000
ENDCHAR
STARTCHAR 018B
ENCODING 395
SWIDTH 766 0
DWIDTH 23 0
BBX 18 22 2 0
BITMAP
7FFFC0
7FFFC0
7FFFC0
7FFFC0
000FC0
000FC0
000FC0
000FC0
000FC0
07FFC0
3FFFC0
7FFFC0
7FFFC0
FE0FC0
FC0FC0
FC0FC0
FC0FC0
FE0FC0
7FFFC0
7FFFC0
3FFFC0
0FFFC0
ENDCHAR
STARTCHAR 018C
ENCODING 396
SWIDTH 700 0
DWIDTH 21 0
BBX 18 23 1 0
BITMAP
1FFFC0
1FFFC0
1FFFC0
0007C0
0007C0
0007C0
0007C0
07C7C0
1FE7C0
3FF7C0
7E1FC0
7E0FC0
7C0FC0
FC07C0
FC07C0
FC07C0
FC07C0
7C0FC0
7E0FC0
7E1FC0
3FF7C0
1FE7C0
07C7C0
ENDCHAR
STARTCHAR 018D
ENCODING 397
SWIDTH 700 0
DWIDTH 21 0
BBX 18 23 1 -7
BITMAP
03F800
0FFE00
3FFF00
3F1F80
7E0FC0
7C07C0
FC07C0
FC07C0
FC07C0
FC07C0
7C07C0
7E0FC0
7F1F80
3FFF00
0FFE00
03FE00
003F00
001F00
000F00
101F00
1FFF00
1FFE00
0FF800
ENDCHAR
STARTCHAR 018E
ENCODING 398
SWIDTH 700 0
DWIDTH 21 0
BBX 15 22 3 0
BITMAP
FFFE
FFFE
FFFE
FFFE
003E
003E
003E
003E
003E
7FFE
7FFE
7FFE
7FFE
003E
003E
003E
003E
003E
FFFE
FFFE
FFFE
FFFE
ENDCHAR
STARTCHAR 018F
ENCODING 399
SWIDTH 833 0
DWIDTH 25 0
BBX 22 22 2 0
BITMAP
07FC00
3FFF80
3FFFC0
3FFFE0
3C0FF0
2003F8
0001F8
0000FC
0000FC
FFFFFC
FFFFFC
FFFFFC
FFFFFC
FC00FC
FC00FC
FC01F8
7E03F8
7F07F0
3FFFF0
1FFFE0
07FF80
01FE00
ENDCHAR
STARTCHAR 0190
ENCODING 400
SWIDTH 700 0
DWIDTH 21 0
BBX 16 22 2 0
BITMAP
07F0
3FFC
7FFE
7FFF
7E0F
7C03
7C01
7C00
7F00
3FF8
0FF8
3FF8
7FF8
FE00
FC00
FC01
FC01
FE07
7FFF
7FFF
1FFE
07F8
ENDCHAR
STARTCHAR 0191
ENCODING 401
SWIDTH 700 0
DWIDTH 21 0
BBX 20 28 -2 -6
BITMAP
07FFF0
07FFF0
07FFF0
07FFF0
07C000
07C000
07C000
07C000
07C000
07FFE0
07FFE0
07FFE0
07FFE0
07C000
07C000
07C000
07C000
07C000
07C000
07C000
07C000
07C000
0FC000
1FC000
FF8000
FF8000
FF0000
F80000
ENDCHAR
STARTCHAR 0192
ENCODING 402
SWIDTH 433 0
DWIDTH 13 0
BBX 15 29 -2 -6
BITMAP
00FE
03FE
03FE
07E0
07C0
07C0
07C0
1FFE
1FFE
1FFE
07C0
07C0
07C0
07C0
07C0
07C0
07C0
07C0
07C0
07C0
07C0
07C0
07C0
07C0
07C0
07C0
FFC0
FF80
FF00
ENDCHAR
STARTCHAR 0193
ENCODING 403
SWIDTH 833 0
DWIDTH 25 0
BBX 25 28 1 0
BITMAP
00000F80
00003F80
00007F80
0000FF80
0000FC00
0001F800
00FFF800
03FFF800
0FFFF800
1FFFF800
3FC07800
3F800800
7F000000
7E000000
7E000000
7C000000
FC07F800
FC07F800
7C07F800
7E07F800
7E00F800
7F00F800
3F00F800
3FC0F800
1FFFF800
0FFFF800
03FFF000
00FF8000
ENDCHAR
STARTCHAR 0194
ENCODING 404
SWIDTH 800 0
DWIDTH 24 0
BBX 23 28 0 -6
BITMAP
FC003E
7E007E
3E00FC
3F00FC
1F81F8
1F81F0
0FC3F0
07C7E0
07E7E0
03FFC0
03FF80
01FF80
00FF00
00FE00
007E00
00FE00
00FF00
01FF80
01FF80
03EFC0
03E7C0
07C3C0
07C3E0
07E7E0
07FFE0
07FFC0
03FFC0
00FF00
ENDCHAR
STARTCHAR 0195
ENCODING 405
SWIDTH 1033 0
DWIDTH 31 0
BBX 27 23 3 0
BITMAP
F8000000
F8000000
F8000000
F8000000
F8000000
F8000000
F8F00000
FBFC1E00
FFFE1F80
FFFE1F80
FE3F0FC0
FC3F07C0
F81F07E0
F81F03E0
F81F03E0
F81F03E0
F81F03E0
F81F07E0
F81F0FC0
F81FBFC0
F80FFF80
F807FF00
F803FC00
ENDCHAR
STARTCHAR 0196
ENCODING 406
SWIDTH 433 0
DWIDTH 13 0
BBX 10 22 3 0
BITMAP
F800
F800
F800
F800
F800
F800
F800
F800
F800
F800
F800
F800
F800
F800
F800
FC00
FC00
FE00
7FC0
7FC0
1FC0
07C0
ENDCHAR
STARTCHAR 0197
ENCODING 407
SWIDTH 400 0
DWIDTH 12 0
BBX 12 22 0 0
BITMAP
1F80
1F80
1F80
1F80
1F80
1F80
1F80
1F80
1F80
FFF0
FFF0
FFF0
FFF0
1F80
1F80
1F80
1F80
1F80
1F80
1F80
1F80
1F80
ENDCHAR
STARTCHAR 0198
ENCODING 408
SWIDTH 766 0
DWIDTH 23 0
BBX 21 22 3 0
BITMAP
F807C0
F80FE0
F81FF0
F83FF0
F87FF0
F8FE70
F9FC70
FBF870
FFF000
FFE000
FFC000
FFE000
FFF000
FFF800
F9FC00
F8FE00
F87F00
F83F80
F81FC0
F80FE0
F807F0
F803F8
ENDCHAR
STARTCHAR 0199
ENCODING 409
SWIDTH 666 0
DWIDTH 20 0
BBX 17 23 3 0
BITMAP
1FC000
3FC000
7FC000
FFC000
F80000
F80000
F80000
F83F00
F87E00
F8FC00
F9F800
FBF000
FFE000
FFC000
FF8000
FFC000
FFE000
FBF000
F9F800
F8FC00
F87E00
F83F00
F81F80
ENDCHAR
STARTCHAR 019A
ENCODING 410
SWIDTH 366 0
DWIDTH 11 0
BBX 11 23 0 0
BITMAP
1F00
1F00
1F00
1F00
1F00
1F00
1F00
1F00
1F00
1F00
FFE0
FFE0
FFE0
1F00
1F00
1F00
1F00
1F00
1F00
1F00
1F00
1F00
1F00
ENDCHAR
STARTCHAR 019B
ENCODING 411
SWIDTH 600 0
DWIDTH 18 0
BBX 17 23 0 0
BITMAP
1F0400
0FBC00
0FF800
1FC000
FFC000
E7C000
07E000
03E000
03E000
07F000
07F000
07F800
0FF800
0FF800
0FFC00
1FFC00
1F7C00
1F3E00
3F3E00
3E3F00
3E1F00
7E1F00
7C1F80
ENDCHAR
STARTCHAR 019C
ENCODING 412
SWIDTH 1033 0
DWIDTH 31 0
BBX 27 22 2 0
BITMAP
FC1F03E0
FC1F03E0
FC1F03E0
FC1F03E0
FC1F03E0
FC1F03E0
FC1F03E0
FC1F03E0
FC1F03E0
FC1F03E0
FC1F03E0
FC1F03E0
FC1F03E0
FC1F03E0
FC1F03E0
FC1F07E0
7C1F07E0
7C3F87E0
7FFFFFE0
7FFFFFE0
3FEFFBE0
1F83F3E0
ENDCHAR
STARTCHAR 019D
ENCODING 413
SWIDTH 833 0
DWIDTH 25 0
BBX 24 28 -2 -6
BITMAP
07E01F
07F01F
07F01F
07F81F
07F81F
07FC1F
07FC1F
07FE1F
07DF1F
07DF1F
07CF9F
07C79F
07C7DF
07C3DF
07C3FF
07C1FF
07C1FF
07C0FF
07C0FF
07C07F
07C07F
07C03F
0FC000
1FC000
FF8000
FF0000
FE0000
F80000
ENDCHAR
STARTCHAR 019E
ENCODING 414
SWIDTH 700 0
DWIDTH 21 0
BBX 16 22 3 -6
BITMAP
F8F8
FBFE
FFFE
FE3F
FC3F
F81F
F81F
F81F
F81F
F81F
F81F
F81F
F81F
F81F
F81F
F81F
001F
001F
001F
001F
001F
001F
ENDCHAR
STARTCHAR 019F
ENCODING 415
SWIDTH 866 0
DWIDTH 26 0
BBX 23 22 1 0
BITMAP
00FF00
07FFC0
0FFFF0
1FFFF8
3FC3F8
3F01FC
7E00FC
7E007E
7E007E
7FFFFE
FFFFFE
FFFFFE
7FFFFE
7C007E
7E007E
7E00FC
3F00FC
3F83F8
1FFFF8
0FFFF0
07FFC0
00FF00
ENDCHAR
STARTCHAR 01A0
ENCODING 416
SWIDTH 866 0
DWIDTH 26 0
BBX 24 23 2 0
BITMAP
000006
01FE07
0FFF87
1FFFFF
3FFFFE
7F87FC
7E01F8
FC01F8
FC00FC
FC00FC
FC00FC
F800FC
F800FC
F800FC
FC00FC
FC00FC
FC01F8
7E01F8
7F07F0
3FFFF0
1FFFE0
0FFF80
01FE00
ENDCHAR
STARTCHAR 01A1
ENCODING 417
SWIDTH 700 0
DWIDTH 21 0
BBX 20 18 1 0
BITMAP
000030
000030
03FA30
0FFFF0
3FFFF0
3F1FE0
7E0FC0
7C07C0
FC07C0
FC07C0
FC07C0
FC07C0
7C07C0
7E0FC0
3F1F80
3FFF00
0FFE00
03F800
ENDCHAR
STARTCHAR 01A2
ENCODING 418
SWIDTH 1066 0
DWIDTH 32 0
BBX 29 22 1 0
BITMAP
00FFFF00
07FFFFC0
0FFFFFE0
1FFFFFF0
3F81F3F8
3F00F1F8
7E00F1F8
7E00F0F8
7E00F0F8
7C00F0F8
FC00F0F8
FC00F0F8
7C00F0F8
7E00F0F8
7E00F0F8
7E00F0F8
3F00F0F8
3F81F0F8
1FFFF0F8
0FFFE0F8
07FFC0F8
00FF00F8
ENDCHAR
STARTCHAR 01A3
ENCODING 419
SWIDTH 900 0
DWIDTH 27 0
BBX 24 22 1 -6
BITMAP
03FFF0
0FFFFC
3FFFFE
7F0F3E
7E0F3F
7C0F1F
FC0F1F
FC0F1F
FC0F1F
FC0F1F
7C0F1F
7E0F1F
7F0F1F
3FFF1F
1FFE1F
03F81F
00001F
00001F
00001F
00001F
00001F
00001F
ENDCHAR
STARTCHAR 01A4
ENCODING 420
SWIDTH 766 0
DWIDTH 23 0
BBX 24 22 -2 0
BITMAP
1FFFE0
7FFFFC
FFFFFE
FFFFFE
F3F07F
F3F03F
03F03F
03F03F
03F03F
03F07F
03FFFE
03FFFE
03FFFC
03FFE0
03F000
03F000
03F000
03F000
03F000
03F000
03F000
03F000
ENDCHAR
STARTCHAR 01A5
ENCODING 421
SWIDTH 700 0
DWIDTH 21 0
BBX 17 29 3 -6
BITMAP
3FC000
7FC000
FFC000
F80000
F80000
F80000
F80000
F8F800
FBFC00
FFFE00
FC3F00
FC1F80
F81F80
F80F80
F80F80
F80F80
F80F80
F81F80
FC1F80
FC3F00
FFFE00
FBFC00
F8F800
F80000
F80000
F80000
F80000
F80000
F80000
ENDCHAR
STARTCHAR 01A6
ENCODING 422
SWIDTH 766 0
DWIDTH 23 0
BBX 19 26 3 -4
BITMAP
F80000
F80000
F80000
F80000
FFF800
FFFE00
FFFF00
FFFF00
F83F80
F81F80
F81F80
F81F80
F81F00
F87F00
FFFE00
FFF800
FFFC00
FFFE00
F83F00
F83F00
F81F80
F81F80
000FC0
000FC0
0007E0
0007E0
ENDCHAR
STARTCHAR 01A7
ENCODING 423
SWIDTH 733 0
DWIDTH 22 0
BBX 17 22 1 0
BITMAP
1FF800
7FFE00
7FFF00
7FFF00
701F80
000F80
000F80
001F80
00FF80
0FFF00
3FFF00
7FFE00
FFF000
FF0000
FC0000
F80000
F80080
FC0380
FFFF80
7FFF80
3FFF80
1FFE00
ENDCHAR
STARTCHAR 01A8
ENCODING 424
SWIDTH 600 0
DWIDTH 18 0
BBX 15 17 0 0
BITMAP
0FE0
3FFC
3FFE
3FFE
203E
001E
007E
0FFE
3FFC
7FF8
7F80
FC00
FC00
7C0E
7FFE
3FFE
1FFE
ENDCHAR
STARTCHAR 01A9
ENCODING 425
SWIDTH 700 0
DWIDTH 21 0
BBX 15 22 3 0
BITMAP
FFFE
FFFE
FFFE
FFFE
FC00
7E00
3F00
1F80
07C0
03F0
01F0
03E0
07C0
0F80
1F00
3E00
7C00
F800
FFFE
FFFE
FFFE
FFFE
ENDCHAR
STARTCHAR 01AA
ENCODING 426
SWIDTH 566 0
DWIDTH 17 0
BBX 18 30 -1 -7
BITMAP
1F0000
7FE000
FFF000
FFF000
E1F800
F0F800
FFFE00
7FFE00
3FFE00
00F800
00F800
00F800
00F800
00F800
00F800
00F800
00F800
00F800
00F800
00F800
00F800
00F800
00F800
00F800
00F800
00F800
00FFC0
007FC0
003FC0
0007C0
ENDCHAR
STARTCHAR 01AB
ENCODING 427
SWIDTH 466 0
DWIDTH 14 0
BBX 14 27 0 -6
BITMAP
1F00
1F00
1F00
1F00
1F00
FFFC
FFFC
FFFC
1F00
1F00
1F00
1F00
1F00
1F00
1F00
1F00
1F00
1FF8
0FF8
0FF8
03F8
00F8
00F8
01F8
0FF0
0FF0
0FE0
ENDCHAR
STARTCHAR 01AC
ENCODING 428
SWIDTH 700 0
DWIDTH 21 0
BBX 21 22 0 0
BITMAP
1FFFF8
3FFFF8
7FFFF8
7FFFF8
F8FC00
F8FC00
F0FC00
F0FC00
00FC00
00FC00
00FC00
00FC00
00FC00
00FC00
00FC00
00FC00
00FC00
00FC00
00FC00
00FC00
00FC00
00FC00
ENDCHAR
STARTCHAR 01AD
ENCODING 429
SWIDTH 466 0
DWIDTH 14 0
BBX 14 23 0 0
BITMAP
03F8
0FF8
0FF8
1F80
1F00
1F00
1F00
FFFC
FFFC
FFFC
1F00
1F00
1F00
1F00
1F00
1F00
1F00
1F00
1F00
1F80
1FF8
0FF8
07F8
ENDCHAR
STARTCHAR 01AE
ENCODING 430
SWIDTH 666 0
DWIDTH 20 0
BBX 20 28 0 -6
BITMAP
FFFFF0
FFFFF0
FFFFF0
FFFFF0
01F800
01F800
01F800
01F800
01F800
01F800
01F800
01F800
01F800
01F800
01F800
01F800
01F800
01F800
01F800
01F800
01F800
00F800
00FC00
00FE00
00FF80
007F80
003F80
000F80
ENDCHAR
STARTCHAR 01AF
ENCODING 431
SWIDTH 833 0
DWIDTH 25 0
BBX 22 23 3 0
BITMAP
00000C
F807EC
F807EC
F807FC
F807FC
F807F8
F807E0
F807E0
F807E0
F807E0
F807E0
F807E0
F807E0
F807E0
F807E0
F807E0
FC07C0
FC0FC0
FE1FC0
7FFF80
3FFF80
1FFE00
07F800
ENDCHAR
STARTCHAR 01B0
ENCODING 432
SWIDTH 700 0
DWIDTH 21 0
BBX 20 18 2 0
BITMAP
000030
000030
FC1FB0
FC1FF0
FC1FF0
FC1FE0
FC1F80
FC1F80
FC1F80
FC1F80
FC1F80
FC1F80
FC1F80
FC1F80
7E3F80
7FFF80
3FDF80
1F9F80
ENDCHAR
STARTCHAR 01B1
ENCODING 433
SWIDTH 866 0
DWIDTH 26 0
BBX 24 22 1 0
BITMAP
FFC3FF
FFC3FF
FFC3FF
FFC3FF
0FC3F0
3F01F8
3F00FC
7E00FC
7E007E
7C007E
7C007E
FC007E
7C007E
7E007E
7E007E
7E00FC
3F01FC
3F83F8
1FFFF0
0FFFE0
07FFC0
00FF00
ENDCHAR
STARTCHAR 01B2
ENCODING 434
SWIDTH 800 0
DWIDTH 24 0
BBX 20 22 3 0
BITMAP
F80000
F80000
F81E00
F81F00
F81F80
F807C0
F803E0
F803E0
F801F0
F801F0
F800F0
F800F0
F800F0
F801F0
F801F0
FC03F0
FC07E0
FF1FC0
7FFFC0
7FFF80
1FFE00
07F800
ENDCHAR
STARTCHAR 01B3
ENCODING 435
SWIDTH 800 0
DWIDTH 24 0
BBX 24 22 0 0
BITMAP
FC00FC
7E01FE
7E03FE
3F03FF
1F87FF
1F8FEF
0FCFCF
07FF8F
07FF80
03FF00
01FE00
01FE00
00FC00
00FC00
00FC00
00FC00
00FC00
00FC00
00FC00
00FC00
00FC00
00FC00
ENDCHAR
STARTCHAR 01B4
ENCODING 436
SWIDTH 766 0
DWIDTH 23 0
BBX 22 23 1 -6
BITMAP
0001E0
F807F0
F80FF8
7C0FFC
7C1FFC
7E1F3C
3E1F1C
3E3E1C
1F3E00
1F3E00
0FFC00
0FFC00
0FF800
07F800
07F800
03F000
03F000
01F000
03E000
03E000
3FC000
3FC000
3F8000
ENDCHAR
STARTCHAR 01B5
ENCODING 437
SWIDTH 733 0
DWIDTH 22 0
BBX 19 22 1 0
BITMAP
7FFFE0
7FFFE0
7FFFE0
7FFFE0
000FC0
001F80
003F80
007F00
007E00
3FFF80
3FFF80
3FFF80
3FFF80
07E000
0FC000
1F8000
3F0000
7F0000
FFFFE0
FFFFE0
FFFFE0
FFFFE0
ENDCHAR
STARTCHAR 01B6
ENCODING 438
SWIDTH 566 0
DWIDTH 17 0
BBX 15 16 1 0
BITMAP
7FFE
7FFE
7FFE
007E
00FC
01F8
3FFC
3FFC
3FFC
1F80
3F00
7E00
FFFE
FFFE
FFFE
FFFE
ENDCHAR
STARTCHAR 01B7
ENCODING 439
SWIDTH 766 0
DWIDTH 23 0
BBX 20 23 2 -1
BITMAP
FFFFC0
FFFFC0
FFFFC0
FFFFC0
001F80
003F80
007F00
00FE00
01FC00
01F800
01FE00
01FF80
01FFC0
000FE0
0003F0
0003F0
0003F0
C003F0
F807E0
FFFFE0
FFFFC0
7FFF80
07FC00
ENDCHAR
STARTCHAR 01B8
ENCODING 440
SWIDTH 766 0
DWIDTH 23 0
BBX 20 23 1 -1
BITMAP
3FFFF0
3FFFF0
3FFFF0
3FFFF0
1F8000
1FC000
0FE000
07F000
03F800
01F800
07F800
1FF800
3FF800
7F0000
FC0000
FC0000
FC0000
FC0030
7E01F0
7FFFF0
3FFFF0
1FFFE0
03FE00
ENDCHAR
STARTCHAR 01B9
ENCODING 441
SWIDTH 633 0
DWIDTH 19 0
BBX 17 22 1 -6
BITMAP
3FFF00
3FFF00
3FFF00
3F0000
1F8000
0FC000
07E000
03F000
01F800
00F800
1FF800
3FF800
7FF800
7E0000
FC0000
FC0000
FC0000
FE0080
7F9F80
7FFF80
3FFF80
0FFF00
ENDCHAR
STARTCHAR 01BA
ENCODING 442
SWIDTH 566 0
DWIDTH 17 0
BBX 14 22 2 -6
BITMAP
FFFC
FFFC
FFFC
00FC
01F8
03F0
07E0
0FC0
1FE0
3FF8
7FFC
007C
007C
03FC
3FF8
FFF0
FF00
F800
F804
FFFC
7FFC
3FF8
ENDCHAR
STARTCHAR 01BB
ENCODING 443
SWIDTH 700 0
DWIDTH 21 0
BBX 16 22 2 0
BITMAP
3FF0
FFFC
FFFE
FFFF
E07F
803F
003F
003F
003F
003E
7FFE
7FFE
7FFE
7FFE
0FC0
1F80
3F00
7E00
FFFF
FFFF
FFFF
FFFF
ENDCHAR
STARTCHAR 01BC
ENCODING 444
SWIDTH 766 0
DWIDTH 23 0
BBX 21 23 1 -1
BITMAP
3FFF80
3FFF80
3FFF80
3FFF80
3E0000
3E0000
3E0000
3E0000
3E0000
3E0000
3FFF80
3FFFE0
3FFFF0
0007F0
0001F8
0001F8
FC01F8
FC01F8
7E03F0
7FFFF0
3FFFE0
1FFFC0
03FE00
ENDCHAR
STARTCHAR 01BD
ENCODING 445
SWIDTH 633 0
DWIDTH 19 0
BBX 17 22 1 -6
BITMAP
3FFC00
3FFC00
3FFC00
3E0000
3E0000
3E0000
3E0000
3E0000
3E0000
3FF000
3FFC00
3FFE00
3FFF00
003F00
001F00
001F80
001F80
803F00
F9FF00
FFFE00
FFFC00
FFF800
ENDCHAR
STARTCHAR 01BE
ENCODING 446
SWIDTH 566 0
DWIDTH 17 0
BBX 15 21 1 0
BITMAP
1F00
1F00
7FF0
7FF0
7FF0
1F00
1FC0
1FF0
1FF8
07FC
00FC
007E
003E
003E
007E
007C
80FC
FFFC
FFF8
FFF0
FFC0
ENDCHAR
STARTCHAR 01BF
ENCODING 447
SWIDTH 700 0
DWIDTH 21 0
BBX 17 23 3 -6
BITMAP
00FC00
FBFF00
FFFF00
FFFF80
FE3F80
FC1F80
F80F80
F80F80
F81F80
F81F00
F83E00
F87E00
F8FC00
F9F800
FFE000
FFC000
FF8000
FE0000
FC0000
F80000
F80000
F80000
F80000
ENDCHAR
STARTCHAR 01C0
ENCODING 448
SWIDTH 366 0
DWIDTH 11 0
BBX 5 28 3 -6
BITMAP
F8
F8
F8
F8
F8
F8
F8
F8
F8
F8
F8
F8
F8
F8
F8
F8
F8
F8
F8
F8
F8
F8
F8
F8
F8
F8
F8
F8
ENDCHAR
STARTCHAR 01C1
ENCODING 449
SWIDTH 666 0
DWIDTH 20 0
BBX 14 28 3 -6
BITMAP
F8FC
F8FC
F8FC
F8FC
F8FC
F8FC
F8FC
F8FC
F8FC
F8FC
F8FC
F8FC
F8FC
F8FC
F8FC
F8FC
F8FC
F8FC
F8FC
F8FC
F8FC
F8FC
F8FC
F8FC
F8FC
F8FC
F8FC
F8FC
ENDCHAR
STARTCHAR 01C2
ENCODING 450
SWIDTH 533 0
DWIDTH 16 0
BBX 16 28 0 -6
BITMAP
07E0
07E0
07E0
07E0
07E0
07E0
07E0
07E0
FFFF
FFFF
FFFF
FFFF
07E0
07E0
07E0
FFFF
FFFF
FFFF
07E0
07E0
07E0
07E0
07E0
07E0
07E0
07E0
07E0
07E0
ENDCHAR
STARTCHAR 01C3
ENCODING 451
SWIDTH 366 0
DWIDTH 11 0
BBX 5 22 3 0
BITMAP
F8
F8
F8
F8
F8
F8
F8
F8
F8
F8
F8
F8
F8
78
78
00
00
F8
F8
F8
F8
F8
ENDCHAR
STARTCHAR 01C4
ENCODING 452
SWIDTH 1566 0
DWIDTH 47 0
BBX 42 27 3 0
BITMAP
0000001C1C00
0000000E3800
00000007F000
00000003E000
000000000000
FFF000FFFFC0
FFFE00FFFFC0
FFFF80FFFFC0
FFFFC0FFFFC0
F81FC0001F80
F80FE0003F00
F807F0007F00
F803F000FE00
F803F001FC00
F803F001F800
F803F003F000
F803F007F000
F803F00FE000
F803F01FC000
F803F03F8000
F807F03F0000
F80FE07E0000
F81FC0FE0000
FFFFC1FFFFC0
FFFF81FFFFC0
FFFE01FFFFC0
FFF001FFFFC0
ENDCHAR
STARTCHAR 01C5
ENCODING 453
SWIDTH 1400 0
DWIDTH 42 0
BBX 38 24 3 0
BITMAP
0000007070
00000038E0
FFF0001CE0
FFFE001FC0
FFFF800F80
FFFFC00780
F81FC00000
F80FE00000
F807F0FFFC
F803F0FFFC
F803F0FFFC
F803F001FC
F803F003F8
F803F003F0
F803F007E0
F803F00FC0
F803F01FC0
F807F03F80
F80FE07F00
F81FC0FE00
FFFFC1FC00
FFFF81FFFC
FFFE01FFFC
FFF001FFFC
ENDCHAR
STARTCHAR 01C6
ENCODING 454
SWIDTH 1300 0
DWIDTH 39 0
BBX 37 24 1 0
BITMAP
000000E0C0
0007C071C0
0007C07380
0007C03F80
0007C03F00
0007C01E00
0007C00000
0007C00000
07C7C3FFF8
1FE7C3FFF8
3FF7C3FFF8
7E1FC003F8
7E0FC007F0
7C0FC00FE0
FC07C01FC0
FC07C03F80
FC07C07F00
FC07C0FE00
7C0FC1FC00
7E0FC3F800
7E1FC3F000
3FF7C3FFF8
1FE7C3FFF8
07C7C3FFF8
ENDCHAR
STARTCHAR 01C7
ENCODING 455
SWIDTH 1000 0
DWIDTH 30 0
BBX 25 28 3 -6
BITMAP
F8001F80
F8001F80
F8001F80
F8001F80
F8001F80
F8001F80
F8001F80
F8001F80
F8001F80
F8001F80
F8001F80
F8001F80
F8001F80
F8001F80
F8001F80
F8001F80
F8001F80
F8001F80
FFFE1F80
FFFE1F80
FFFE1F80
FFFE1F00
00003F00
00007F00
0003FF00
0003FE00
0003FC00
0003E000
ENDCHAR
STARTCHAR 01C8
ENCODING 456
SWIDTH 966 0
DWIDTH 29 0
BBX 24 29 3 -6
BITMAP
00001F
F8001F
F8001F
F8001F
F8001F
F80000
F80000
F8001F
F8001F
F8001F
F8001F
F8001F
F8001F
F8001F
F8001F
F8001F
F8001F
F8001F
F8001F
FFFE1F
FFFE1F
FFFE1F
FFFE1F
00001F
00003F
00003E
0001FE
0001FC
0001F8
ENDCHAR
STARTCHAR 01C9
ENCODING 457
SWIDTH 700 0
DWIDTH 21 0
BBX 15 29 3 -6
BITMAP
F83E
F83E
F83E
F83E
F83E
F800
F800
F83E
F83E
F83E
F83E
F83E
F83E
F83E
F83E
F83E
F83E
F83E
F83E
F83E
F83E
F83E
F83E
003E
003E
007E
03FC
03F8
03F0
ENDCHAR
STARTCHAR 01CA
ENCODING 458
SWIDTH 1200 0
DWIDTH 36 0
BBX 31 28 3 -6
BITMAP
FC03E07E
FE03E07E
FE03E07E
FF03E07E
FF03E07E
FF83E07E
FF83E07E
FFC3E07E
FBE3E07E
FBE3E07E
F9F3E07E
F8F3E07E
F8FBE07E
F87BE07E
F87FE07E
F83FE07E
F83FE07E
F81FE07E
F81FE07E
F80FE07E
F80FE07E
F807E07C
000000FC
000001FC
00000FFC
00000FF8
00000FF0
00000F80
ENDCHAR
STARTCHAR 01CB
ENCODING 459
SWIDTH 1166 0
DWIDTH 35 0
BBX 30 29 3 -6
BITMAP
0000007C
FC03E07C
FE03E07C
FE03E07C
FF03E07C
FF03E000
FF83E000
FF83E07C
FFC3E07C
FBE3E07C
FBE3E07C
F9F3E07C
F8F3E07C
F8FBE07C
F87BE07C
F87FE07C
F83FE07C
F83FE07C
F81FE07C
F81FE07C
F80FE07C
F80FE07C
F807E07C
0000007C
000000FC
000000F8
000007F8
000007F0
000007E0
ENDCHAR
STARTCHAR 01CC
ENCODING 460
SWIDTH 1066 0
DWIDTH 32 0
BBX 26 29 3 -6
BITMAP
000007C0
000007C0
000007C0
000007C0
000007C0
00000000
00000000
F8F807C0
FBFE07C0
FFFE07C0
FE3F07C0
FC3F07C0
F81F07C0
F81F07C0
F81F07C0
F81F07C0
F81F07C0
F81F07C0
F81F07C0
F81F07C0
F81F07C0
F81F07C0
F81F07C0
000007C0
000007C0
00000FC0
00007F80
00007F00
00007E00
ENDCHAR
STARTCHAR 01CD
ENCODING 461
SWIDTH 766 0
DWIDTH 23 0
BBX 23 27 0 0
BITMAP
038300
01CF00
00FE00
007C00
000000
00FE00
00FF00
01FF00
01FF00
01FF80
03FF80
03EF80
07EFC0
07C7C0
07C7C0
0FC7E0
0F83E0
0F83F0
1F83F0
1FFFF0
1FFFF8
3FFFF8
3FFFF8
7E00FC
7E007C
7C007E
FC007E
ENDCHAR
STARTCHAR 01CE
ENCODING 462
SWIDTH 666 0
DWIDTH 20 0
BBX 17 24 1 0
BITMAP
0E0C00
061C00
073800
03F000
03F000
01E000
000000
000000
3FF800
3FFE00
3FFF00
201F00
000F80
0FFF80
3FFF80
7FFF80
7E0F80
FC0F80
FC1F80
FC1F80
7C3F80
7FEF80
3FCF80
1F8F80
ENDCHAR
STARTCHAR 01CF
ENCODING 463
SWIDTH 366 0
DWIDTH 11 0
BBX 10 27 1 0
BITMAP
C1C0
E380
7F00
3E00
0000
3E00
3E00
3E00
3E00
3E00
3E00
3E00
3E00
3E00
3E00
3E00
3E00
3E00
3E00
3E00
3E00
3E00
3E00
3E00
3E00
3E00
3E00
ENDCHAR
STARTCHAR 01D0
ENCODING 464
SWIDTH 333 0
DWIDTH 10 0
BBX 11 24 0 0
BITMAP
E0E0
71C0
3BC0
3B80
1F00
1F00
0000
0000
1F00
1F00
1F00
1F00
1F00
1F00
1F00
1F00
1F00
1F00
1F00
1F00
1F00
1F00
1F00
1F00
ENDCHAR
STARTCHAR 01D1
ENCODING 465
SWIDTH 866 0
DWIDTH 26 0
BBX 23 27 1 0
BITMAP
038300
01CF00
00FE00
007C00
000000
00FF00
07FFC0
0FFFF0
1FFFF8
3F83F8
3F01FC
7E00FC
7E007E
7E007E
7C007E
FC007E
FC007E
7C007E
7E007E
7E007E
7E00FC
3F01FC
3F83F8
1FFFF8
0FFFF0
07FFC0
00FF00
ENDCHAR
STARTCHAR 01D2
ENCODING 466
SWIDTH 700 0
DWIDTH 21 0
BBX 18 24 1 0
BITMAP
0E0E00
071C00
039C00
03F800
01F000
00F000
000000
000000
03F800
0FFE00
3FFF00
7F1F80
7E0FC0
7C07C0
FC07C0
FC07C0
FC07C0
FC07C0
7C07C0
7E0FC0
7F1F80
3FFF00
1FFE00
03F800
ENDCHAR
STARTCHAR 01D3
ENCODING 467
SWIDTH 800 0
DWIDTH 24 0
BBX 19 27 3 0
BITMAP
0C1C00
0F3800
07F000
03E000
000000
F807E0
F807E0
F807E0
F807E0
F807E0
F807E0
F807E0
F807E0
F807E0
F807E0
F807E0
F807E0
F807E0
F807E0
F807E0
FC07C0
FC0FC0
7E1FC0
7FFF80
3FFF80
1FFE00
07F800
ENDCHAR
STARTCHAR 01D4
ENCODING 468
SWIDTH 700 0
DWIDTH 21 0
BBX 17 24 2 0
BITMAP
0E1C00
0E1C00
073800
03F000
03F000
01E000
000000
000000
FC0F80
FC0F80
FC0F80
FC0F80
FC0F80
FC0F80
FC0F80
FC0F80
FC0F80
FC1F80
FC1F80
FC1F80
7E3F80
7FEF80
3FCF80
1F8F80
ENDCHAR
STARTCHAR 01D5
ENCODING 469
SWIDTH 800 0
DWIDTH 24 0
BBX 19 31 3 0
BITMAP
0FFC00
0FFC00
0FFC00
0F3C00
0F3C00
0F3C00
0F3C00
000000
000000
F807E0
F807E0
F807E0
F807E0
F807E0
F807E0
F807E0
F807E0
F807E0
F807E0
F807E0
F807E0
F807E0
F807E0
F807E0
FC07C0
FC0FC0
7E1FC0
7FFF80
3FFF80
1FFE00
07F800
ENDCHAR
STARTCHAR 01D6
ENCODING 470
SWIDTH 700 0
DWIDTH 21 0
BBX 17 28 2 0
BITMAP
0FF800
0FF800
0FF800
000000
000000
0E3800
0E3800
0E3800
0E3800
000000
000000
000000
FC0F80
FC0F80
FC0F80
FC0F80
FC0F80
FC0F80
FC0F80
FC0F80
FC0F80
FC1F80
FC1F80
FC1F80
7E3F80
7FEF80
3FCF80
1F8F80
ENDCHAR
STARTCHAR 01D7
ENCODING 471
SWIDTH 800 0
DWIDTH 24 0
BBX 19 33 3 0
BITMAP
003C00
007800
00E000
01C000
000000
073C00
073C00
073C00
073C00
000000
000000
F807E0
F807E0
F807E0
F807E0
F807E0
F807E0
F807E0
F807E0
F807E0
F807E0
F807E0
F807E0
F807E0
F807E0
F807E0
FC07C0
FC0FC0
7E1FC0
7FFF80
3FFF80
1FFE00
07F800
ENDCHAR
STARTCHAR 01D8
ENCODING 472
SWIDTH 700 0
DWIDTH 21 0
BBX 17 27 2 0
BITMAP
003C00
007800
00F000
0FF800
0E3800
0E3800
0E3800
000000
000000
000000
000000
FC0F80
FC0F80
FC0F80
FC0F80
FC0F80
FC0F80
FC0F80
FC0F80
FC0F80
FC1F80
FC1F80
FC1F80
7E3F80
7FEF80
3FCF80
1F8F80
ENDCHAR
STARTCHAR 01D9
ENCODING 473
SWIDTH 800 0
DWIDTH 24 0
BBX 19 33 3 0
BITMAP
0E1C00
073800
03F800
03F000
000000
073C00
073C00
073C00
073C00
000000
000000
F807E0
F807E0
F807E0
F807E0
F807E0
F807E0
F807E0
F807E0
F807E0
F807E0
F807E0
F807E0
F807E0
F807E0
F807E0
FC07C0
FC0FC0
7E1FC0
7FFF80
3FFF80
1FFE00
07F800
ENDCHAR
STARTCHAR 01DA
ENCODING 474
SWIDTH 700 0
DWIDTH 21 0
BBX 17 27 2 0
BITMAP
0C1C00
0E3800
07F000
0FF800
0E3800
0E3800
0E3800
000000
000000
000000
000000
FC0F80
FC0F80
FC0F80
FC0F80
FC0F80
FC0F80
FC0F80
FC0F80
FC0F80
FC1F80
FC1F80
FC1F80
7E3F80
7FEF80
3FCF80
1F8F80
ENDCHAR
STARTCHAR 01DB
ENCODING 475
SWIDTH 800 0
DWIDTH 24 0
BBX 19 33 3 0
BITMAP
078000
03C000
01C000
00E000
000000
073C00
073C00
073C00
073C00
000000
000000
F807E0
F807E0
F807E0
F807E0
F807E0
F807E0
F807E0
F807E0
F807E0
F807E0
F807E0
F807E0
F807E0
F807E0
F807E0
FC07C0
FC0FC0
7E1FC0
7FFF80
3FFF80
1FFE00
07F800
ENDCHAR
STARTCHAR 01DC
ENCODING 476
SWIDTH 700 0
DWIDTH 21 0
BBX 17 27 2 0
BITMAP
1E0000
0F0000
078000
0FF800
0E3800
0E3800
0E3800
000000
000000
000000
000000
FC0F80
FC0F80
FC0F80
FC0F80
FC0F80
FC0F80
FC0F80
FC0F80
FC0F80
FC1F80
FC1F80
FC1F80
7E3F80
7FEF80
3FCF80
1F8F80
ENDCHAR
STARTCHAR 01DD
ENCODING 477
SWIDTH 666 0
DWIDTH 20 0
BBX 18 16 1 0
BITMAP
1FF000
7FFE00
7FFF00
781F80
400F80
000FC0
FFFFC0
FFFFC0
FFFFC0
FC0FC0
7C0FC0
7C0F80
3E1F80
3FFF00
0FFE00
07F800
ENDCHAR
STARTCHAR 01DE
ENCODING 478
SWIDTH 766 0
DWIDTH 23 0
BBX 23 31 0 0
BITMAP
01FF00
01FF00
01FF00
01E700
01E700
01E700
01E700
000000
000000
00FE00
00FF00
01FF00
01FF00
01FF80
03FF80
03EF80
07EFC0
07C7C0
07C7C0
0FC7E0
0F83E0
0F83F0
1F83F0
1FFFF0
1FFFF8
3FFFF8
3FFFF8
7E00FC
7E007C
7C007E
FC007E
ENDCHAR
STARTCHAR 01DF
ENCODING 479
SWIDTH 666 0
DWIDTH 20 0
BBX 17 28 1 0
BITMAP
07FC00
07FC00
07FC00
000000
000000
073C00
073C00
073C00
073C00
000000
000000
000000
3FF800
3FFE00
3FFF00
201F00
000F80
0FFF80
3FFF80
7FFF80
7E0F80
FC0F80
FC1F80
FC1F80
7C3F80
7FEF80
3FCF80
1F8F80
ENDCHAR
STARTCHAR 01E0
ENCODING 480
SWIDTH 766 0
DWIDTH 23 0
BBX 23 31 0 0
BITMAP
01FF00
01FF00
01FF00
003C00
003C00
003C00
003C00
000000
000000
00FE00
00FF00
01FF00
01FF00
01FF80
03FF80
03EF80
07EFC0
07C7C0
07C7C0
0FC7E0
0F83E0
0F83F0
1F83F0
1FFFF0
1FFFF8
3FFFF8
3FFFF8
7E00FC
7E007C
7C007E
FC007E
ENDCHAR
STARTCHAR 01E1
ENCODING 481
SWIDTH 666 0
DWIDTH 20 0
BBX 17 28 1 0
BITMAP
0FF800
0FF800
0FF800
01F000
01F000
01F000
01F000
01F000
01F000
000000
000000
000000
3FF800
3FFE00
3FFF00
201F00
000F80
0FFF80
3FFF80
7FFF80
7E0F80
FC0F80
FC1F80
FC1F80
7C3F80
7FEF80
3FCF80
1F8F80
ENDCHAR
STARTCHAR 01E2
ENCODING 482
SWIDTH 1100 0
DWIDTH 33 0
BBX 30 28 0 0
BITMAP
0001FF00
0001FF00
0001FF00
00000000
00000000
00000000
007FFFFC
007FFFFC
00FFFFFC
00FFFFFC
01F9F000
01F1F000
03F1F000
03E1F000
03E1F000
07E1FFF8
07C1FFF8
0FC1FFF8
0FC1FFF8
0FFFF000
1FFFF000
1FFFF000
3FFFF000
3E01F000
7E01FFFC
7E01FFFC
7C01FFFC
FC01FFFC
ENDCHAR
STARTCHAR 01E3
ENCODING 483
SWIDTH 1033 0
DWIDTH 31 0
BBX 29 23 1 0
BITMAP
003FE000
003FE000
003FE000
00000000
00000000
00000000
00000000
3FF07F00
3FFDFFC0
3FFFFFE0
201FE3F0
000FC1F0
0FFF81F8
3FFF80F8
7FFFFFF8
7E0FFFF8
FC0FFFF8
FC0F8000
FC1F8010
7C3FE070
7FFBFFF0
3FE1FFF0
0FC07FC0
ENDCHAR
STARTCHAR 01E4
ENCODING 484
SWIDTH 833 0
DWIDTH 25 0
BBX 23 22 1 0
BITMAP
00FFC0
07FFF8
0FFFF8
1FFFF8
3FC078
3F0008
7F0000
7E0000
7E0000
7C0000
FC07F8
FC07F8
7C07F8
7E07F8
7E00F8
7E03FE
3F00F8
3F80F8
1FFFF8
0FFFF8
07FFF8
01FFE0
ENDCHAR
STARTCHAR 01E5
ENCODING 485
SWIDTH 700 0
DWIDTH 21 0
BBX 19 23 1 -6
BITMAP
038000
1FE7C0
3FF7C0
3FFFC0
7E1FC0
7C0FC0
FC0FC0
FC07C0
FC07C0
FC07C0
FC0FC0
7C0FC0
7E1FC0
3FFFC0
3FF7C0
1FF7C0
07C7C0
000FC0
03FFE0
383F80
3FFF00
3FFE00
3FFC00
ENDCHAR
STARTCHAR 01E6
ENCODING 486
SWIDTH 833 0
DWIDTH 25 0
BBX 21 27 1 0
BITMAP
01C180
00E780
007F00
003E00
000000
00FF80
03FFF0
0FFFF8
1FFFF8
3FC078
3F8008
7F0000
7E0000
7E0000
7C0000
FC07F8
FC07F8
7C07F8
7E07F8
7E00F8
7F00F8
3F00F8
3FC0F8
1FFFF8
0FFFF8
03FFF0
00FF80
ENDCHAR
STARTCHAR 01E7
ENCODING 487
SWIDTH 700 0
DWIDTH 21 0
BBX 18 30 1 -6
BITMAP
0E0E00
071C00
039C00
03F800
01F000
00F000
000000
000000
07C7C0
1FE7C0
3FF7C0
7F1FC0
7E0FC0
7C0FC0
FC07C0
FC07C0
FC07C0
FC07C0
7C0FC0
7E0FC0
7E1FC0
3FF7C0
1FE7C0
07C7C0
000FC0
200F80
383F80
3FFF00
3FFE00
0FF000
ENDCHAR
STARTCHAR 01E8
ENCODING 488
SWIDTH 766 0
DWIDTH 23 0
BBX 21 27 3 0
BITMAP
0E0E00
071C00
03F800
01F000
000000
F807F0
F80FE0
F81FC0
F83F80
F87F00
F8FE00
F9FC00
FBF800
FFF000
FFC000
FFC000
FFE000
FFF000
FBF800
F9FC00
F8FE00
F87F00
F83F80
F81FC0
F80FE0
F807F0
F803F8
ENDCHAR
STARTCHAR 01E9
ENCODING 489
SWIDTH 666 0
DWIDTH 20 0
BBX 20 27 0 0
BITMAP
E0C000
73C000
3F8000
1F0000
1F0000
1F0000
1F0000
1F0000
1F0000
1F0000
1F0000
1F07E0
1F0FC0
1F1F80
1F3F00
1F7E00
1FFC00
1FF800
1FF000
1FF800
1FFC00
1F7E00
1F3F00
1F1F80
1F0FC0
1F07E0
1F03F0
ENDCHAR
STARTCHAR 01EA
ENCODING 490
SWIDTH 866 0
DWIDTH 26 0
BBX 23 28 1 -6
BITMAP
00FF00
07FFC0
0FFFF0
1FFFF8
3F83F8
3F01FC
7E00FC
7E007E
7E007E
7C007E
FC007E
FC007E
7C007E
7E007E
7E007E
7E00FC
3F01FC
3F83F8
1FFFF8
0FFFF0
07FFC0
00FF00
003000
007000
006000
007000
007E00
003E00
ENDCHAR
STARTCHAR 01EB
ENCODING 491
SWIDTH 700 0
DWIDTH 21 0
BBX 18 22 1 -6
BITMAP
03F800
0FFE00
3FFF00
7F1F80
7E0FC0
7C07C0
FC07C0
FC07C0
FC07C0
FC07C0
7C07C0
7E0FC0
7F1F80
3FFF00
1FFE00
03F800
00C000
018000
018000
018000
01F800
00F800
ENDCHAR
STARTCHAR 01EC
ENCODING 492
SWIDTH 866 0
DWIDTH 26 0
BBX 23 34 1 -6
BITMAP
01FF00
01FF00
01FF00
000000
000000
000000
00FF00
07FFC0
0FFFF0
1FFFF8
3F83F8
3F01FC
7E00FC
7E007E
7E007E
7C007E
FC007E
FC007E
7C007E
7E007E
7E007E
7E00FC
3F01FC
3F83F8
1FFFF8
0FFFF0
07FFC0
00FF00
003000
007000
006000
007000
007E00
003E00
ENDCHAR
STARTCHAR 01ED
ENCODING 493
SWIDTH 700 0
DWIDTH 21 0
BBX 18 29 1 -6
BITMAP
07FC00
07FC00
07FC00
000000
000000
000000
000000
03F800
0FFE00
3FFF00
7F1F80
7E0FC0
7C07C0
FC07C0
FC07C0
FC07C0
FC07C0
7C07C0
7E0FC0
7F1F80
3FFF00
1FFE00
03F800
00C000
018000
018000
018000
01F800
00F800
ENDCHAR
STARTCHAR 01EE
ENCODING 494
SWIDTH 766 0
DWIDTH 23 0
BBX 20 28 2 -1
BITMAP
1C1C00
0E3800
07F000
03E000
000000
FFFFC0
FFFFC0
FFFFC0
FFFFC0
001F80
003F80
007F00
00FE00
01FC00
01F800
01FE00
01FF80
01FFC0
000FE0
0003F0
0003F0
0003F0
C003F0
F807E0
FFFFE0
FFFFC0
7FFF80
07FC00
ENDCHAR
STARTCHAR 01EF
ENCODING 495
SWIDTH 566 0
DWIDTH 17 0
BBX 17 30 1 -6
BITMAP
183800
1C3000
0E7000
07E000
07E000
03C000
000000
000000
7FFE00
7FFE00
7FFE00
007E00
00FC00
01F800
03F000
07E000
0FC000
0F8000
0FFC00
0FFE00
0FFF00
003F00
001F80
001F80
001F80
803F80
FCFF00
FFFF00
FFFE00
7FF800
ENDCHAR
STARTCHAR 01F0
ENCODING 496
SWIDTH 333 0
DWIDTH 10 0
BBX 11 30 -1 -6
BITMAP
7060
38E0
39C0
1FC0
0F80
0F00
0000
0000
0F80
0F80
0F80
0F80
0F80
0F80
0F80
0F80
0F80
0F80
0F80
0F80
0F80
0F80
0F80
0F80
1F80
1F80
1F00
FF00
FE00
F800
ENDCHAR
STARTCHAR 01F1
ENCODING 497
SWIDTH 1566 0
DWIDTH 47 0
BBX 42 22 3 0
BITMAP
FFF000FFFFC0
FFFE00FFFFC0
FFFF80FFFFC0
FFFFC0FFFFC0
F81FC0001F80
F80FE0003F00
F807F0007F00
F803F000FE00
F803F001FC00
F803F001F800
F803F003F000
F803F007F000
F803F00FE000
F803F01FC000
F803F03F8000
F807F03F0000
F80FE07E0000
F81FC0FE0000
FFFFC1FFFFC0
FFFF81FFFFC0
FFFE01FFFFC0
FFF001FFFFC0
ENDCHAR
STARTCHAR 01F2
ENCODING 498
SWIDTH 1400 0
DWIDTH 42 0
BBX 38 22 3 0
BITMAP
FFF0000000
FFFE000000
FFFF800000
FFFFC00000
F81FC00000
F80FE00000
F807F0FFFC
F803F0FFFC
F803F0FFFC
F803F001FC
F803F003F8
F803F003F0
F803F007E0
F803F00FC0
F803F01FC0
F807F03F80
F80FE07F00
F81FC0FE00
FFFFC1FC00
FFFF81FFFC
FFFE01FFFC
FFF001FFFC
ENDCHAR
STARTCHAR 01F3
ENCODING 499
SWIDTH 1300 0
DWIDTH 39 0
BBX 37 23 1 0
BITMAP
0007C00000
0007C00000
0007C00000
0007C00000
0007C00000
0007C00000
0007C00000
07C7C3FFF8
1FE7C3FFF8
3FF7C3FFF8
7E1FC003F8
7E0FC007F0
7C0FC00FE0
FC07C01FC0
FC07C03F80
FC07C07F00
FC07C0FE00
7C0FC1FC00
7E0FC3F800
7E1FC3F000
3FF7C3FFF8
1FE7C3FFF8
07C7C3FFF8
ENDCHAR
STARTCHAR 01F4
ENCODING 500
SWIDTH 833 0
DWIDTH 25 0
BBX 21 27 1 0
BITMAP
001E00
003C00
003800
007000
000000
00FF80
03FFF0
0FFFF8
1FFFF8
3FC078
3F8008
7F0000
7E0000
7E0000
7C0000
FC07F8
FC07F8
7C07F8
7E07F8
7E00F8
7F00F8
3F00F8
3FC0F8
1FFFF8
0FFFF8
03FFF0
00FF80
ENDCHAR
STARTCHAR 01F5
ENCODING 501
SWIDTH 700 0
DWIDTH 21 0
BBX 18 30 1 -6
BITMAP
003C00
003800
007000
00F000
01E000
01C000
000000
000000
07C7C0
1FE7C0
3FF7C0
7F1FC0
7E0FC0
7C0FC0
FC07C0
FC07C0
FC07C0
FC07C0
7C0FC0
7E0FC0
7E1FC0
3FF7C0
1FE7C0
07C7C0
000FC0
200F80
383F80
3FFF00
3FFE00
0FF000
ENDCHAR
STARTCHAR 01F6
ENCODING 502
SWIDTH 1300 0
DWIDTH 39 0
BBX 33 22 3 0
BITMAP
F803E00000
F803E00000
F803E00000
F803E00000
F803E00000
F803E00000
F803E01F80
F803E01F80
FFFFE01F80
FFFFE01F80
FFFFE01F80
FFFFE01F80
FFFFE01F80
F803E01F80
F803E01F80
F803F01F00
F803F03F00
F803F83F00
F801FFFE00
F801FFFE00
F800FFFC00
F8003FF000
ENDCHAR
STARTCHAR 01F7
ENCODING 503
SWIDTH 800 0
DWIDTH 24 0
BBX 19 28 3 -6
BITMAP
FCFF80
FDFFC0
FFFFC0
FFFFE0
FF0FE0
FE07E0
FC07E0
FC07E0
FC07E0
FC07C0
FC0FC0
FC1F80
FC3F00
FC7E00
FDFC00
FFF800
FFF000
FFC000
FF8000
FE0000
FC0000
FC0000
FC0000
FC0000
FC0000
FC0000
FC0000
FC0000
ENDCHAR
STARTCHAR 01F8
ENCODING 504
SWIDTH 833 0
DWIDTH 25 0
BBX 19 27 3 0
BITMAP
01E000
00E000
007000
003800
000000
FC03E0
FE03E0
FE03E0
FF03E0
FF03E0
FF83E0
FF83E0
FFC3E0
FBE3E0
FBE3E0
F9F3E0
F8F3E0
F8FBE0
F87BE0
F87FE0
F83FE0
F83FE0
F81FE0
F81FE0
F80FE0
F80FE0
F807E0
ENDCHAR
STARTCHAR 01F9
ENCODING 505
SWIDTH 700 0
DWIDTH 21 0
BBX 16 24 3 0
BITMAP
0F00
0780
0380
01C0
00E0
0070
0000
0000
F8F8
FBFE
FFFE
FE3F
FC3F
F81F
F81F
F81F
F81F
F81F
F81F
F81F
F81F
F81F
F81F
F81F
ENDCHAR
STARTCHAR 01FA
ENCODING 506
SWIDTH 766 0
DWIDTH 23 0
BBX 23 28 0 0
BITMAP
003C3C
00FE38
00C670
01C7E0
01C700
00C700
00FE00
00FF00
01FF00
01FF00
01FF80
03EF80
03EF80
07EFC0
07C7C0
07C7E0
0FC7E0
0F83E0
0F83F0
1F83F0
1FFFF0
1FFFF8
3FFFF8
3FFFF8
7E00FC
7E007C
7C007E
FC007E
ENDCHAR
STARTCHAR 01FB
ENCODING 507
SWIDTH 666 0
DWIDTH 20 0
BBX 20 28 1 0
BITMAP
0000F0
01E1E0
03F3C0
073B80
061800
061800
073800
03F800
01E000
000000
000000
000000
3FF800
3FFE00
3FFF00
201F00
000F80
0FFF80
3FFF80
7FFF80
7E0F80
FC0F80
FC1F80
FC1F80
7C3F80
7FEF80
3FCF80
1F8F80
ENDCHAR
STARTCHAR 01FC
ENCODING 508
SWIDTH 1100 0
DWIDTH 33 0
BBX 30 27 0 0
BITMAP
00001E00
00003C00
00007800
0000E000
00000000
007FFFFC
007FFFFC
00FFFFFC
00FFFFFC
01F9F000
01F1F000
03F1F000
03E1F000
03E1F000
07E1FFF8
07C1FFF8
0FC1FFF8
0FC1FFF8
0FFFF000
1FFFF000
1FFFF000
3FFFF000
3E01F000
7E01FFFC
7E01FFFC
7C01FFFC
FC01FFFC
ENDCHAR
STARTCHAR 01FD
ENCODING 509
SWIDTH 1033 0
DWIDTH 31 0
BBX 29 24 1 0
BITMAP
0003C000
00078000
000F0000
000E0000
001C0000
00380000
00000000
00000000
3FF07F00
3FFDFFC0
3FFFFFE0
201FE3F0
000FC1F0
0FFF81F8
3FFF80F8
7FFFFFF8
7E0FFFF8
FC0FFFF8
FC0F8000
FC1F8010
7C3FE070
7FFBFFF0
3FE1FFF0
0FC07FC0
ENDCHAR
STARTCHAR 01FE
ENCODING 510
SWIDTH 866 0
DWIDTH 26 0
BBX 23 27 1 -1
BITMAP
001E00
003C00
003800
007000
000000
00FF06
07FFCE
0FFFFC
1FFFF8
3F83F8
3F01FC
7E01FC
7E03FE
7E077E
7C0E7E
FC1C7E
FC787E
7CF07E
7FE07E
7FC07E
7F80FC
3F01FC
3F83F8
3FFFF8
7FFFF0
F7FFC0
C0FF00
ENDCHAR
STARTCHAR 01FF
ENCODING 511
SWIDTH 700 0
DWIDTH 21 0
BBX 18 25 1 -1
BITMAP
007800
00F000
01E000
01C000
038000
070000
000000
000080
03F9C0
0FFF80
3FFF80
3F1F80
7E1FC0
7C3FC0
FC77C0
FCE7C0
FDC7C0
FF87C0
7F07C0
7F0FC0
7F1F80
3FFF00
3FFE00
77F800
400000
ENDCHAR
STARTCHAR 0200
ENCODING 512
SWIDTH 766 0
DWIDTH 23 0
BBX 23 27 0 0
BITMAP
07BE00
03CE00
01E700
006380
000000
00FE00
00FF00
01FF00
01FF00
01FF80
03FF80
03EF80
07EFC0
07C7C0
07C7C0
0FC7E0
0F83E0
0F83F0
1F83F0
1FFFF0
1FFFF8
3FFFF8
3FFFF8
7E00FC
7E007C
7C007E
FC007E
ENDCHAR
STARTCHAR 0201
ENCODING 513
SWIDTH 666 0
DWIDTH 20 0
BBX 17 24 1 0
BITMAP
1CE000
1C7000
0E7000
073800
071800
039C00
000000
000000
3FF800
3FFE00
3FFF00
201F00
000F80
0FFF80
3FFF80
7FFF80
7E0F80
FC0F80
FC1F80
FC1F80
7C3F80
7FEF80
3FCF80
1F8F80
ENDCHAR
STARTCHAR 0202
ENCODING 514
SWIDTH 766 0
DWIDTH 23 0
BBX 23 27 0 0
BITMAP
00FE00
01FF00
018300
018380
000000
00FE00
00FF00
01FF00
01FF00
01FF80
03FF80
03EF80
07EFC0
07C7C0
07C7C0
0FC7E0
0F83E0
0F83F0
1F83F0
1FFFF0
1FFFF8
3FFFF8
3FFFF8
7E00FC
7E007C
7C007E
FC007E
ENDCHAR
STARTCHAR 0203
ENCODING 515
SWIDTH 666 0
DWIDTH 20 0
BBX 17 24 1 0
BITMAP
004000
03F800
07FC00
060C00
0E0C00
000000
000000
000000
3FF800
3FFE00
3FFF00
201F00
000F80
0FFF80
3FFF80
7FFF80
7E0F80
FC0F80
FC1F80
FC1F80
7C3F80
7FEF80
3FCF80
1F8F80
ENDCHAR
STARTCHAR 0204
ENCODING 516
SWIDTH 700 0
DWIDTH 21 0
BBX 15 27 3 0
BITMAP
7DE0
1CF0
0E78
0718
0000
FFFE
FFFE
FFFE
FFFE
F800
F800
F800
F800
F800
FFFC
FFFC
FFFC
FFFC
F800
F800
F800
F800
F800
FFFE
FFFE
FFFE
FFFE
ENDCHAR
STARTCHAR 0205
ENCODING 517
SWIDTH 666 0
DWIDTH 20 0
BBX 18 24 1 0
BITMAP
1C7000
0E7000
0E3800
073800
039C00
018C00
000000
000000
03F800
0FFE00
3FFF00
7F1F00
7E0F80
7C0F80
FC0FC0
FFFFC0
FFFFC0
FFFFC0
7C0000
7C0080
7E0380
3FFF80
0FFF80
03FE00
ENDCHAR
STARTCHAR 0206
ENCODING 518
SWIDTH 700 0
DWIDTH 21 0
BBX 15 27 3 0
BITMAP
07E0
0FF0
1C38
1818
0000
FFFE
FFFE
FFFE
FFFE
F800
F800
F800
F800
F800
FFFC
FFFC
FFFC
FFFC
F800
F800
F800
F800
F800
FFFE
FFFE
FFFE
FFFE
ENDCHAR
STARTCHAR 0207
ENCODING 519
SWIDTH 666 0
DWIDTH 20 0
BBX 18 24 1 0
BITMAP
006000
03F800
03FC00
070E00
060600
000000
000000
000000
03F800
0FFE00
3FFF00
7F1F00
7E0F80
7C0F80
FC0FC0
FFFFC0
FFFFC0
FFFFC0
7C0000
7C0080
7E0380
3FFF80
0FFF80
03FE00
ENDCHAR
STARTCHAR 0208
ENCODING 520
SWIDTH 366 0
DWIDTH 11 0
BBX 12 27 -1 0
BITMAP
FBC0
39E0
1CF0
0E70
0000
0F80
0F80
0F80
0F80
0F80
0F80
0F80
0F80
0F80
0F80
0F80
0F80
0F80
0F80
0F80
0F80
0F80
0F80
0F80
0F80
0F80
0F80
ENDCHAR
STARTCHAR 0209
ENCODING 521
SWIDTH 333 0
DWIDTH 10 0
BBX 11 24 0 0
BITMAP
F380
7380
39C0
38C0
1CE0
0C60
0000
0000
1F00
1F00
1F00
1F00
1F00
1F00
1F00
1F00
1F00
1F00
1F00
1F00
1F00
1F00
1F00
1F00
ENDCHAR
STARTCHAR 020A
ENCODING 522
SWIDTH 366 0
DWIDTH 11 0
BBX 10 27 1 0
BITMAP
7F00
FF80
C180
C1C0
0000
3E00
3E00
3E00
3E00
3E00
3E00
3E00
3E00
3E00
3E00
3E00
3E00
3E00
3E00
3E00
3E00
3E00
3E00
3E00
3E00
3E00
3E00
ENDCHAR
STARTCHAR 020B
ENCODING 523
SWIDTH 333 0
DWIDTH 10 0
BBX 10 23 0 1
BITMAP
3F80
7F80
E1C0
C0C0
0000
0000
0000
1F00
1F00
1F00
1F00
1F00
1F00
1F00
1F00
1F00
1F00
1F00
1F00
1F00
1F00
1F00
1F00
ENDCHAR
STARTCHAR 020C
ENCODING 524
SWIDTH 866 0
DWIDTH 26 0
BBX 23 27 1 0
BITMAP
079E00
01CF00
00E700
007380
000000
00FF00
07FFC0
0FFFF0
1FFFF8
3F83F8
3F01FC
7E00FC
7E007E
7E007E
7C007E
FC007E
FC007E
7C007E
7E007E
7E007E
7E00FC
3F01FC
3F83F8
1FFFF8
0FFFF0
07FFC0
00FF00
ENDCHAR
STARTCHAR 020D
ENCODING 525
SWIDTH 700 0
DWIDTH 21 0
BBX 18 24 1 0
BITMAP
1CE000
1E7000
0E7000
073800
031800
039C00
000000
000000
03F800
0FFE00
3FFF00
7F1F80
7E0FC0
7C07C0
FC07C0
FC07C0
FC07C0
FC07C0
7C07C0
7E0FC0
7F1F80
3FFF00
1FFE00
03F800
ENDCHAR
STARTCHAR 020E
ENCODING 526
SWIDTH 866 0
DWIDTH 26 0
BBX 23 27 1 0
BITMAP
00FE00
01FF00
01C300
018180
000000
00FF00
07FFC0
0FFFF0
1FFFF8
3F83F8
3F01FC
7E00FC
7E007E
7E007E
7C007E
FC007E
FC007E
7C007E
7E007E
7E007E
7E00FC
3F01FC
3F83F8
1FFFF8
0FFFF0
07FFC0
00FF00
ENDCHAR
STARTCHAR 020F
ENCODING 527
SWIDTH 700 0
DWIDTH 21 0
BBX 18 24 1 0
BITMAP
004000
03F800
07FC00
060C00
060C00
000000
000000
000000
03F800
0FFE00
3FFF00
7F1F80
7E0FC0
7C07C0
FC07C0
FC07C0
FC07C0
FC07C0
7C07C0
7E0FC0
7F1F80
3FFF00
1FFE00
03F800
ENDCHAR
STARTCHAR 0210
ENCODING 528
SWIDTH 766 0
DWIDTH 23 0
BBX 19 27 3 0
BITMAP
7BE000
3CE000
1E7000
0E3800
000000
FFF000
FFFE00
FFFF00
FFFF00
F83F80
F81F80
F81F80
F81F80
F81F00
F83F00
FFFE00
FFFC00
FFFC00
FFFE00
F87F00
F83F00
F81F80
F81F80
F80FC0
F80FC0
F807E0
F807E0
ENDCHAR
STARTCHAR 0211
ENCODING 529
SWIDTH 500 0
DWIDTH 15 0
BBX 13 24 2 0
BITMAP
E380
7380
39C0
38C0
1CE0
0C60
0000
0000
7C78
7DF8
7FF8
7FF8
7F08
7E00
7C00
7C00
7C00
7C00
7C00
7C00
7C00
7C00
7C00
7C00
ENDCHAR
STARTCHAR 0212
ENCODING 530
SWIDTH 766 0
DWIDTH 23 0
BBX 19 27 3 0
BITMAP
0FC000
1FE000
387000
303000
000000
FFF000
FFFE00
FFFF00
FFFF00
F83F80
F81F80
F81F80
F81F80
F81F00
F83F00
FFFE00
FFFC00
FFFC00
FFFE00
F87F00
F83F00
F81F80
F81F80
F80FC0
F80FC0
F807E0
F807E0
ENDCHAR
STARTCHAR 0213
ENCODING 531
SWIDTH 500 0
DWIDTH 15 0
BBX 12 24 3 0
BITMAP
0600
3F80
3FC0
70E0
6060
0000
0000
0000
F8F0
FBF0
FFF0
FFF0
FE10
FC00
F800
F800
F800
F800
F800
F800
F800
F800
F800
F800
ENDCHAR
STARTCHAR 0214
ENCODING 532
SWIDTH 800 0
DWIDTH 24 0
BBX 19 27 3 0
BITMAP
1E7800
073C00
039C00
01CE00
000000
F807E0
F807E0
F807E0
F807E0
F807E0
F807E0
F807E0
F807E0
F807E0
F807E0
F807E0
F807E0
F807E0
F807E0
F807E0
FC07C0
FC0FC0
7E1FC0
7FFF80
3FFF80
1FFE00
07F800
ENDCHAR
STARTCHAR 0215
ENCODING 533
SWIDTH 700 0
DWIDTH 21 0
BBX 17 24 2 0
BITMAP
39E000
1CE000
1C7000
0E7000
073800
031800
000000
000000
FC0F80
FC0F80
FC0F80
FC0F80
FC0F80
FC0F80
FC0F80
FC0F80
FC0F80
FC1F80
FC1F80
FC1F80
7E3F80
7FEF80
3FCF80
1F8F80
ENDCHAR
STARTCHAR 0216
ENCODING 534
SWIDTH 800 0
DWIDTH 24 0
BBX 19 27 3 0
BITMAP
03F000
07F800
0E1C00
0C0C00
000000
F807E0
F807E0
F807E0
F807E0
F807E0
F807E0
F807E0
F807E0
F807E0
F807E0
F807E0
F807E0
F807E0
F807E0
F807E0
FC07C0
FC0FC0
7E1FC0
7FFF80
3FFF80
1FFE00
07F800
ENDCHAR
STARTCHAR 0217
ENCODING 535
SWIDTH 700 0
DWIDTH 21 0
BBX 17 23 2 1
BITMAP
07F000
0FF800
0E1800
0C1C00
000000
000000
000000
FC0F80
FC0F80
FC0F80
FC0F80
FC0F80
FC0F80
FC0F80
FC0F80
FC0F80
FC1F80
FC1F80
FC1F80
7E3F80
7FEF80
3FCF80
1F8F80
ENDCHAR
STARTCHAR 0218
ENCODING 536
SWIDTH 733 0
DWIDTH 22 0
BBX 17 29 2 -7
BITMAP
07F800
1FFF00
7FFF00
7FFF00
FE0F00
F80100
F80000
FC0000
FF0000
7FF000
7FFE00
1FFF00
07FF80
007F80
001F80
000F80
800F80
F01F80
FFFF80
FFFF00
FFFE00
0FF800
000000
000000
000000
03E000
03C000
038000
070000
ENDCHAR
STARTCHAR 0219
ENCODING 537
SWIDTH 600 0
DWIDTH 18 0
BBX 14 23 2 -7
BITMAP
1FE0
7FF8
FFF8
F838
F008
F800
FF00
FFF0
3FFC
03FC
007C
807C
E07C
FFFC
FFF8
3FE0
0000
0000
0000
0780
0780
0F00
0E00
ENDCHAR
STARTCHAR 021A
ENCODING 538
SWIDTH 666 0
DWIDTH 20 0
BBX 20 29 0 -7
BITMAP
FFFFF0
FFFFF0
FFFFF0
FFFFF0
01F800
01F800
01F800
01F800
01F800
01F800
01F800
01F800
01F800
01F800
01F800
01F800
01F800
01F800
01F800
01F800
01F800
01F800
000000
000000
000000
00F000
01E000
01C000
01C000
ENDCHAR
STARTCHAR 021B
ENCODING 539
SWIDTH 466 0
DWIDTH 14 0
BBX 14 28 0 -7
BITMAP
1F00
1F00
1F00
1F00
1F00
FFFC
FFFC
FFFC
1F00
1F00
1F00
1F00
1F00
1F00
1F00
1F00
1F00
1F80
1FF8
0FF8
07F8
0000
0000
0000
07C0
0780
0700
0E00
ENDCHAR
STARTCHAR 021C
ENCODING 540
SWIDTH 700 0
DWIDTH 21 0
BBX 16 28 2 -6
BITMAP
0FF0
3FFC
7FFE
7FFE
603F
403F
003F
003F
003E
007E
01FC
07F8
1FF8
1FFE
1FFE
183F
003F
001F
003F
003F
007F
01FE
07FC
3FF8
FFE0
FF80
FC00
E000
ENDCHAR
STARTCHAR 021D
ENCODING 541
SWIDTH 600 0
DWIDTH 18 0
BBX 15 23 1 -6
BITMAP
03E0
3FF8
7FFC
7CFE
607E
003E
003E
007C
00F8
03F0
1FF0
1FFC
1CFE
003E
003E
003E
007E
00FC
03F8
3FF0
FFC0
FF00
F000
ENDCHAR
STARTCHAR 021E
ENCODING 542
SWIDTH 833 0
DWIDTH 25 0
BBX 19 27 3 0
BITMAP
0E0E00
071C00
03F800
01F000
000000
F803E0
F803E0
F803E0
F803E0
F803E0
F803E0
F803E0
F803E0
F803E0
FFFFE0
FFFFE0
FFFFE0
FFFFE0
F803E0
F803E0
F803E0
F803E0
F803E0
F803E0
F803E0
F803E0
F803E0
ENDCHAR
STARTCHAR 021F
ENCODING 543
SWIDTH 700 0
DWIDTH 21 0
BBX 19 27 0 0
BITMAP
E1C000
738000
3F8000
1F0000
1F0000
1F0000
1F0000
1F0000
1F0000
1F0000
1F0000
1F1F00
1F7FC0
1FFFC0
1FC7E0
1F87E0
1F03E0
1F03E0
1F03E0
1F03E0
1F03E0
1F03E0
1F03E0
1F03E0
1F03E0
1F03E0
1F03E0
ENDCHAR
STARTCHAR 0220
ENCODING 544
SWIDTH 833 0
DWIDTH 25 0
BBX 19 28 3 -6
BITMAP
F87E00
F9FF00
FBFF80
FFFFC0
FF0FC0
FC07E0
FC07E0
F807E0
F803E0
F803E0
F803E0
F803E0
F803E0
F803E0
F803E0
F803E0
F803E0
F803E0
F803E0
F803E0
F803E0
F803E0
0003E0
0003E0
0003E0
0003E0
0003E0
0003E0
ENDCHAR
STARTCHAR 0221
ENCODING 545
SWIDTH 866 0
DWIDTH 26 0
BBX 24 25 1 -2
BITMAP
0007C0
0007C0
0007C0
0007C0
0007C0
0007C0
0787C0
1FE7C0
3FF7C0
3FFFC0
7E1FC0
7E0FC0
7C0FC0
FC07C0
FC07DC
FC07FE
FC07FE
7C0FFF
7E0FE7
7FBFEF
3FFFFE
1FFFFE
0FFBFC
000380
000300
ENDCHAR
STARTCHAR 0222
ENCODING 546
SWIDTH 800 0
DWIDTH 24 0
BBX 20 22 2 0
BITMAP
001F00
001FC0
078FE0
3F83F0
7E01F0
FC01F0
FC01F0
7C03E0
7F0FE0
1FFF80
07FF00
3FFFC0
7F0FE0
FC03F0
F801F0
F801F0
F801F0
FC03F0
FF07F0
7FFFE0
3FFFC0
0FFF00
ENDCHAR
STARTCHAR 0223
ENCODING 547
SWIDTH 666 0
DWIDTH 20 0
BBX 17 19 1 0
BITMAP
700780
7C1F80
7C0F80
7C0F80
7C1F80
3F3F00
1FFE00
0FF800
3FFE00
7E3F00
7C0F80
FC0F80
FC0F80
FC0F80
FC0F80
7E1F80
7FFF80
3FFF00
0FFC00
ENDCHAR
STARTCHAR 0224
ENCODING 548
SWIDTH 733 0
DWIDTH 22 0
BBX 19 28 1 -6
BITMAP
7FFFE0
7FFFE0
7FFFE0
7FFFE0
000FC0
001F80
003F80
007F00
007E00
00FC00
01F800
03F800
07F000
07E000
0FC000
1F8000
3F0000
7F0000
FFFFE0
FFFFE0
FFFFE0
FFFFE0
0003E0
0003E0
0007E0
007FE0
007FC0
007F80
ENDCHAR
STARTCHAR 0225
ENCODING 549
SWIDTH 566 0
DWIDTH 17 0
BBX 15 22 1 -6
BITMAP
7FFE
7FFE
7FFE
007E
00FC
01F8
03F0
07E0
0FC0
1F80
3F00
7E00
FFFE
FFFE
FFFE
FFFE
003E
003E
007E
07FC
07FC
07F8
ENDCHAR
STARTCHAR 0226
ENCODING 550
SWIDTH 766 0
DWIDTH 23 0
BBX 23 28 0 0
BITMAP
003C00
003C00
003C00
003C00
000000
000000
00FE00
00FF00
01FF00
01FF00
01FF80
03FF80
03EF80
07EFC0
07C7C0
07C7C0
0FC7E0
0F83E0
0F83F0
1F83F0
1FFFF0
1FFFF8
3FFFF8
3FFFF8
7E00FC
7E007C
7C007E
FC007E
ENDCHAR
STARTCHAR 0227
ENCODING 551
SWIDTH 666 0
DWIDTH 20 0
BBX 17 25 1 0
BITMAP
01F000
01F000
01F000
01F000
01F000
01F000
000000
000000
000000
3FF800
3FFE00
3FFF00
201F00
000F80
0FFF80
3FFF80
7FFF80
7E0F80
FC0F80
FC1F80
FC1F80
7C3F80
7FEF80
3FCF80
1F8F80
ENDCHAR
STARTCHAR 0228
ENCODING 552
SWIDTH 700 0
DWIDTH 21 0
BBX 15 28 3 -6
BITMAP
FFFE
FFFE
FFFE
FFFE
F800
F800
F800
F800
F800
FFFC
FFFC
FFFC
FFFC
F800
F800
F800
F800
F800
FFFE
FFFE
FFFE
FFFE
0300
0180
0180
0180
1F80
1F00
ENDCHAR
STARTCHAR 0229
ENCODING 553
SWIDTH 666 0
DWIDTH 20 0
BBX 18 22 1 -6
BITMAP
03F800
0FFE00
3FFF00
7F1F00
7E0F80
7C0F80
FC0FC0
FFFFC0
FFFFC0
FFFFC0
7C0000
7C0080
7E0380
3FFF80
0FFF80
03FE00
00C000
006000
006000
007000
07E000
07C000
ENDCHAR
STARTCHAR 022A
ENCODING 554
SWIDTH 866 0
DWIDTH 26 0
BBX 23 31 1 0
BITMAP
01FF00
01FF00
01FF00
01C700
01C700
01C700
01C700
000000
000000
00FF00
07FFC0
0FFFF0
1FFFF8
3F83F8
3F01FC
7E00FC
7E007E
7E007E
7C007E
FC007E
FC007E
7C007E
7E007E
7E007E
7E00FC
3F01FC
3F83F8
1FFFF8
0FFFF0
07FFC0
00FF00
ENDCHAR
STARTCHAR 022B
ENCODING 555
SWIDTH 700 0
DWIDTH 21 0
BBX 18 28 1 0
BITMAP
07FC00
07FC00
07FC00
000000
000000
073C00
073C00
073C00
073C00
000000
000000
000000
03F800
0FFE00
3FFF00
7F1F80
7E0FC0
7C07C0
FC07C0
FC07C0
FC07C0
FC07C0
7C07C0
7E0FC0
7F1F80
3FFF00
1FFE00
03F800
ENDCHAR
STARTCHAR 022C
ENCODING 556
SWIDTH 866 0
DWIDTH 26 0
BBX 23 31 1 0
BITMAP
01FF00
01FF00
01FF00
000000
00E180
01FB80
019F00
018F00
000000
00FF00
07FFC0
0FFFF0
1FFFF8
3F83F8
3F01FC
7E00FC
7E007E
7E007E
7C007E
FC007E
FC007E
7C007E
7E007E
7E007E
7E00FC
3F01FC
3F83F8
1FFFF8
0FFFF0
07FFC0
00FF00
ENDCHAR
STARTCHAR 022D
ENCODING 557
SWIDTH 700 0
DWIDTH 21 0
BBX 18 27 1 0
BITMAP
07FC00
07FC00
07FC00
000000
038C00
07CC00
0EFC00
0C3800
000000
000000
000000
03F800
0FFE00
3FFF00
7F1F80
7E0FC0
7C07C0
FC07C0
FC07C0
FC07C0
FC07C0
7C07C0
7E0FC0
7F1F80
3FFF00
1FFE00
03F800
ENDCHAR
STARTCHAR 022E
ENCODING 558
SWIDTH 866 0
DWIDTH 26 0
BBX 23 28 1 0
BITMAP
003C00
003C00
003C00
003C00
000000
000000
00FF00
07FFC0
0FFFF0
1FFFF8
3F83F8
3F01FC
7E00FC
7E007E
7E007E
7C007E
FC007E
FC007E
7C007E
7E007E
7E007E
7E00FC
3F01FC
3F83F8
1FFFF8
0FFFF0
07FFC0
00FF00
ENDCHAR
STARTCHAR 022F
ENCODING 559
SWIDTH 700 0
DWIDTH 21 0
BBX 18 25 1 0
BITMAP
01F000
01F000
01F000
01F000
01F000
01F000
000000
000000
000000
03F800
0FFE00
3FFF00
7F1F80
7E0FC0
7C07C0
FC07C0
FC07C0
FC07C0
FC07C0
7C07C0
7E0FC0
7F1F80
3FFF00
1FFE00
03F800
ENDCHAR
STARTCHAR 0230
ENCODING 560
SWIDTH 866 0
DWIDTH 26 0
BBX 23 31 1 0
BITMAP
01FF80
01FF80
01FF80
003C00
003C00
003C00
003C00
000000
000000
00FF00
07FFC0
0FFFF0
1FFFF8
3F83F8
3F01FC
7E00FC
7E007E
7E007E
7C007E
FC007E
FC007E
7C007E
7E007E
7E007E
7E00FC
3F01FC
3F83F8
1FFFF8
0FFFF0
07FFC0
00FF00
ENDCHAR
STARTCHAR 0231
ENCODING 561
SWIDTH 700 0
DWIDTH 21 0
BBX 18 28 1 0
BITMAP
07FC00
07FC00
07FC00
01F000
01F000
01F000
01F000
01F000
01F000
000000
000000
000000
03F800
0FFE00
3FFF00
7F1F80
7E0FC0
7C07C0
FC07C0
FC07C0
FC07C0
FC07C0
7C07C0
7E0FC0
7F1F80
3FFF00
1FFE00
03F800
ENDCHAR
STARTCHAR 0232
ENCODING 562
SWIDTH 733 0
DWIDTH 22 0
BBX 22 28 0 0
BITMAP
03FE00
03FE00
03FE00
000000
000000
000000
FC00FC
7E01F8
7E03F0
3F03F0
1F87E0
1F8FC0
0FCFC0
07FF80
07FF00
03FF00
01FE00
01FE00
00FC00
00FC00
00FC00
00FC00
00FC00
00FC00
00FC00
00FC00
00FC00
00FC00
ENDCHAR
STARTCHAR 0233
ENCODING 563
SWIDTH 666 0
DWIDTH 20 0
BBX 18 29 1 -6
BITMAP
0FF800
0FF800
0FF800
000000
000000
000000
000000
F807C0
F80F80
FC0F80
7C0F80
7C1F00
3E1F00
3E1E00
1F3E00
1F3E00
0F7C00
0FFC00
0FF800
07F800
07F800
03F000
03F000
01F000
03E000
03E000
3FC000
3F8000
3F0000
ENDCHAR
STARTCHAR 0234
ENCODING 564
SWIDTH 500 0
DWIDTH 15 0
BBX 10 25 3 -2
BITMAP
F800
F800
F800
F800
F800
F800
F800
F800
F800
F800
F800
F800
F800
F800
FB80
FFC0
FFC0
FFC0
FCC0
FDC0
FFC0
7FC0
7F80
E000
6000
ENDCHAR
STARTCHAR 0235
ENCODING 565
SWIDTH 866 0
DWIDTH 26 0
BBX 22 19 3 -2
BITMAP
00F000
FBFC00
FFFE00
FFFE00
FE3F00
FC3F00
F81F00
F81F00
F81F70
F81FF8
F81FFC
F81FFC
F81FCC
F81FBC
F80FF8
F80FF8
F80FF0
000E00
000C00
ENDCHAR
STARTCHAR 0236
ENCODING 566
SWIDTH 500 0
DWIDTH 15 0
BBX 14 23 0 -2
BITMAP
1F00
1F00
1F00
1F00
1F00
FFFC
FFFC
FFFC
1F00
1F00
1F00
1F00
1F38
1FFC
1FFC
1FFC
1FCC
1FFC
0FFC
0FF8
0FF0
0E00
0E00
ENDCHAR
STARTCHAR 0237
ENCODING 567
SWIDTH 333 0
DWIDTH 10 0
BBX 9 22 -1 -6
BITMAP
0F80
0F80
0F80
0F80
0F80
0F80
0F80
0F80
0F80
0F80
0F80
0F80
0F80
0F80
0F80
0F80
1F80
1F80
1F00
FF00
FE00
F800
ENDCHAR
STARTCHAR 0238
ENCODING 568
SWIDTH 1100 0
DWIDTH 33 0
BBX 30 23 1 0
BITMAP
0007C000
0007C000
0007C000
0007C000
0007C000
0007C000
0787C780
1FE7DFE0
3FF7FFF0
3FFFFFF8
7E1FF1F8
7E0FE0FC
7C0FC07C
FC07C07C
FC07C07C
FC07C07C
FC07C07C
7C0FC0FC
7E0FE0FC
7FBFFBF8
3FFFFFF8
1FF7DFF0
0FE7CFE0
ENDCHAR
STARTCHAR 0239
ENCODING 569
SWIDTH 1100 0
DWIDTH 33 0
BBX 30 23 1 -6
BITMAP
07800780
1FE7DFE0
3FF7FFF0
3FFFFFF8
7E1FF1F8
7E0FE0FC
7C0FC07C
FC07C07C
FC07C07C
FC07C07C
FC07C07C
7C0FC0FC
7E0FE0FC
7FBFFBF8
3FFFFFF8
1FF7DFF0
0FE7CFE0
0007C000
0007C000
0007C000
0007C000
0007C000
0007C000
ENDCHAR
STARTCHAR 023A
ENCODING 570
SWIDTH 766 0
DWIDTH 23 0
BBX 23 23 0 0
BITMAP
00FE06
00FE0E
01FF1C
01FF38
01FFF0
03FFE0
03EFC0
03EFC0
07E7C0
07CFC0
0FDFE0
0FBBE0
0FF3F0
1FE3F0
1FFFF0
1FFFF8
3FFFF8
3FFFF8
7E00FC
7E007C
7C007E
FC007E
400000
ENDCHAR
STARTCHAR 023B
ENCODING 571
SWIDTH 733 0
DWIDTH 22 0
BBX 24 24 -1 -1
BITMAP
000002
007FE7
01FFFE
03FFFC
07FFF8
0FF078
0FC0E8
1F81C0
1F8380
1F8700
1F0E00
3F1C00
3F3800
1F7000
1FE000
1FC000
1F8000
0FC000
0FE018
1FFFF8
3BFFF8
71FFF8
E07FF0
400000
ENDCHAR
STARTCHAR 023C
ENCODING 572
SWIDTH 600 0
DWIDTH 18 0
BBX 18 19 0 -1
BITMAP
000080
00FDC0
07FF80
0FFF00
1FFF00
3F9F00
3F3800
3E3800
7E7000
7EE000
7FC000
7F8000
3F0000
3F0100
3FCF00
3FFF00
7FFF00
E3FF00
C00000
ENDCHAR
STARTCHAR 023D
ENCODING 573
SWIDTH 633 0
DWIDTH 19 0
BBX 18 22 0 0
BITMAP
1F0000
1F0000
1F0000
1F0000
1F0000
1F0000
1F0000
1F0000
1F0000
FFE000
FFE000
FFE000
FFE000
1F0000
1F0000
1F0000
1F0000
1F0000
1FFFC0
1FFFC0
1FFFC0
1FFFC0
ENDCHAR
STARTCHAR 023E
ENCODING 574
SWIDTH 666 0
DWIDTH 20 0
BBX 24 24 -2 -1
BITMAP
000002
3FFFFF
3FFFFE
3FFFFC
3FFFFC
007E70
007EE0
007FC0
007F80
007F00
007E00
007E00
007E00
007E00
00FE00
01FE00
03FE00
077E00
0E7E00
1C7E00
387E00
707E00
E07E00
400000
ENDCHAR
STARTCHAR 023F
ENCODING 575
SWIDTH 600 0
DWIDTH 18 0
BBX 16 24 2 -7
BITMAP
0FC0
7FF8
FFF8
FFF8
F008
F000
FC00
FFE0
7FF8
3FFC
03FC
007C
007C
E07C
FFFC
FFF8
FFF0
3E00
1F80
0FC0
03F0
01FF
00FF
003F
ENDCHAR
STARTCHAR 0240
ENCODING 576
SWIDTH 566 0
DWIDTH 17 0
BBX 17 23 1 -7
BITMAP
7FFE00
7FFE00
7FFE00
007E00
00FC00
01F800
03F000
07E000
0FC000
1F8000
3F0000
7E0000
FC0000
F80000
FC0000
FE0000
3F0000
0FC000
07E000
01F800
00FF80
007F80
001F80
ENDCHAR
STARTCHAR 0241
ENCODING 577
SWIDTH 766 0
DWIDTH 23 0
BBX 21 22 1 0
BITMAP
1FFF00
7FFFC0
7FFFF0
FFFFF0
F803F8
F001F8
0001F8
0001F8
0001F8
0001F8
03FFF8
03FFF0
03FFE0
03FFC0
03F000
03F000
03F000
03F000
03F000
03F000
03F000
03F000
ENDCHAR
STARTCHAR 0242
ENCODING 578
SWIDTH 600 0
DWIDTH 18 0
BBX 16 17 1 0
BITMAP
0FC0
3FF8
7FFC
7FFE
FCFF
F83F
F83F
003F
003F
003F
0FFF
0FFE
0FFC
0FF8
0FC0
0FC0
0FC0
ENDCHAR
STARTCHAR 0243
ENCODING 579
SWIDTH 766 0
DWIDTH 23 0
BBX 21 22 0 0
BITMAP
1FFF00
1FFFC0
1FFFE0
1FFFE0
1F07F0
1F03F0
1F03F0
1F03F0
1F07E0
1FFFE0
1FFF80
1FFFE0
1FFFF0
1F03F0
FFF1F8
FFF1F8
FFF1F8
1F03F8
1FFFF0
1FFFF0
1FFFE0
1FFF00
ENDCHAR
STARTCHAR 0244
ENCODING 580
SWIDTH 800 0
DWIDTH 24 0
BBX 23 22 1 0
BITMAP
3E01F8
3E01F8
3E01F8
3E01F8
3E01F8
3E01F8
3E01F8
3E01F8
FFFFFE
FFFFFE
FFFFFE
3E01F8
3E01F8
3E01F8
3F01F0
3F01F0
3F03F0
1F87F0
1FFFE0
0FFFC0
07FF80
01FE00
ENDCHAR
STARTCHAR 0245
ENCODING 581
SWIDTH 766 0
DWIDTH 23 0
BBX 23 22 0 0
BITMAP
00FE00
00FF00
01FF00
01FF00
01FF80
03EF80
03EF80
07EFC0
07C7C0
07C7C0
0FC7E0
0F83E0
0F83F0
1F83F0
1F01F0
1F01F8
3F00F8
3E00F8
7E00FC
7E007C
7C007E
FC007E
ENDCHAR
STARTCHAR 0246
ENCODING 582
SWIDTH 700 0
DWIDTH 21 0
BBX 15 28 3 -3
BITMAP
000E
000C
000C
FFFE
FFFE
FFFE
FFFE
F838
F830
F870
F870
FFFC
FFFC
FFFC
FFFC
FFFC
F9C0
F9C0
F980
FB80
FB80
FFFE
FFFE
FFFE
FFFE
0600
0E00
0E00
ENDCHAR
STARTCHAR 0247
ENCODING 583
SWIDTH 666 0
DWIDTH 20 0
BBX 18 22 1 -3
BITMAP
000700
000600
01FE00
0FFC00
1FFF00
3FFF00
7E3F80
7C3F80
7C7FC0
FFFFC0
FFFFC0
FFFFC0
FDC000
7F8000
7F8080
7F0780
3FFF80
1FFF80
0FFF00
1C0000
1C0000
380000
ENDCHAR
STARTCHAR 0248
ENCODING 584
SWIDTH 366 0
DWIDTH 11 0
BBX 13 28 -2 -6
BITMAP
07C0
07C0
07C0
07C0
07C0
07C0
07C0
07C0
07C0
07C0
3FF8
3FF8
3FF8
3FF8
07C0
07C0
07C0
07C0
07C0
07C0
07C0
07C0
0FC0
1FC0
FF80
FF80
FF00
F800
ENDCHAR
STARTCHAR 0249
ENCODING 585
SWIDTH 333 0
DWIDTH 10 0
BBX 12 29 -1 -6
BITMAP
0F80
0F80
0F80
0F80
0F80
0000
0000
0F80
0F80
0F80
0F80
0F80
0F80
0F80
FFF0
FFF0
FFF0
0F80
0F80
0F80
0F80
0F80
0F80
1F80
1F80
1F00
FF00
FE00
F800
ENDCHAR
STARTCHAR 024A
ENCODING 586
SWIDTH 866 0
DWIDTH 26 0
BBX 27 28 1 -6
BITMAP
03F87C00
0FFE7C00
1FFF7C00
1FFFFC00
3F83FC00
7F01FC00
7E00FC00
7E00FC00
7E00FC00
FC007C00
FC007C00
FC007C00
FC007C00
7C007C00
7E00FC00
7E00FC00
7F01FC00
3F83FC00
3FFFFC00
1FFF7C00
0FFE7C00
03FC7C00
00007E00
00007F00
00003FE0
00003FE0
00000FE0
000003E0
ENDCHAR
STARTCHAR 024B
ENCODING 587
SWIDTH 800 0
DWIDTH 24 0
BBX 23 23 1 -6
BITMAP
078000
1FE7C0
3FF7C0
3FFFC0
7E1FC0
7E0FC0
7C0FC0
FC07C0
FC07C0
FC07C0
FC07C0
7C0FC0
7E0FC0
7FBFC0
3FFFC0
1FF7C0
0FE7C0
0007C0
0007C0
0007E0
0007FE
0003FE
0001FE
ENDCHAR
STARTCHAR 024C
ENCODING 588
SWIDTH 766 0
DWIDTH 23 0
BBX 22 22 0 0
BITMAP
1FFE00
1FFFC0
1FFFE0
1FFFE0
1F07F0
1F03F0
1F03F0
1F03F0
1F03E0
1F07E0
FFFFC0
FFFF80
FFFF80
FFFFC0
1F0FE0
1F07E0
1F03F0
1F03F0
1F01F8
1F01F8
1F00FC
1F00FC
ENDCHAR
STARTCHAR 024D
ENCODING 589
SWIDTH 500 0
DWIDTH 15 0
BBX 16 16 -1 0
BITMAP
0F8F
0FBF
0FFF
0FFF
0FE1
0FC0
0F80
FFF0
FFF0
FFF0
0F80
0F80
0F80
0F80
0F80
0F80
ENDCHAR
STARTCHAR 024E
ENCODING 590
SWIDTH 733 0
DWIDTH 22 0
BBX 22 22 0 0
BITMAP
FC00FC
7E01F8
7E03F0
FFFFFC
FFFFFC
FFFFFC
0FCFC0
07FF80
07FF80
03FF00
01FE00
01FE00
00FC00
00FC00
00FC00
00FC00
00FC00
00FC00
00FC00
00FC00
00FC00
00FC00
ENDCHAR
STARTCHAR 024F
ENCODING 591
SWIDTH 666 0
DWIDTH 20 0
BBX 20 22 0 -6
BITMAP
7C07E0
7C07C0
3E07C0
3E0FC0
3F0F80
1F0F80
FFFFF0
FFFFF0
FFFFF0
07FE00
07FE00
07FC00
03FC00
03FC00
01F800
01F800
00F800
01F000
01F000
1FE000
1FE000
1FC000
ENDCHAR
STARTCHAR 0250
ENCODING 592
SWIDTH 666 0
DWIDTH 20 0
BBX 17 16 2 0
BITMAP
FCFC00
FDFE00
FFFF00
FE1F80
FC0F80
FC0F80
FC1F80
FC1F80
FFFF00
FFFE00
FFF800
FC0000
7C0300
7FFF00
3FFF00
0FFF00
ENDCHAR
STARTCHAR 0251
ENCODING 593
SWIDTH 700 0
DWIDTH 21 0
BBX 18 16 1 0
BITMAP
07C7C0
1FE7C0
3FF7C0
7E1FC0
7E0FC0
7C0FC0
FC07C0
FC07C0
FC07C0
FC07C0
7C0FC0
7E0FC0
7E1FC0
3FF7C0
1FE7C0
07C7C0
ENDCHAR
STARTCHAR 0252
ENCODING 594
SWIDTH 700 0
DWIDTH 21 0
BBX 17 16 3 0
BITMAP
F8F800
FBFC00
FFFE00
FC3F00
FC1F80
F81F80
F80F80
F80F80
F80F80
F80F80
F81F80
FC1F80
FC3F00
FFFE00
FBFC00
F8F800
ENDCHAR
STARTCHAR 0253
ENCODING 595
SWIDTH 700 0
DWIDTH 21 0
BBX 17 23 3 0
BITMAP
1FC000
7FC000
7FC000
FC0000
F80000
F80000
F80000
F8F800
FBFC00
FFFE00
FC3F00
FC1F80
F81F80
F80F80
F80F80
F80F80
F80F80
F81F80
FC1F80
FC3F00
FFFE00
FBFC00
F8F800
ENDCHAR
STARTCHAR 0254
ENCODING 596
SWIDTH 600 0
DWIDTH 18 0
BBX 15 16 1 0
BITMAP
1F80
7FE0
FFF8
E1FC
C0FC
807C
007E
007E
007E
007E
807C
80FC
E1FC
FFF8
7FE0
1F80
ENDCHAR
STARTCHAR 0255
ENCODING 597
SWIDTH 600 0
DWIDTH 18 0
BBX 15 18 1 -2
BITMAP
03F8
0FFE
3FFE
3F06
7E02
7C00
FC00
FC00
FCF8
FDFC
7DFE
7F8E
7F8E
3FFC
1FFC
07F0
0380
0380
ENDCHAR
STARTCHAR 0256
ENCODING 598
SWIDTH 733 0
DWIDTH 22 0
BBX 22 29 1 -6
BITMAP
0007C0
0007C0
0007C0
0007C0
0007C0
0007C0
0007C0
07C7C0
1FE7C0
3FF7C0
7E1FC0
7E0FC0
7C0FC0
FC07C0
FC07C0
FC07C0
FC07C0
7C0FC0
7E0FC0
7E1FC0
3FF7C0
1FE7C0
07C7C0
0007C0
0007C0
0007E0
0003FC
0001FC
0000FC
ENDCHAR
STARTCHAR 0257
ENCODING 599
SWIDTH 800 0
DWIDTH 24 0
BBX 23 23 1 0
BITMAP
0000FE
0001FE
0003FE
0007E0
0007C0
0007C0
0007C0
07C7C0
1FE7C0
3FF7C0
7E1FC0
7E0FC0
7C0FC0
FC07C0
FC07C0
FC07C0
FC07C0
7C0FC0
7E0FC0
7E1FC0
3FF7C0
1FE7C0
07C7C0
ENDCHAR
STARTCHAR 0258
ENCODING 600
SWIDTH 666 0
DWIDTH 20 0
BBX 18 17 1 0
BITMAP
03F000
0FFC00
1FFE00
3FFF00
7E1F80
7C0F80
FC0FC0
FFFFC0
FFFFC0
FFFFC0
000FC0
000FC0
400F80
783F80
7FFF00
7FFE00
1FF800
ENDCHAR
STARTCHAR 0259
ENCODING 601
SWIDTH 666 0
DWIDTH 20 0
BBX 18 16 1 0
BITMAP
1FF000
7FFE00
7FFF00
781F80
400F80
000FC0
FFFFC0
FFFFC0
FFFFC0
FC0FC0
7C0FC0
7C0F80
3E1F80
3FFF00
0FFE00
07F800
ENDCHAR
STARTCHAR 025A
ENCODING 602
SWIDTH 866 0
DWIDTH 26 0
BBX 25 17 2 0
BITMAP
0FC00000
FFF83800
FFFCF800
FFFFF800
E03FF800
001FF800
007FBC00
00FF9C00
03FF9F80
0FFF8F80
1F9F8180
7E1F8000
FC1F0000
FC3F0000
7FFE0000
3FFC0000
1FF80000
ENDCHAR
STARTCHAR 025B
ENCODING 603
SWIDTH 566 0
DWIDTH 17 0
BBX 13 16 2 0
BITMAP
1F80
7FE0
FFF0
FC70
F810
F800
7FC0
1FC0
7FC0
FC00
F008
F018
FC38
FFF8
7FF0
1FC0
ENDCHAR
STARTCHAR 025C
ENCODING 604
SWIDTH 533 0
DWIDTH 16 0
BBX 13 17 2 0
BITMAP
3F80
FFE0
FFF0
FFF0
01F0
01F0
03F0
1FE0
1FC0
1FF0
01F0
00F8
00F8
81F8
FFF0
FFF0
FFC0
ENDCHAR
STARTCHAR 025D
ENCODING 605
SWIDTH 800 0
DWIDTH 24 0
BBX 21 17 2 0
BITMAP
3F8000
FFE1C0
FFF7C0
FFFFC0
01FFC0
01FDC0
03F9C0
1FE1E0
1FC0F8
1FF0F8
01F018
00F800
00F800
81F800
FFF000
FFF000
FFC000
ENDCHAR
STARTCHAR 025E
ENCODING 606
SWIDTH 733 0
DWIDTH 22 0
BBX 18 17 2 0
BITMAP
01FC00
0FFF00
3FFF80
7FFF80
7E0FC0
FC0780
F81F80
F8FF00
F8FE00
F8FF80
F80FC0
FC07C0
FC07C0
7E0FC0
7FFF80
3FFF80
0FFE00
ENDCHAR
STARTCHAR 025F
ENCODING 607
SWIDTH 333 0
DWIDTH 10 0
BBX 12 22 -1 -6
BITMAP
0F80
0F80
0F80
0F80
0F80
0F80
0F80
FFF0
FFF0
FFF0
0F80
0F80
0F80
0F80
0F80
0F80
1F80
1F80
1F00
FF00
FE00
FC00
ENDCHAR
STARTCHAR 0260
ENCODING 608
SWIDTH 800 0
DWIDTH 24 0
BBX 23 29 1 -6
BITMAP
0000FE
0001FE
0003FE
0007E0
0007C0
0007C0
0007C0
07C7C0
1FE7C0
3FF7C0
7F1FC0
7E0FC0
7C0FC0
FC07C0
FC07C0
FC07C0
FC07C0
7C0FC0
7E0FC0
7E1FC0
3FF7C0
1FE7C0
07C7C0
000FC0
200F80
383F80
3FFF00
3FFE00
0FF000
ENDCHAR
STARTCHAR 0261
ENCODING 609
SWIDTH 700 0
DWIDTH 21 0
BBX 18 22 1 -6
BITMAP
0FFFC0
1FFFC0
3FFFC0
7E07C0
7C07C0
7C07C0
FC07C0
FC07C0
FC07C0
FC0FC0
7C0FC0
7E1FC0
3FFFC0
3FF7C0
1FF7C0
07C7C0
000FC0
000F80
383F80
3FFF00
3FFE00
3FFC00
ENDCHAR
STARTCHAR 0262
ENCODING 610
SWIDTH 633 0
DWIDTH 19 0
BBX 15 16 1 0
BITMAP
07FC
1FFE
3FFE
7E06
7800
7800
F800
F9FE
F9FE
F9FE
781E
781E
7C1E
3FFE
1FFE
0FFC
ENDCHAR
STARTCHAR 0263
ENCODING 611
SWIDTH 633 0
DWIDTH 19 0
BBX 17 22 1 -6
BITMAP
FC0F80
7C1F80
7E1F00
3E3F00
3E3E00
1F7E00
1F7C00
0FF800
0FF800
07F000
07F000
07F000
07F800
0FF800
0FFC00
1F7C00
1F7C00
1F7C00
1F7C00
1FFC00
0FF800
03F000
ENDCHAR
STARTCHAR 0264
ENCODING 612
SWIDTH 633 0
DWIDTH 19 0
BBX 17 17 1 -1
BITMAP
FC1F80
7E1F00
3F3E00
1F7E00
0FFC00
0FF800
07F000
07F000
0FF800
0FFC00
1F7C00
1F7C00
1F7C00
1FFC00
1FFC00
0FF800
01E000
ENDCHAR
STARTCHAR 0265
ENCODING 613
SWIDTH 700 0
DWIDTH 21 0
BBX 17 22 2 -6
BITMAP
FC0F80
FC0F80
FC0F80
FC0F80
FC0F80
FC0F80
FC0F80
FC0F80
FC0F80
FC1F80
FC1F80
FC1F80
7E3F80
7FEF80
3FCF80
1F8F80
000F80
000F80
000F80
000F80
000F80
000F80
ENDCHAR
STARTCHAR 0266
ENCODING 614
SWIDTH 700 0
DWIDTH 21 0
BBX 16 23 3 0
BITMAP
1FC0
3FC0
7FC0
FFC0
F800
F800
F8F0
FBFC
FFFE
FFFE
FE3F
FC3F
F81F
F81F
F81F
F81F
F81F
F81F
F81F
F81F
F81F
F81F
F81F
ENDCHAR
STARTCHAR 0267
ENCODING 615
SWIDTH 700 0
DWIDTH 21 0
BBX 16 29 3 -6
BITMAP
1FC0
3FC0
7FC0
FFC0
F800
F800
F8F0
FBFC
FFFE
FFFE
FE3F
FC3F
F81F
F81F
F81F
F81F
F81F
F81F
F81F
F81F
F81F
F81F
F81F
001F
001F
003F
03FE
03FE
03FC
ENDCHAR
STARTCHAR 0268
ENCODING 616
SWIDTH 533 0
DWIDTH 16 0
BBX 11 23 3 0
BITMAP
1F00
1F00
1F00
1F00
1F00
0000
0000
1F00
1F00
1F00
1F00
1F00
1F00
1F00
FFE0
FFE0
FFE0
1F00
1F00
1F00
1F00
1F00
1F00
ENDCHAR
STARTCHAR 0269
ENCODING 617
SWIDTH 433 0
DWIDTH 13 0
BBX 9 16 2 0
BITMAP
FC00
FC00
FC00
FC00
FC00
FC00
FC00
FC00
FC00
FC00
FC00
7C00
7C00
7F80
3F80
0F80
ENDCHAR
STARTCHAR 026A
ENCODING 618
SWIDTH 533 0
DWIDTH 16 0
BBX 11 16 3 0
BITMAP
FFE0
FFE0
FFE0
1F00
1F00
1F00
1F00
1F00
1F00
1F00
1F00
1F00
1F00
FFE0
FFE0
FFE0
ENDCHAR
STARTCHAR 026B
ENCODING 619
SWIDTH 566 0
DWIDTH 17 0
BBX 11 23 3 0
BITMAP
1F00
1F00
1F00
1F00
1F00
1F00
1F00
1F00
1F00
1F00
FF60
FFE0
DFC0
DF80
1F00
1F00
1F00
1F00
1F00
1F00
1F00
1F00
1F00
ENDCHAR
STARTCHAR 026C
ENCODING 620
SWIDTH 700 0
DWIDTH 21 0
BBX 15 23 3 0
BITMAP
01F0
01F0
01F0
01F0
01F0
01F0
7FF0
FFF0
FFF0
E3F0
E1F0
FFFE
FFFE
7FFE
01F0
01F0
01F0
01F0
01F0
01F0
01F0
01F0
01F0
ENDCHAR
STARTCHAR 026D
ENCODING 621
SWIDTH 333 0
DWIDTH 10 0
BBX 10 29 3 -6
BITMAP
F800
F800
F800
F800
F800
F800
F800
F800
F800
F800
F800
F800
F800
F800
F800
F800
F800
F800
F800
F800
F800
F800
F800
F800
F800
FC00
FFC0
7FC0
3FC0
ENDCHAR
STARTCHAR 026E
ENCODING 622
SWIDTH 833 0
DWIDTH 25 0
BBX 21 29 3 -6
BITMAP
F80000
F80000
F80000
F80000
F80000
F80000
F80000
FFFFE0
FFFFE0
FFFFE0
F807E0
F80FC0
F81F80
F83F00
F87E00
F8FC00
F8F800
F8FFC0
F8FFE0
F8FFF0
F803F0
F801F8
F801F8
0001F8
0803F8
0FCFF0
0FFFF0
0FFFE0
07FF80
ENDCHAR
STARTCHAR 026F
ENCODING 623
SWIDTH 1033 0
DWIDTH 31 0
BBX 27 16 2 0
BITMAP
FC1F07E0
FC1F07E0
FC1F07E0
FC1F07E0
FC1F07E0
FC1F07E0
FC1F07E0
FC1F07E0
FC1F07E0
FC1F07E0
FC3F07E0
FC3F8FE0
7FFFFFE0
7FEFFFE0
3FEFFFE0
1F87F7E0
ENDCHAR
STARTCHAR 0270
ENCODING 624
SWIDTH 1033 0
DWIDTH 31 0
BBX 27 22 2 -6
BITMAP
FC1F07E0
FC1F07E0
FC1F07E0
FC1F07E0
FC1F07E0
FC1F07E0
FC1F07E0
FC1F07E0
FC1F07E0
FC1F07E0
FC3F07E0
FC3F8FE0
7FFFFFE0
7FEFFFE0
3FEFFFE0
1F87F7E0
000007E0
000007E0
000007E0
000007E0
000007E0
000007E0
ENDCHAR
STARTCHAR 0271
ENCODING 625
SWIDTH 1033 0
DWIDTH 31 0
BBX 27 23 2 -6
BITMAP
00781E00
FDFC7F80
FFFEFFC0
FFFFFFC0
FF3FC7E0
FE1F87E0
FC1F83E0
FC1F03E0
FC1F03E0
FC1F03E0
FC1F03E0
FC1F03E0
FC1F03E0
FC1F03E0
FC1F03E0
FC1F03E0
FC1F03E0
000003E0
000007E0
000007E0
00007FC0
00007FC0
00007F00
ENDCHAR
STARTCHAR 0272
ENCODING 626
SWIDTH 700 0
DWIDTH 21 0
BBX 20 22 -1 -6
BITMAP
0F8F80
0FBFE0
0FFFE0
0FE3F0
0FC3F0
0F81F0
0F81F0
0F81F0
0F81F0
0F81F0
0F81F0
0F81F0
0F81F0
0F81F0
0F81F0
0F81F0
1F8000
1F8000
FF0000
FF0000
FE0000
F80000
ENDCHAR
STARTCHAR 0273
ENCODING 627
SWIDTH 800 0
DWIDTH 24 0
BBX 21 23 3 -6
BITMAP
00F000
FBFC00
FFFE00
FFFE00
FE3F00
FC3F00
F81F00
F81F00
F81F00
F81F00
F81F00
F81F00
F81F00
F81F00
F81F00
F81F00
F81F00
001F00
001F00
001F80
001FF8
000FF8
0007F8
ENDCHAR
STARTCHAR 0274
ENCODING 628
SWIDTH 700 0
DWIDTH 21 0
BBX 16 16 3 0
BITMAP
FC3F
FE3F
FE3F
FF3F
FF3F
FF3F
FFBF
FFBF
FBFF
FBFF
F9FF
F9FF
F8FF
F8FF
F87F
F87F
ENDCHAR
STARTCHAR 0275
ENCODING 629
SWIDTH 700 0
DWIDTH 21 0
BBX 18 16 1 0
BITMAP
03F800
0FFE00
3FFF00
7E1F80
7E0FC0
7C07C0
FFFFC0
FFFFC0
FFFFC0
FC07C0
7C0FC0
7E0FC0
7F1F80
3FFF00
1FFE00
03F800
ENDCHAR
STARTCHAR 0276
ENCODING 630
SWIDTH 900 0
DWIDTH 27 0
BBX 24 16 1 0
BITMAP
07FFFF
1FFFFF
3FFFFF
7E0F80
7C0F80
7C0F80
FC0FFE
F80FFE
F80FFE
FC0F80
7C0F80
7E0F80
3F0F80
3FFFFF
0FFFFF
03FFFF
ENDCHAR
STARTCHAR 0277
ENCODING 631
SWIDTH 666 0
DWIDTH 20 0
BBX 17 17 2 0
BITMAP
0FF000
1FFC00
3FFE00
7FFF00
FC3F00
F81F00
F81F80
F81F80
F9DF80
F9DF80
F9DF80
F9DF80
FBDF80
FFFF00
FF7F00
7E7E00
3C3C00
ENDCHAR
STARTCHAR 0278
ENCODING 632
SWIDTH 800 0
DWIDTH 24 0
BBX 20 29 2 -6
BITMAP
01F000
01F000
01F000
01F000
01F000
01F000
03FC00
1FFF80
3FFFC0
7FFFE0
7FF7E0
FDF3E0
F9F3F0
F9F3F0
F9F1F0
F9F1F0
F9F3F0
FDF3F0
FDF7E0
7FFFE0
3FFFC0
1FFF80
0FFE00
01F000
01F000
01F000
01F000
01F000
01F000
ENDCHAR
STARTCHAR 0279
ENCODING 633
SWIDTH 533 0
DWIDTH 16 0
BBX 12 16 3 0
BITMAP
03F0
03F0
03F0
03F0
03F0
03F0
03F0
03F0
03F0
03F0
03F0
07F0
FFF0
FFF0
FFF0
F3F0
ENDCHAR
STARTCHAR 027A
ENCODING 634
SWIDTH 533 0
DWIDTH 16 0
BBX 12 23 3 0
BITMAP
03F0
03F0
03F0
03F0
03F0
03F0
03F0
03F0
03F0
03F0
03F0
03F0
03F0
03F0
03F0
03F0
03F0
03F0
07F0
FFF0
FFF0
FFF0
F3F0
ENDCHAR
STARTCHAR 027B
ENCODING 635
SWIDTH 666 0
DWIDTH 20 0
BBX 17 22 3 -6
BITMAP
03F000
03F000
03F000
03F000
03F000
03F000
03F000
03F000
03F000
03F000
03F000
07F000
FFF000
FFF000
FFF000
F3F000
03F000
01F000
01F000
01FF80
00FF80
007F80
ENDCHAR
STARTCHAR 027C
ENCODING 636
SWIDTH 500 0
DWIDTH 15 0
BBX 12 23 3 -6
BITMAP
00F0
FBF0
FFF0
FFF0
FFB0
FC00
F800
F800
F800
F800
F800
F800
F800
F800
F800
F800
F800
F800
F800
F800
F800
F800
F800
ENDCHAR
STARTCHAR 027D
ENCODING 637
SWIDTH 500 0
DWIDTH 15 0
BBX 13 22 2 -5
BITMAP
FC78
FDF8
FFF8
FFF8
FF08
FE00
FC00
FC00
FC00
FC00
FC00
FC00
FC00
FC00
FC00
FC00
FC00
7C00
7E00
7FE0
3FE0
0FE0
ENDCHAR
STARTCHAR 027E
ENCODING 638
SWIDTH 600 0
DWIDTH 18 0
BBX 13 16 3 0
BITMAP
07F8
0FF8
1FF8
1F80
1F00
1F00
1F00
1F00
1F00
1F00
1F00
1F00
1F00
FFE0
FFE0
FFE0
ENDCHAR
STARTCHAR 027F
ENCODING 639
SWIDTH 600 0
DWIDTH 18 0
BBX 13 16 3 0
BITMAP
FE00
FF00
FF80
0F80
0FC0
07C0
07C0
07C0
07C0
07C0
07C0
07C0
07C0
3FF8
3FF8
3FF8
ENDCHAR
STARTCHAR 0280
ENCODING 640
SWIDTH 633 0
DWIDTH 19 0
BBX 15 16 2 0
BITMAP
FFF0
FFF8
FFF8
F8F8
F8F8
F8F8
F9F8
FFF0
FFE0
FFF0
F9F8
F8F8
F87C
F87C
F83E
F83E
ENDCHAR
STARTCHAR 0281
ENCODING 641
SWIDTH 633 0
DWIDTH 19 0
BBX 15 16 2 0
BITMAP
F83E
F87E
F87C
F8FC
F8F8
FBF8
FFF0
FFE0
FFF0
F8F8
F8F8
F8F8
F9F8
FFF8
FFF0
FFE0
ENDCHAR
STARTCHAR 0282
ENCODING 642
SWIDTH 600 0
DWIDTH 18 0
BBX 14 23 2 -6
BITMAP
0FC0
7FF8
FFF8
FFF8
F008
F000
FC00
FFE0
7FF8
3FFC
03FC
007C
007C
E07C
FFFC
FFF8
FFF0
F800
F800
FC00
7FC0
7FC0
3FC0
ENDCHAR
STARTCHAR 0283
ENCODING 643
SWIDTH 400 0
DWIDTH 12 0
BBX 14 29 -1 -6
BITMAP
01FC
07FC
0FFC
0FC0
0F80
0F80
0F80
0F80
0F80
0F80
0F80
0F80
0F80
0F80
0F80
0F80
0F80
0F80
0F80
0F80
0F80
0F80
0F80
1F80
1F80
1F00
FF00
FE00
FC00
ENDCHAR
STARTCHAR 0284
ENCODING 644
SWIDTH 433 0
DWIDTH 13 0
BBX 13 29 0 -6
BITMAP
01F8
07F8
0FF8
1FF8
1F80
1F00
1F00
7F00
7F00
7F00
1F00
1F00
1F00
1F00
FFE0
FFE0
FFE0
1F00
1F00
1F00
1F00
1F00
1F00
1F00
1F00
3F00
FF00
FE00
FC00
ENDCHAR
STARTCHAR 0285
ENCODING 645
SWIDTH 600 0
DWIDTH 18 0
BBX 13 23 3 -6
BITMAP
FC00
FF00
FF80
FF80
0FC0
0FC0
0FC0
0FC0
0FC0
0FC0
0FC0
0FC0
0FC0
0FC0
0FC0
0FC0
0FC0
0FC0
07C0
07C0
07F8
03F8
01F8
ENDCHAR
STARTCHAR 0286
ENCODING 646
SWIDTH 566 0
DWIDTH 17 0
BBX 18 30 -1 -7
BITMAP
001FC0
007FC0
00FFC0
00FFC0
00F800
00F800
00F800
00F800
00F800
00F800
00F800
00F800
00F800
00F800
00F800
00F800
00F800
00F800
00F800
00F800
00F800
3FFE00
7FFE00
FFFE00
E1F800
E1F800
FFF000
7FF000
7FC000
060000
ENDCHAR
STARTCHAR 0287
ENCODING 647
SWIDTH 466 0
DWIDTH 14 0
BBX 14 21 0 -5
BITMAP
7F80
7FC0
7FE0
0FE0
03E0
03E0
03E0
03E0
03E0
03E0
03E0
03E0
FFFC
FFFC
FFFC
FFFC
03E0
03E0
03E0
03E0
03E0
ENDCHAR
STARTCHAR 0288
ENCODING 648
SWIDTH 466 0
DWIDTH 14 0
BBX 14 27 0 -6
BITMAP
1F00
1F00
1F00
1F00
1F00
FFFC
FFFC
FFFC
1F00
1F00
1F00
1F00
1F00
1F00
1F00
1F00
1F00
1F00
1F00
1F00
1F00
1F00
1F00
1F80
0FF0
07F0
03F0
ENDCHAR
STARTCHAR 0289
ENCODING 649
SWIDTH 933 0
DWIDTH 28 0
BBX 22 16 3 0
BITMAP
1F03E0
1F03E0
1F03E0
1F03E0
1F03E0
1F03E0
FFFFFC
FFFFFC
FFFFFC
1F03E0
1F07E0
1F07E0
1F8FE0
0FFBE0
0FFBE0
03E3E0
ENDCHAR
STARTCHAR 028A
ENCODING 650
SWIDTH 766 0
DWIDTH 23 0
BBX 19 16 2 0
BITMAP
FF1FE0
FF1FE0
FF1FE0
1F1F00
3F1F80
7E0FC0
7E07C0
7C07C0
7C07E0
7C07E0
7C07C0
7E0FC0
3F1FC0
3FFF80
0FFE00
03F800
ENDCHAR
STARTCHAR 028B
ENCODING 651
SWIDTH 666 0
DWIDTH 20 0
BBX 17 16 2 0
BITMAP
FC7800
FC7C00
FC7E00
FC3F00
FC1F00
FC1F80
FC1F80
FC0F80
FC1F80
FC1F80
7C1F00
7C3F00
7EFE00
3FFE00
3FFC00
0FF000
ENDCHAR
STARTCHAR 028C
ENCODING 652
SWIDTH 666 0
DWIDTH 20 0
BBX 18 16 1 0
BITMAP
03F000
07F000
07F800
0FF800
0FF800
0FFC00
1F7C00
1F3E00
3E3E00
3E3E00
3E1F00
7C1F00
7C0F80
FC0F80
F80FC0
F807C0
ENDCHAR
STARTCHAR 028D
ENCODING 653
SWIDTH 933 0
DWIDTH 28 0
BBX 26 16 1 0
BITMAP
0FC1FC00
0FE1FC00
0FE1FC00
1FE1FC00
1FE3FE00
1FF3FE00
1FF3BE00
3E739E00
3E779F00
3E7F9F00
7E7F1F00
7C3F1F00
7C3F0F80
7C3F0F80
FC3E0F80
F81E0FC0
ENDCHAR
STARTCHAR 028E
ENCODING 654
SWIDTH 666 0
DWIDTH 20 0
BBX 18 23 1 0
BITMAP
003E00
00FE00
00FE00
01FE00
03E000
03E000
03E000
07E000
07F000
07F000
0FF800
0FF800
1F7C00
1F7C00
1E7C00
3E3E00
3E3E00
7C1F00
7C1F00
7C1F80
F80F80
F80F80
F807C0
ENDCHAR
STARTCHAR 028F
ENCODING 655
SWIDTH 733 0
DWIDTH 22 0
BBX 17 16 2 0
BITMAP
FC0F80
7E1F00
3E3F00
1F3E00
1FFC00
0FFC00
07F800
07F000
03F000
01E000
01E000
01E000
01E000
01E000
01E000
01E000
ENDCHAR
STARTCHAR 0290
ENCODING 656
SWIDTH 700 0
DWIDTH 21 0
BBX 20 22 1 -6
BITMAP
7FFE00
7FFE00
7FFE00
007E00
00FC00
01F800
03F000
07E000
0FC000
1F8000
3F0000
7E0000
FFFE00
FFFE00
FFFE00
FFFE00
003E00
003E00
003F00
001FF0
001FF0
000FF0
ENDCHAR
STARTCHAR 0291
ENCODING 657
SWIDTH 700 0
DWIDTH 21 0
BBX 18 18 1 -2
BITMAP
7FFE00
7FFE00
7FFE00
007E00
00FC00
01F800
03F000
07E000
0FCE00
1FBF80
3F7F80
7E71C0
FFFF80
FFFF80
FFFF80
FFFF00
00E000
00E000
ENDCHAR
STARTCHAR 0292
ENCODING 658
SWIDTH 633 0
DWIDTH 19 0
BBX 17 22 1 -6
BITMAP
7FFE00
7FFE00
7FFE00
007E00
00FC00
01F800
03F000
07E000
0FC000
0F8000
0FFC00
0FFE00
0FFF00
003F00
001F80
001F80
001F80
803F80
FCFF00
FFFF00
FFFE00
7FF800
ENDCHAR
STARTCHAR 0293
ENCODING 659
SWIDTH 633 0
DWIDTH 19 0
BBX 16 22 2 -6
BITMAP
FFFC
FFFC
FFFC
00FC
01F8
03F0
07E0
0FC0
1F80
1F00
1FF8
1FFC
1FFE
007E
3FBF
7FFF
FFFF
E07F
F1FE
FFFE
7FFC
3FF8
ENDCHAR
STARTCHAR 0294
ENCODING 660
SWIDTH 566 0
DWIDTH 17 0
BBX 15 23 1 0
BITMAP
3F00
FFE0
FFF0
FFF8
F7FC
00FC
007E
003E
003E
007E
007C
00FC
1FFC
1FF8
1FF0
1F80
1F00
1F00
1F00
1F00
1F00
1F00
1F00
ENDCHAR
STARTCHAR 0295
ENCODING 661
SWIDTH 566 0
DWIDTH 17 0
BBX 15 23 1 0
BITMAP
01F8
0FFE
1FFE
3FFE
7F9E
7E00
FC00
F800
F800
F800
FC00
7E00
7FF0
3FF0
1FF0
07F0
01F0
01F0
01F0
01F0
01F0
01F0
01F0
ENDCHAR
STARTCHAR 0296
ENCODING 662
SWIDTH 566 0
DWIDTH 17 0
BBX 15 23 1 0
BITMAP
1F00
1F00
1F00
1F00
1F00
1F00
1F00
1F00
1FE0
1FF8
1FF8
01FC
007C
007E
003E
003E
007E
00FC
C1FC
FFF8
FFF0
FFE0
3F80
ENDCHAR
STARTCHAR 0297
ENCODING 663
SWIDTH 566 0
DWIDTH 17 0
BBX 15 29 1 -6
BITMAP
01F8
0FFE
1FFE
3FFE
7F9E
7E00
FC00
F800
F800
F800
F800
F800
F800
F800
F800
F800
F800
F800
F800
F800
F800
F800
F800
FC00
7E06
7FFE
3FFE
0FFE
07FC
ENDCHAR
STARTCHAR 0298
ENCODING 664
SWIDTH 866 0
DWIDTH 26 0
BBX 23 22 1 0
BITMAP
01FF00
07FFC0
0FFFF0
1FFFF8
3F83F8
3F00FC
7E00FC
7E007E
7E007E
7C187E
FC3C7E
FC3C7E
7C387E
7E007E
7E007E
7E00FC
7F00FC
3F81F8
1FFFF8
0FFFF0
07FFE0
01FF80
ENDCHAR
STARTCHAR 0299
ENCODING 665
SWIDTH 633 0
DWIDTH 19 0
BBX 15 16 3 0
BITMAP
FFE0
FFF8
FFFC
F87C
F87C
F87C
FFF8
FFF0
FFFC
F87C
F83E
F83E
F87E
FFFC
FFF8
FFF0
ENDCHAR
STARTCHAR 029A
ENCODING 666
SWIDTH 733 0
DWIDTH 22 0
BBX 18 17 2 0
BITMAP
0FE000
7FFC00
FFFE00
FFFF00
F81F80
F80F80
7E0FC0
3FCFC0
3FCFC0
7FCFC0
FC0FC0
F80FC0
F01F80
F83F80
FFFF00
7FFE00
3FF800
ENDCHAR
STARTCHAR 029B
ENCODING 667
SWIDTH 700 0
DWIDTH 21 0
BBX 20 23 1 0
BITMAP
0007F0
000FF0
001FF0
003FF0
003E00
003E00
007E00
07FE00
1FFE00
3FFE00
7E0600
780000
780000
F80000
F9FE00
F9FE00
F9FE00
781E00
7C1E00
3E1E00
3FFE00
1FFE00
07F800
ENDCHAR
STARTCHAR 029C
ENCODING 668
SWIDTH 700 0
DWIDTH 21 0
BBX 15 16 3 0
BITMAP
F83E
F83E
F83E
F83E
F83E
F83E
FFFE
FFFE
FFFE
F83E
F83E
F83E
F83E
F83E
F83E
F83E
ENDCHAR
STARTCHAR 029D
ENCODING 669
SWIDTH 333 0
DWIDTH 10 0
BBX 15 29 -5 -6
BITMAP
00F8
00F8
00F8
00F8
0000
0000
0000
00F8
00F8
00F8
00F8
00F8
00F8
00F8
00F8
00F8
00F8
00F8
00F8
00F8
00F8
3FFE
7FFE
FFFE
E1F8
E1F8
FFF0
FFE0
7FC0
ENDCHAR
STARTCHAR 029E
ENCODING 670
SWIDTH 733 0
DWIDTH 22 0
BBX 18 22 3 -6
BITMAP
FE0FC0
7F0FC0
3F8FC0
1FCFC0
0FCFC0
07EFC0
03FFC0
01FFC0
00FFC0
01FFC0
03FFC0
07EFC0
0FCFC0
1F8FC0
3F0FC0
7E0FC0
000FC0
000FC0
000FC0
000FC0
000FC0
000FC0
ENDCHAR
STARTCHAR 029F
ENCODING 671
SWIDTH 533 0
DWIDTH 16 0
BBX 12 16 3 0
BITMAP
F800
F800
F800
F800
F800
F800
F800
F800
F800
F800
F800
F800
FFF0
FFF0
FFF0
FFF0
ENDCHAR
STARTCHAR 02A0
ENCODING 672
SWIDTH 800 0
DWIDTH 24 0
BBX 23 29 1 -6
BITMAP
00007E
0001FE
0003FE
0007FE
0007C0
0007C0
0787C0
1FE7C0
3FF7C0
3FFFC0
7E1FC0
7E0FC0
7C0FC0
FC07C0
FC07C0
FC07C0
FC07C0
7C0FC0
7E0FC0
7FBFC0
3FFFC0
1FF7C0
0FE7C0
0007C0
0007C0
0007C0
0007C0
0007C0
0007C0
ENDCHAR
STARTCHAR 02A1
ENCODING 673
SWIDTH 566 0
DWIDTH 17 0
BBX 15 23 1 0
BITMAP
3F00
FFE0
FFF0
FFF8
F7FC
00FC
007E
003E
003E
007E
007C
00FC
1FFC
1FF8
1FF0
1F80
1F00
1F00
7FF0
7FF0
7FF0
1F00
1F00
ENDCHAR
STARTCHAR 02A2
ENCODING 674
SWIDTH 566 0
DWIDTH 17 0
BBX 15 23 1 0
BITMAP
01F8
0FFE
1FFE
3FFE
7F9E
7E00
FC00
F800
F800
F800
FC00
7E00
7FF0
3FF0
1FF0
07F0
01F0
01F0
1FFC
1FFC
1FFC
01F0
01F0
ENDCHAR
STARTCHAR 02A3
ENCODING 675
SWIDTH 1166 0
DWIDTH 35 0
BBX 32 23 1 0
BITMAP
0007C000
0007C000
0007C000
0007C000
0007C000
0007C000
0787C000
1FE7FFFF
3FF7FFFF
3FFFFFFF
7E1FC03F
7E0FC07E
7C0FC0FC
FC07C1F8
FC07C3F0
FC07C7E0
FC07CFC0
7C0FDF80
7E0FFF00
7FBFFFFF
3FFFFFFF
1FF7FFFF
0FE7FFFF
ENDCHAR
STARTCHAR 02A4
ENCODING 676
SWIDTH 1200 0
DWIDTH 36 0
BBX 34 29 1 -6
BITMAP
0007C00000
0007C00000
0007C00000
0007C00000
0007C00000
0007C00000
0787C00000
1FE7FFFF00
3FF7FFFF00
3FFFFFFF00
7E1FC03F00
7E0FC07E00
7C0FC0FC00
FC07C1F800
FC07C3F000
FC07C7E000
FC07C7C000
7C0FC7FE00
7E0FC7FF00
7FBFC7FF80
3FFFC01FC0
1FF7C00FC0
0FE7C00FC0
0000000FC0
0000200FC0
00003E7F80
00003FFF80
00003FFF00
00003FFC00
ENDCHAR
STARTCHAR 02A5
ENCODING 677
SWIDTH 1166 0
DWIDTH 35 0
BBX 32 25 1 -2
BITMAP
0007C000
0007C000
0007C000
0007C000
0007C000
0007C000
0787C000
1FE7FFFF
3FF7FFFF
3FFFFFFF
7E1FC03F
7E0FC07E
7C0FC0FC
FC07C1F8
FC07C3FC
FC07C7FF
FC07CFDF
7C0FDFBF
7E0FFF37
7FBFFFFF
3FFFFFFF
1FF7FFFE
0FE7FFFE
00000070
00000070
ENDCHAR
STARTCHAR 02A6
ENCODING 678
SWIDTH 966 0
DWIDTH 29 0
BBX 28 21 0 0
BITMAP
1F000000
1F000000
1F000000
1F000000
1F007F00
FFFDFFE0
FFFFFFE0
FFFFFFE0
1F07C060
1F07C000
1F07E000
1F07FF00
1F03FFC0
1F01FFE0
1F001FF0
1F0001F0
1F0001F0
1FFFFFF0
1FFFFFE0
0FFFFFC0
07FFFF80
ENDCHAR
STARTCHAR 02A7
ENCODING 679
SWIDTH 766 0
DWIDTH 23 0
BBX 23 29 0 -6
BITMAP
00007E
0001FE
1F03FE
1F07FE
1F07E0
1F07C0
1F07C0
FFFFC0
FFFFC0
FFFFC0
1F07C0
1F07C0
1F07C0
1F07C0
1F07C0
1F07C0
1F07C0
1F07C0
1F07C0
1FFFC0
0FFFC0
0FFFC0
07FFC0
0007C0
0007C0
000FC0
003FC0
003F80
003F00
ENDCHAR
STARTCHAR 02A8
ENCODING 680
SWIDTH 933 0
DWIDTH 28 0
BBX 26 23 0 -2
BITMAP
1F000000
1F000000
1F000000
1F000000
1F001F00
FFFCFFC0
FFFFFFC0
FFFFFFC0
1F07F040
1F0FC000
1F0FC000
1F0FC000
1F0F8000
1F0F9F80
1F0FFFC0
1F0FFFC0
1F07F0C0
1FFFF9C0
0FFBFFC0
0FF9FFC0
07F87F80
00007000
00007000
ENDCHAR
STARTCHAR 02A9
ENCODING 681
SWIDTH 1033 0
DWIDTH 31 0
BBX 28 29 1 -6
BITMAP
03F00000
0FF00000
1FF00000
3FF00000
3F000000
3E000000
3E000700
FFFF9FC0
FFFFBFE0
FFFFFFF0
3E0FE3F0
3E0FC1F0
3E0FC1F0
3E0F81F0
3E0F81F0
3E0F81F0
3E0F81F0
3E0F81F0
3E0F81F0
3E0F81F0
3E0F81F0
3E0F81F0
3E0F81F0
000001F0
000001F0
000003F0
00003FF0
00003FE0
00003FC0
ENDCHAR
STARTCHAR 02AA
ENCODING 682
SWIDTH 866 0
DWIDTH 26 0
BBX 21 23 3 0
BITMAP
F80000
F80000
F80000
F80000
F80000
F80000
F81F80
F8FFF0
F9FFF0
F9FFF0
F9E010
F9E000
F9F800
F9FFC0
F8FFF0
F87FF8
F807F8
F800F8
F800F8
FFFFF8
FFFFF8
FFFFF0
FFFFC0
ENDCHAR
STARTCHAR 02AB
ENCODING 683
SWIDTH 766 0
DWIDTH 23 0
BBX 19 23 3 0
BITMAP
F80000
F80000
F80000
F80000
F80000
F80000
F80000
FFFFE0
FFFFE0
FFFFE0
F807E0
F80FC0
F81F80
F83F00
F87E00
F8FC00
F9F800
FBF000
FFE000
FFFFE0
FFFFE0
FFFFE0
FFFFE0
ENDCHAR
STARTCHAR 02AC
ENCODING 684
SWIDTH 600 0
DWIDTH 18 0
BBX 16 19 1 0
BITMAP
E387
E3CF
F3CE
77CE
76FE
7E7C
3E7C
3E7C
3C38
0000
E387
E3CF
F3CE
77CE
76FE
7E7C
3E7C
3E7C
3C78
ENDCHAR
STARTCHAR 02AD
ENCODING 685
SWIDTH 400 0
DWIDTH 12 0
BBX 9 16 1 3
BITMAP
FF80
FF80
C180
C180
C180
C180
0000
0000
0000
0000
FF80
FF80
C180
C180
C180
C180
ENDCHAR
STARTCHAR 02AE
ENCODING 686
SWIDTH 666 0
DWIDTH 20 0
BBX 22 29 -3 -6
BITMAP
FC0000
FF8000
FF8000
FFC000
07C000
07E000
07E000
07E07C
07E07C
07E07C
07E07C
07E07C
07E07C
07E07C
07E07C
07E07C
07E0FC
07E0FC
07E1FC
03FFFC
03FFFC
01FF7C
00FE7C
00007C
00007C
00007C
00007C
00007C
00007C
ENDCHAR
STARTCHAR 02AF
ENCODING 687
SWIDTH 800 0
DWIDTH 24 0
BBX 27 29 -3 -6
BITMAP
FC000000
FF800000
FF800000
FFC00000
07C00000
07E00000
07E00000
07E07C00
07E07C00
07E07C00
07E07C00
07E07C00
07E07C00
07E07C00
07E07C00
07E07C00
07E0FC00
07E0FC00
07E1FC00
03FFFC00
03FFFC00
01FF7C00
00FE7C00
00007C00
00007C00
00007E00
00007FE0
00003FE0
00001FE0
ENDCHAR
STARTCHAR 02B0
ENCODING 688
SWIDTH 466 0
DWIDTH 14 0
BBX 10 13 2 10
BITMAP
E000
E000
E000
E000
EF80
FFC0
F3C0
E1C0
E1C0
E1C0
E1C0
E1C0
E1C0
ENDCHAR
STARTCHAR 02B1
ENCODING 689
SWIDTH 466 0
DWIDTH 14 0
BBX 10 13 2 10
BITMAP
1C00
7C00
F000
E000
EF80
FFC0
F3C0
E1C0
E1C0
E1C0
E1C0
E1C0
E1C0
ENDCHAR
STARTCHAR 02B2
ENCODING 690
SWIDTH 233 0
DWIDTH 7 0
BBX 6 17 -1 6
BITMAP
1C
1C
1C
00
1C
1C
1C
1C
1C
1C
1C
1C
1C
1C
3C
F8
F0
ENDCHAR
STARTCHAR 02B3
ENCODING 691
SWIDTH 300 0
DWIDTH 9 0
BBX 7 9 2 10
BITMAP
EE
FE
F0
E0
E0
E0
E0
E0
E0
ENDCHAR
STARTCHAR 02B4
ENCODING 692
SWIDTH 300 0
DWIDTH 9 0
BBX 7 9 2 10
BITMAP
0E
0E
0E
0E
0E
0E
1E
FE
EE
ENDCHAR
STARTCHAR 02B5
ENCODING 693
SWIDTH 300 0
DWIDTH 9 0
BBX 11 13 2 6
BITMAP
0E00
0E00
0E00
0E00
0E00
0E00
1E00
FE00
EE00
0E00
0F00
07E0
03E0
ENDCHAR
STARTCHAR 02B6
ENCODING 694
SWIDTH 400 0
DWIDTH 12 0
BBX 10 9 0 10
BITMAP
F1C0
F3C0
F380
FF80
FF00
F380
F380
FF80
FF00
ENDCHAR
STARTCHAR 02B7
ENCODING 695
SWIDTH 600 0
DWIDTH 18 0
BBX 16 9 1 10
BITMAP
E387
E3CF
F3CE
77CE
76EE
767C
3E7C
3E7C
3C7C
ENDCHAR
STARTCHAR 02B8
ENCODING 696
SWIDTH 433 0
DWIDTH 13 0
BBX 12 13 0 6
BITMAP
F070
70F0
78E0
39E0
3DC0
1DC0
1F80
0F80
0F00
0700
0F00
3E00
3C00
ENDCHAR
STARTCHAR 02B9
ENCODING 697
SWIDTH 300 0
DWIDTH 9 0
BBX 4 7 2 17
BITMAP
70
70
70
70
70
60
E0
ENDCHAR
STARTCHAR 02BA
ENCODING 698
SWIDTH 533 0
DWIDTH 16 0
BBX 11 7 2 17
BITMAP
70E0
70E0
70E0
71C0
71C0
61C0
E1C0
ENDCHAR
STARTCHAR 02BB
ENCODING 699
SWIDTH 366 0
DWIDTH 11 0
BBX 6 9 3 13
BITMAP
1C
3C
3C
7C
F8
F8
F8
F8
F8
ENDCHAR
STARTCHAR 02BC
ENCODING 700
SWIDTH 366 0
DWIDTH 11 0
BBX 6 9 2 13
BITMAP
7C
7C
7C
7C
7C
78
78
F0
E0
ENDCHAR
STARTCHAR 02BD
ENCODING 701
SWIDTH 366 0
DWIDTH 11 0
BBX 5 8 4 18
BITMAP
F0
F0
F0
F0
70
70
38
38
ENDCHAR
STARTCHAR 02BE
ENCODING 702
SWIDTH 366 0
DWIDTH 11 0
BBX 5 9 3 14
BITMAP
C0
F0
70
38
38
38
F0
E0
80
ENDCHAR
STARTCHAR 02BF
ENCODING 703
SWIDTH 366 0
DWIDTH 11 0
BBX 5 9 3 14
BITMAP
18
38
78
60
E0
60
78
38
08
ENDCHAR
STARTCHAR 02C0
ENCODING 704
SWIDTH 333 0
DWIDTH 10 0
BBX 9 13 1 10
BITMAP
1000
FE00
FF00
0780
0380
0380
0780
3F00
3E00
3800
3800
3800
3800
ENDCHAR
STARTCHAR 02C1
ENCODING 705
SWIDTH 333 0
DWIDTH 10 0
BBX 9 13 1 10
BITMAP
0C00
3F80
7F80
F000
E000
E000
F000
7E00
3E00
0E00
0E00
0E00
0E00
ENDCHAR
STARTCHAR 02C2
ENCODING 706
SWIDTH 500 0
DWIDTH 15 0
BBX 7 9 4 15
BITMAP
06
1E
7C
F0
C0
F0
7C
1E
06
ENDCHAR
STARTCHAR 02C3
ENCODING 707
SWIDTH 500 0
DWIDTH 15 0
BBX 7 9 4 15
BITMAP
C0
F0
7C
1E
06
1E
7C
F0
C0
ENDCHAR
STARTCHAR 02C4
ENCODING 708
SWIDTH 500 0
DWIDTH 15 0
BBX 9 7 3 17
BITMAP
1C00
3E00
3E00
7700
6300
E380
C180
ENDCHAR
STARTCHAR 02C5
ENCODING 709
SWIDTH 500 0
DWIDTH 15 0
BBX 9 7 3 17
BITMAP
C180
E380
6300
7700
3600
3E00
1C00
ENDCHAR
STARTCHAR 02C6
ENCODING 710
SWIDTH 500 0
DWIDTH 15 0
BBX 11 6 2 18
BITMAP
1F00
1F00
3B80
3B80
71C0
E0E0
ENDCHAR
STARTCHAR 02C7
ENCODING 711
SWIDTH 500 0
DWIDTH 15 0
BBX 11 6 2 18
BITMAP
E0E0
71C0
3B80
3B80
1F00
1F00
ENDCHAR
STARTCHAR 02C8
ENCODING 712
SWIDTH 300 0
DWIDTH 9 0
BBX 3 8 3 15
BITMAP
E0
E0
E0
E0
E0
E0
E0
E0
ENDCHAR
STARTCHAR 02C9
ENCODING 713
SWIDTH 500 0
DWIDTH 15 0
BBX 9 3 3 20
BITMAP
FF80
FF80
FF80
ENDCHAR
STARTCHAR 02CA
ENCODING 714
SWIDTH 500 0
DWIDTH 15 0
BBX 8 6 5 18
BITMAP
0F
1E
1C
38
70
E0
ENDCHAR
STARTCHAR 02CB
ENCODING 715
SWIDTH 500 0
DWIDTH 15 0
BBX 8 6 2 18
BITMAP
F0
78
38
1C
0E
07
ENDCHAR
STARTCHAR 02CC
ENCODING 716
SWIDTH 300 0
DWIDTH 9 0
BBX 3 8 3 -2
BITMAP
E0
E0
E0
E0
E0
E0
E0
E0
ENDCHAR
STARTCHAR 02CD
ENCODING 717
SWIDTH 500 0
DWIDTH 15 0
BBX 9 3 3 -6
BITMAP
FF80
FF80
FF80
ENDCHAR
STARTCHAR 02CE
ENCODING 718
SWIDTH 500 0
DWIDTH 15 0
BBX 7 5 2 -7
BITMAP
F0
78
3C
1C
0E
ENDCHAR
STARTCHAR 02CF
ENCODING 719
SWIDTH 500 0
DWIDTH 15 0
BBX 7 5 6 -7
BITMAP
1E
3C
78
70
E0
ENDCHAR
STARTCHAR 02D0
ENCODING 720
SWIDTH 333 0
DWIDTH 10 0
BBX 5 16 2 0
BITMAP
F8
F0
70
60
20
00
00
00
00
00
00
20
60
70
F8
F8
ENDCHAR
STARTCHAR 02D1
ENCODING 721
SWIDTH 333 0
DWIDTH 10 0
BBX 5 5 2 11
BITMAP
F8
F0
70
60
20
ENDCHAR
STARTCHAR 02D2
ENCODING 722
SWIDTH 366 0
DWIDTH 11 0
BBX 5 9 3 8
BITMAP
C0
F0
70
38
38
38
F0
E0
80
ENDCHAR
STARTCHAR 02D3
ENCODING 723
SWIDTH 366 0
DWIDTH 11 0
BBX 5 9 3 8
BITMAP
18
38
78
60
E0
60
78
38
08
ENDCHAR
STARTCHAR 02D4
ENCODING 724
SWIDTH 500 0
DWIDTH 15 0
BBX 7 7 4 7
BITMAP
38
38
38
38
FE
FE
FE
ENDCHAR
STARTCHAR 02D5
ENCODING 725
SWIDTH 500 0
DWIDTH 15 0
BBX 7 7 4 7
BITMAP
FE
FE
FE
38
38
38
38
ENDCHAR
STARTCHAR 02D6
ENCODING 726
SWIDTH 400 0
DWIDTH 12 0
BBX 9 9 2 4
BITMAP
1C00
1C00
1C00
FF80
FF80
FF80
1C00
1C00
1C00
ENDCHAR
STARTCHAR 02D7
ENCODING 727
SWIDTH 333 0
DWIDTH 10 0
BBX 6 3 2 7
BITMAP
FC
FC
FC
ENDCHAR
STARTCHAR 02D8
ENCODING 728
SWIDTH 500 0
DWIDTH 15 0
BBX 9 4 3 20
BITMAP
C180
E380
FF80
3E00
ENDCHAR
STARTCHAR 02D9
ENCODING 729
SWIDTH 500 0
DWIDTH 15 0
BBX 5 4 5 19
BITMAP
F8
F8
F8
F8
ENDCHAR
STARTCHAR 02DA
ENCODING 730
SWIDTH 500 0
DWIDTH 15 0
BBX 9 8 3 19
BITMAP
3E00
7F00
6300
E380
E380
6300
7F00
3C00
ENDCHAR
STARTCHAR 02DB
ENCODING 731
SWIDTH 500 0
DWIDTH 15 0
BBX 6 6 5 -6
BITMAP
60
60
C0
E0
FC
7C
ENDCHAR
STARTCHAR 02DC
ENCODING 732
SWIDTH 500 0
DWIDTH 15 0
BBX 11 6 2 18
BITMAP
3060
78E0
6CC0
66C0
C3C0
C180
ENDCHAR
STARTCHAR 02DD
ENCODING 733
SWIDTH 500 0
DWIDTH 15 0
BBX 11 6 3 18
BITMAP
3CE0
39C0
71C0
7380
6300
E700
ENDCHAR
STARTCHAR 02DE
ENCODING 734
SWIDTH 366 0
DWIDTH 11 0
BBX 11 10 0 6
BITMAP
0F00
1F00
7F00
FF00
F700
C700
8700
07E0
03E0
0060
ENDCHAR
STARTCHAR 02DF
ENCODING 735
SWIDTH 500 0
DWIDTH 15 0
BBX 9 6 3 18
BITMAP
7700
3E00
1C00
3E00
7700
E380
ENDCHAR
STARTCHAR 02E0
ENCODING 736
SWIDTH 400 0
DWIDTH 12 0
BBX 10 13 1 6
BITMAP
E1C0
F3C0
7380
3F80
3F00
1E00
1E00
3F00
3F00
3F80
7F80
3F00
1E00
ENDCHAR
STARTCHAR 02E1
ENCODING 737
SWIDTH 233 0
DWIDTH 7 0
BBX 3 13 2 10
BITMAP
E0
E0
E0
E0
E0
E0
E0
E0
E0
E0
E0
E0
E0
ENDCHAR
STARTCHAR 02E2
ENCODING 738
SWIDTH 366 0
DWIDTH 11 0
BBX 10 9 1 10
BITMAP
7F80
FF80
E000
F800
7F80
1F80
03C0
FF80
FF80
ENDCHAR
STARTCHAR 02E3
ENCODING 739
SWIDTH 400 0
DWIDTH 12 0
BBX 11 9 1 10
BITMAP
E1E0
73C0
3F80
3F00
1E00
3F00
3F80
73C0
E1E0
ENDCHAR
STARTCHAR 02E4
ENCODING 740
SWIDTH 333 0
DWIDTH 10 0
BBX 9 13 1 10
BITMAP
0C00
3F80
7F80
F000
E000
E000
F000
7E00
3E00
0E00
0E00
0E00
0E00
ENDCHAR
STARTCHAR 02E5
ENCODING 741
SWIDTH 500 0
DWIDTH 15 0
BBX 9 21 3 0
BITMAP
FF80
FF80
FF80
0380
0380
0380
0380
0380
0380
0380
0380
0380
0380
0380
0380
0380
0380
0380
0380
0380
0380
ENDCHAR
STARTCHAR 02E6
ENCODING 742
SWIDTH 500 0
DWIDTH 15 0
BBX 9 21 3 0
BITMAP
0380
0380
0380
0380
0380
FF80
FF80
FF80
0380
0380
0380
0380
0380
0380
0380
0380
0380
0380
0380
0380
0380
ENDCHAR
STARTCHAR 02E7
ENCODING 743
SWIDTH 500 0
DWIDTH 15 0
BBX 9 21 3 0
BITMAP
0380
0380
0380
0380
0380
0380
0380
0380
0380
FF80
FF80
FF80
0380
0380
0380
0380
0380
0380
0380
0380
0380
ENDCHAR
STARTCHAR 02E8
ENCODING 744
SWIDTH 500 0
DWIDTH 15 0
BBX 9 21 3 0
BITMAP
0380
0380
0380
0380
0380
0380
0380
0380
0380
0380
0380
0380
0380
FF80
FF80
FF80
0380
0380
0380
0380
0380
ENDCHAR
STARTCHAR 02E9
ENCODING 745
SWIDTH 500 0
DWIDTH 15 0
BBX 9 21 3 0
BITMAP
0380
0380
0380
0380
0380
0380
0380
0380
0380
0380
0380
0380
0380
0380
0380
0380
0380
0380
FF80
FF80
FF80
ENDCHAR
STARTCHAR 02EC
ENCODING 748
SWIDTH 500 0
DWIDTH 15 0
BBX 9 7 3 -8
BITMAP
C180
E380
6300
7700
3600
3E00
1C00
ENDCHAR
STARTCHAR 02ED
ENCODING 749
SWIDTH 500 0
DWIDTH 15 0
BBX 9 7 3 18
BITMAP
FF80
FF80
FF80
0000
FF80
FF80
FF80
ENDCHAR
STARTCHAR 02EE
ENCODING 750
SWIDTH 666 0
DWIDTH 20 0
BBX 14 9 3 13
BITMAP
7C7C
7C7C
7C7C
7C7C
7C78
78F8
F8F0
F0E0
E1E0
ENDCHAR
STARTCHAR 02F3
ENCODING 755
SWIDTH 500 0
DWIDTH 15 0
BBX 9 8 3 -6
BITMAP
3E00
7F00
6300
E380
E380
6300
7F00
3C00
ENDCHAR
STARTCHAR 02F7
ENCODING 759
SWIDTH 500 0
DWIDTH 15 0
BBX 11 3 2 -6
BITMAP
7CE0
6FC0
C380
ENDCHAR
STARTCHAR 0300
ENCODING 768
SWIDTH 0 0
DWIDTH 0 0
BBX 7 6 -13 18
BITMAP
F0
78
38
3C
1E
0E
ENDCHAR
STARTCHAR 0301
ENCODING 769
SWIDTH 0 0
DWIDTH 0 0
BBX 7 6 -9 18
BITMAP
1E
3C
38
70
E0
E0
ENDCHAR
STARTCHAR 0302
ENCODING 770
SWIDTH 0 0
DWIDTH 0 0
BBX 11 6 -13 18
BITMAP
1F00
1F00
3B80
3B80
71C0
E0E0
ENDCHAR
STARTCHAR 0303
ENCODING 771
SWIDTH 0 0
DWIDTH 0 0
BBX 10 6 -13 18
BITMAP
30C0
78C0
6CC0
C6C0
C3C0
C380
ENDCHAR
STARTCHAR 0304
ENCODING 772
SWIDTH 0 0
DWIDTH 0 0
BBX 9 3 -12 20
BITMAP
FF80
FF80
FF80
ENDCHAR
STARTCHAR 0305
ENCODING 773
SWIDTH 0 0
DWIDTH 0 0
BBX 15 3 -15 20
BITMAP
FFFE
FFFE
FFFE
ENDCHAR
STARTCHAR 0306
ENCODING 774
SWIDTH 0 0
DWIDTH 0 0
BBX 10 4 -12 20
BITMAP
C1C0
E180
7F80
3E00
ENDCHAR
STARTCHAR 0307
ENCODING 775
SWIDTH 0 0
DWIDTH 0 0
BBX 5 6 -10 19
BITMAP
F8
F8
F8
F8
F8
F8
ENDCHAR
STARTCHAR 0308
ENCODING 776
SWIDTH 0 0
DWIDTH 0 0
BBX 9 4 -12 19
BITMAP
E380
E380
E380
E380
ENDCHAR
STARTCHAR 0309
ENCODING 777
SWIDTH 0 0
DWIDTH 0 0
BBX 7 7 -11 18
BITMAP
FC
86
06
0E
1C
38
38
ENDCHAR
STARTCHAR 030A
ENCODING 778
SWIDTH 0 0
DWIDTH 0 0
BBX 9 8 -12 19
BITMAP
3E00
7F00
6300
E380
E380
6300
7F00
3C00
ENDCHAR
STARTCHAR 030B
ENCODING 779
SWIDTH 0 0
DWIDTH 0 0
BBX 11 6 -12 18
BITMAP
3CE0
39C0
31C0
7380
6300
E700
ENDCHAR
STARTCHAR 030C
ENCODING 780
SWIDTH 0 0
DWIDTH 0 0
BBX 11 6 -13 18
BITMAP
E0E0
71C0
3B80
3B80
1F00
1F00
ENDCHAR
STARTCHAR 030D
ENCODING 781
SWIDTH 0 0
DWIDTH 0 0
BBX 3 7 -9 18
BITMAP
E0
E0
E0
E0
E0
E0
E0
ENDCHAR
STARTCHAR 030E
ENCODING 782
SWIDTH 0 0
DWIDTH 0 0
BBX 9 7 -12 18
BITMAP
E380
E380
E380
E380
E380
E380
E380
ENDCHAR
STARTCHAR 030F
ENCODING 783
SWIDTH 0 0
DWIDTH 0 0
BBX 11 6 -14 18
BITMAP
E700
7380
7180
39C0
18C0
1C60
ENDCHAR
STARTCHAR 0310
ENCODING 784
SWIDTH 0 0
DWIDTH 0 0
BBX 10 6 -12 20
BITMAP
1E00
1E00
DFC0
FF80
7F80
3E00
ENDCHAR
STARTCHAR 0311
ENCODING 785
SWIDTH 0 0
DWIDTH 0 0
BBX 10 5 -12 19
BITMAP
0800
7F00
FF80
C180
C1C0
ENDCHAR
STARTCHAR 0312
ENCODING 786
SWIDTH 0 0
DWIDTH 0 0
BBX 6 4 -8 13
BITMAP
1C
38
78
F8
ENDCHAR
STARTCHAR 0313
ENCODING 787
SWIDTH 0 0
DWIDTH 0 0
BBX 4 7 -8 18
BITMAP
F0
F0
F0
30
70
F0
E0
ENDCHAR
STARTCHAR 0314
ENCODING 788
SWIDTH 0 0
DWIDTH 0 0
BBX 4 7 -8 18
BITMAP
F0
F0
F0
C0
E0
70
70
ENDCHAR
STARTCHAR 0315
ENCODING 789
SWIDTH 0 0
DWIDTH 0 0
BBX 5 6 -3 18
BITMAP
78
78
78
70
70
E0
ENDCHAR
STARTCHAR 0316
ENCODING 790
SWIDTH 0 0
DWIDTH 0 0
BBX 7 6 -13 -9
BITMAP
F0
78
38
3C
1E
0E
ENDCHAR
STARTCHAR 0317
ENCODING 791
SWIDTH 0 0
DWIDTH 0 0
BBX 7 6 -9 -9
BITMAP
1E
3C
38
70
E0
E0
ENDCHAR
STARTCHAR 0318
ENCODING 792
SWIDTH 0 0
DWIDTH 0 0
BBX 5 7 -11 -7
BITMAP
38
38
F8
F8
F8
38
38
ENDCHAR
STARTCHAR 0319
ENCODING 793
SWIDTH 0 0
DWIDTH 0 0
BBX 5 7 -9 -7
BITMAP
E0
E0
F8
F8
F8
E0
E0
ENDCHAR
STARTCHAR 031A
ENCODING 794
SWIDTH 0 0
DWIDTH 0 0
BBX 8 8 -7 20
BITMAP
FF
FF
FF
03
03
03
03
03
ENDCHAR
STARTCHAR 031B
ENCODING 795
SWIDTH 0 0
DWIDTH 0 0
BBX 6 6 -5 12
BITMAP
18
1C
1C
FC
F8
78
ENDCHAR
STARTCHAR 031C
ENCODING 796
SWIDTH 0 0
DWIDTH 0 0
BBX 4 7 -10 -7
BITMAP
10
70
E0
C0
C0
70
70
ENDCHAR
STARTCHAR 031D
ENCODING 797
SWIDTH 0 0
DWIDTH 0 0
BBX 9 5 -12 -7
BITMAP
1C00
1C00
FF80
FF80
FF80
ENDCHAR
STARTCHAR 031E
ENCODING 798
SWIDTH 0 0
DWIDTH 0 0
BBX 8 5 -12 -7
BITMAP
FF
FF
FF
1C
1C
ENDCHAR
STARTCHAR 031F
ENCODING 799
SWIDTH 0 0
DWIDTH 0 0
BBX 7 7 -11 -7
BITMAP
38
38
FE
FE
FE
38
38
ENDCHAR
STARTCHAR 0320
ENCODING 800
SWIDTH 0 0
DWIDTH 0 0
BBX 8 3 -12 -6
BITMAP
FF
FF
FF
ENDCHAR
STARTCHAR 0321
ENCODING 801
SWIDTH 0 0
DWIDTH 0 0
BBX 11 10 -13 -6
BITMAP
07E0
07E0
07E0
07E0
07E0
07C0
07C0
FFC0
FF80
FF00
ENDCHAR
STARTCHAR 0322
ENCODING 802
SWIDTH 0 0
DWIDTH 0 0
BBX 11 10 -13 -6
BITMAP
FC00
FC00
FC00
FC00
FC00
7C00
7C00
7FE0
3FE0
1FE0
ENDCHAR
STARTCHAR 0323
ENCODING 803
SWIDTH 0 0
DWIDTH 0 0
BBX 5 4 -10 -6
BITMAP
F8
F8
F8
F8
ENDCHAR
STARTCHAR 0324
ENCODING 804
SWIDTH 0 0
DWIDTH 0 0
BBX 9 4 -12 -7
BITMAP
E380
E380
E380
E380
ENDCHAR
STARTCHAR 0325
ENCODING 805
SWIDTH 0 0
DWIDTH 0 0
BBX 7 7 -11 -7
BITMAP
10
7C
EE
C6
EE
FC
7C
ENDCHAR
STARTCHAR 0326
ENCODING 806
SWIDTH 0 0
DWIDTH 0 0
BBX 6 4 -10 -7
BITMAP
7C
78
70
E0
ENDCHAR
STARTCHAR 0327
ENCODING 807
SWIDTH 0 0
DWIDTH 0 0
BBX 6 6 -11 -6
BITMAP
18
0C
0C
0C
FC
F8
ENDCHAR
STARTCHAR 0328
ENCODING 808
SWIDTH 0 0
DWIDTH 0 0
BBX 6 6 -10 -6
BITMAP
60
60
C0
E0
FC
7C
ENDCHAR
STARTCHAR 0329
ENCODING 809
SWIDTH 0 0
DWIDTH 0 0
BBX 3 6 -9 -7
BITMAP
E0
E0
E0
E0
E0
E0
ENDCHAR
STARTCHAR 032A
ENCODING 810
SWIDTH 0 0
DWIDTH 0 0
BBX 9 5 -12 -7
BITMAP
FF80
FF80
E380
E380
E380
ENDCHAR
STARTCHAR 032B
ENCODING 811
SWIDTH 0 0
DWIDTH 0 0
BBX 11 4 -13 -7
BITMAP
CE60
CE60
FFE0
7BC0
ENDCHAR
STARTCHAR 032C
ENCODING 812
SWIDTH 0 0
DWIDTH 0 0
BBX 11 6 -13 -8
BITMAP
E0E0
71C0
3B80
3B80
1F00
1F00
ENDCHAR
STARTCHAR 032D
ENCODING 813
SWIDTH 0 0
DWIDTH 0 0
BBX 11 6 -13 -8
BITMAP
1F00
1F00
3B80
3B80
71C0
E0E0
ENDCHAR
STARTCHAR 032E
ENCODING 814
SWIDTH 0 0
DWIDTH 0 0
BBX 10 4 -12 -6
BITMAP
C1C0
E180
7F80
3E00
ENDCHAR
STARTCHAR 032F
ENCODING 815
SWIDTH 0 0
DWIDTH 0 0
BBX 9 4 -12 -7
BITMAP
3F00
7F80
E380
C180
ENDCHAR
STARTCHAR 0330
ENCODING 816
SWIDTH 0 0
DWIDTH 0 0
BBX 10 6 -13 -8
BITMAP
30C0
78C0
6CC0
C6C0
C3C0
C380
ENDCHAR
STARTCHAR 0331
ENCODING 817
SWIDTH 0 0
DWIDTH 0 0
BBX 9 3 -12 -6
BITMAP
FF80
FF80
FF80
ENDCHAR
STARTCHAR 0332
ENCODING 818
SWIDTH 0 0
DWIDTH 0 0
BBX 15 3 -15 -7
BITMAP
FFFE
FFFE
FFFE
ENDCHAR
STARTCHAR 0333
ENCODING 819
SWIDTH 0 0
DWIDTH 0 0
BBX 15 7 -15 -7
BITMAP
FFFE
FFFE
FFFE
0000
FFFE
FFFE
FFFE
ENDCHAR
STARTCHAR 0334
ENCODING 820
SWIDTH 0 0
DWIDTH 0 0
BBX 19 5 -19 7
BITMAP
1F8020
7FE0E0
FFFFE0
E0FFC0
801F00
ENDCHAR
STARTCHAR 0335
ENCODING 821
SWIDTH 0 0
DWIDTH 0 0
BBX 11 3 -14 6
BITMAP
FFE0
FFE0
FFE0
ENDCHAR
STARTCHAR 0336
ENCODING 822
SWIDTH 0 0
DWIDTH 0 0
BBX 22 3 -25 6
BITMAP
FFFFFC
FFFFFC
FFFFFC
ENDCHAR
STARTCHAR 0337
ENCODING 823
SWIDTH 0 0
DWIDTH 0 0
BBX 17 18 -19 0
BITMAP
000180
000380
000700
000E00
001C00
003800
007000
00E000
01C000
038000
070000
0E0000
0C0000
1C0000
380000
700000
E00000
C00000
ENDCHAR
STARTCHAR 0338
ENCODING 824
SWIDTH 0 0
DWIDTH 0 0
BBX 24 24 -25 -1
BITMAP
000002
000007
00000F
00001E
00003C
000078
0000F0
0001E0
0003C0
000780
000F00
001E00
003C00
007800
00F000
01E000
03C000
078000
0F0000
1E0000
3C0000
780000
F00000
600000
ENDCHAR
STARTCHAR 0339
ENCODING 825
SWIDTH 0 0
DWIDTH 0 0
BBX 4 7 -9 -7
BITMAP
80
E0
70
30
70
E0
E0
ENDCHAR
STARTCHAR 033A
ENCODING 826
SWIDTH 0 0
DWIDTH 0 0
BBX 9 5 -12 -7
BITMAP
E380
E380
FF80
FF80
FF80
ENDCHAR
STARTCHAR 033B
ENCODING 827
SWIDTH 0 0
DWIDTH 0 0
BBX 7 7 -10 -7
BITMAP
FE
FE
C6
C6
C6
FE
FE
ENDCHAR
STARTCHAR 033C
ENCODING 828
SWIDTH 0 0
DWIDTH 0 0
BBX 11 4 -13 -7
BITMAP
7BC0
FFE0
CE60
CE60
ENDCHAR
STARTCHAR 033D
ENCODING 829
SWIDTH 0 0
DWIDTH 0 0
BBX 7 7 -11 18
BITMAP
44
EE
FE
7C
7C
FE
6C
ENDCHAR
STARTCHAR 033E
ENCODING 830
SWIDTH 0 0
DWIDTH 0 0
BBX 4 8 -8 18
BITMAP
70
F0
C0
E0
70
30
F0
E0
ENDCHAR
STARTCHAR 033F
ENCODING 831
SWIDTH 0 0
DWIDTH 0 0
BBX 15 7 -15 16
BITMAP
FFFE
FFFE
FFFE
0000
FFFE
FFFE
FFFE
ENDCHAR
STARTCHAR 0340
ENCODING 832
SWIDTH 0 0
DWIDTH 0 0
BBX 7 6 -13 18
BITMAP
F0
78
38
3C
1E
0E
ENDCHAR
STARTCHAR 0341
ENCODING 833
SWIDTH 0 0
DWIDTH 0 0
BBX 7 6 -9 18
BITMAP
1E
3C
38
70
F0
E0
ENDCHAR
STARTCHAR 0342
ENCODING 834
SWIDTH 0 0
DWIDTH 0 0
BBX 11 6 -13 18
BITMAP
3060
78E0
6CC0
66C0
C3C0
C380
ENDCHAR
STARTCHAR 0343
ENCODING 835
SWIDTH 0 0
DWIDTH 0 0
BBX 4 7 -8 18
BITMAP
F0
F0
F0
30
70
F0
E0
ENDCHAR
STARTCHAR 0344
ENCODING 836
SWIDTH 0 0
DWIDTH 0 0
BBX 10 10 -12 19
BITMAP
03C0
0780
0F00
0E00
1C00
3800
E380
E380
E380
E380
ENDCHAR
STARTCHAR 0345
ENCODING 837
SWIDTH 0 0
DWIDTH 0 0
BBX 4 5 -9 -6
BITMAP
E0
E0
E0
E0
70
ENDCHAR
STARTCHAR 0346
ENCODING 838
SWIDTH 0 0
DWIDTH 0 0
BBX 9 5 -12 19
BITMAP
FF80
FF80
FF80
E380
E380
ENDCHAR
STARTCHAR 0347
ENCODING 839
SWIDTH 0 0
DWIDTH 0 0
BBX 7 6 -11 -7
BITMAP
FE
FE
00
00
FE
FE
ENDCHAR
STARTCHAR 0348
ENCODING 840
SWIDTH 0 0
DWIDTH 0 0
BBX 7 6 -11 -7
BITMAP
EE
EE
EE
EE
EE
EE
ENDCHAR
STARTCHAR 0349
ENCODING 841
SWIDTH 0 0
DWIDTH 0 0
BBX 7 6 -11 -7
BITMAP
FE
FE
0E
0E
0E
0E
ENDCHAR
STARTCHAR 034A
ENCODING 842
SWIDTH 0 0
DWIDTH 0 0
BBX 11 6 -13 18
BITMAP
0300
3EE0
7EC0
EFC0
DB80
1800
ENDCHAR
STARTCHAR 034B
ENCODING 843
SWIDTH 0 0
DWIDTH 0 0
BBX 11 8 -13 17
BITMAP
0300
0300
38E0
7EC0
E7C0
C380
1800
1800
ENDCHAR
STARTCHAR 034C
ENCODING 844
SWIDTH 0 0
DWIDTH 0 0
BBX 11 8 -13 17
BITMAP
3060
7CE0
6FC0
E3C0
3060
7CE0
6FC0
E3C0
ENDCHAR
STARTCHAR 034D
ENCODING 845
SWIDTH 0 0
DWIDTH 0 0
BBX 11 6 -13 -7
BITMAP
71C0
E0E0
FFE0
FFE0
60C0
71C0
ENDCHAR
STARTCHAR 034E
ENCODING 846
SWIDTH 0 0
DWIDTH 0 0
BBX 7 6 -11 -7
BITMAP
10
38
7C
FE
92
10
ENDCHAR
STARTCHAR 034F
ENCODING 847
SWIDTH 0 0
DWIDTH 0 0
BBX 0 0 0 0
BITMAP
ENDCHAR
STARTCHAR 0351
ENCODING 849
SWIDTH 0 0
DWIDTH 0 0
BBX 5 9 -10 18
BITMAP
18
38
78
E0
E0
E0
78
38
18
ENDCHAR
STARTCHAR 0352
ENCODING 850
SWIDTH 0 0
DWIDTH 0 0
BBX 10 8 -12 19
BITMAP
0800
7F00
FF80
C180
DFC0
1E00
1E00
1E00
ENDCHAR
STARTCHAR 0353
ENCODING 851
SWIDTH 0 0
DWIDTH 0 0
BBX 7 6 -11 -6
BITMAP
6C
FC
7C
7C
FE
4C
ENDCHAR
STARTCHAR 0357
ENCODING 855
SWIDTH 0 0
DWIDTH 0 0
BBX 5 9 -10 18
BITMAP
C0
E0
F0
30
38
38
F0
E0
C0
ENDCHAR
STARTCHAR 0358
ENCODING 856
SWIDTH 0 0
DWIDTH 0 0
BBX 4 4 -4 19
BITMAP
F0
F0
F0
F0
ENDCHAR
STARTCHAR 035A
ENCODING 858
SWIDTH 0 0
DWIDTH 0 0
BBX 11 7 -13 -7
BITMAP
3180
FFC0
FFE0
CE60
CE60
FFE0
7BC0
ENDCHAR
STARTCHAR 035C
ENCODING 860
SWIDTH 0 0
DWIDTH 0 0
BBX 27 5 -13 -7
BITMAP
80000020
F80003E0
FFFFFFE0
3FFFFF00
01FFF000
ENDCHAR
STARTCHAR 035D
ENCODING 861
SWIDTH 0 0
DWIDTH 0 0
BBX 27 5 -13 24
BITMAP
80000020
F80003E0
FFFFFFE0
3FFFFF00
01FFF000
ENDCHAR
STARTCHAR 035E
ENCODING 862
SWIDTH 0 0
DWIDTH 0 0
BBX 26 3 -13 24
BITMAP
FFFFFFC0
FFFFFFC0
FFFFFFC0
ENDCHAR
STARTCHAR 035F
ENCODING 863
SWIDTH 0 0
DWIDTH 0 0
BBX 26 3 -13 -6
BITMAP
FFFFFFC0
FFFFFFC0
FFFFFFC0
ENDCHAR
STARTCHAR 0360
ENCODING 864
SWIDTH 0 0
DWIDTH 0 0
BBX 22 4 -11 23
BITMAP
0F801C
3FF83C
7FFFF8
E01FF0
ENDCHAR
STARTCHAR 0361
ENCODING 865
SWIDTH 0 0
DWIDTH 0 0
BBX 26 5 -13 23
BITMAP
007FC000
1FFFFE00
FFFFFFC0
FC000FC0
80000040
ENDCHAR
STARTCHAR 0362
ENCODING 866
SWIDTH 0 0
DWIDTH 0 0
BBX 26 6 -13 -7
BITMAP
00000380
00000180
FFFFFFC0
FFFFFFC0
00000180
00000300
ENDCHAR
STARTCHAR 0370
ENCODING 880
SWIDTH 700 0
DWIDTH 21 0
BBX 15 22 3 0
BITMAP
F800
F800
F800
F800
F800
F800
F800
F800
FFFE
FFFE
FFFE
FFFE
FFFE
F800
F800
F800
F800
F800
F800
F800
F800
F800
ENDCHAR
STARTCHAR 0371
ENCODING 881
SWIDTH 566 0
DWIDTH 17 0
BBX 11 16 3 0
BITMAP
F800
F800
F800
F800
F800
F800
FFE0
FFE0
FFE0
F800
F800
F800
F800
F800
F800
F800
ENDCHAR
STARTCHAR 0372
ENCODING 882
SWIDTH 1033 0
DWIDTH 31 0
BBX 25 22 3 0
BITMAP
FFFFFF80
FFFFFF80
FFFFFF80
FFFFFF80
F83E1F80
F83E1F80
F83E1F80
F83E1F80
F83E1F80
F83E1F80
F83E1F80
F83E1F80
003E0000
003E0000
003E0000
003E0000
003E0000
003E0000
003E0000
003E0000
003E0000
003E0000
ENDCHAR
STARTCHAR 0373
ENCODING 883
SWIDTH 833 0
DWIDTH 25 0
BBX 19 22 3 0
BITMAP
FFFFE0
FFFFE0
FFFFE0
FFFFE0
F9F3E0
F9F3E0
F9F3E0
F9F3E0
F9F3E0
F9F3E0
F9F3E0
F9F3E0
01F000
01F000
01F000
01F000
01F000
01F000
01F000
01F000
01F000
01F000
ENDCHAR
STARTCHAR 0374
ENCODING 884
SWIDTH 300 0
DWIDTH 9 0
BBX 4 7 2 17
BITMAP
70
70
70
70
70
60
E0
ENDCHAR
STARTCHAR 0375
ENCODING 885
SWIDTH 300 0
DWIDTH 9 0
BBX 4 7 2 -6
BITMAP
30
30
70
70
70
70
F0
ENDCHAR
STARTCHAR 0376
ENCODING 886
SWIDTH 833 0
DWIDTH 25 0
BBX 19 22 3 0
BITMAP
F807E0
F80FE0
F80FE0
F81FE0
F81FE0
F83FE0
F83FE0
F87FE0
F87BE0
F8FBE0
F9F3E0
F9F3E0
FBE3E0
FBE3E0
FFC3E0
FF83E0
FF83E0
FF03E0
FF03E0
FE03E0
FE03E0
FC03E0
ENDCHAR
STARTCHAR 0377
ENCODING 887
SWIDTH 700 0
DWIDTH 21 0
BBX 16 16 3 0
BITMAP
F83F
F87F
F8FF
F8FF
F9FF
F9FF
FBFF
FFFF
FFFF
FFBF
FF3F
FF3F
FE3F
FE3F
FC3F
F83F
ENDCHAR
STARTCHAR 037A
ENCODING 890
SWIDTH 500 0
DWIDTH 15 0
BBX 4 5 6 -6
BITMAP
E0
E0
E0
E0
F0
ENDCHAR
STARTCHAR 037B
ENCODING 891
SWIDTH 600 0
DWIDTH 18 0
BBX 15 16 1 0
BITMAP
1F80
7FE0
FFF8
E1FC
C0FC
807C
007E
007E
007E
007E
807C
80FC
E1FC
FFF8
7FE0
1F80
ENDCHAR
STARTCHAR 037C
ENCODING 892
SWIDTH 566 0
DWIDTH 17 0
BBX 15 16 1 0
BITMAP
03F8
0FFE
3FFE
3F06
7E02
7CF8
FCF8
FCF8
FCF8
FCF8
7CF8
7E02
3F06
3FFE
0FFE
03F8
ENDCHAR
STARTCHAR 037D
ENCODING 893
SWIDTH 533 0
DWIDTH 16 0
BBX 15 16 1 0
BITMAP
1F80
7FE0
FFF8
E1FC
C0FC
BE7C
3E7E
3E7E
3E7E
3E7E
BE7C
80FC
E1FC
FFF8
7FE0
1F80
ENDCHAR
STARTCHAR 037E
ENCODING 894
SWIDTH 400 0
DWIDTH 12 0
BBX 7 20 2 -4
BITMAP
7E
7E
7E
7E
7E
7E
00
00
00
00
7E
7E
7E
7E
7E
7C
78
78
F0
E0
ENDCHAR
STARTCHAR 037F
ENCODING 895
SWIDTH 366 0
DWIDTH 11 0
BBX 10 28 -2 -6
BITMAP
07C0
07C0
07C0
07C0
07C0
07C0
07C0
07C0
07C0
07C0
07C0
07C0
07C0
07C0
07C0
07C0
07C0
07C0
07C0
07C0
07C0
07C0
0FC0
1FC0
FF80
FF80
FF00
F800
ENDCHAR
STARTCHAR 0384
ENCODING 900
SWIDTH 433 0
DWIDTH 13 0
BBX 8 6 5 18
BITMAP
0F
1E
3C
38
70
E0
ENDCHAR
STARTCHAR 0385
ENCODING 901
SWIDTH 500 0
DWIDTH 15 0
BBX 10 10 3 19
BITMAP
03C0
0780
0F00
0E00
1C00
3800
E380
E380
E380
E380
ENDCHAR
STARTCHAR 0386
ENCODING 902
SWIDTH 800 0
DWIDTH 24 0
BBX 23 24 1 0
BITMAP
0F0000
1E0000
3CFE00
79FE00
71FF00
E1FF00
03FF00
03FF80
03EF80
07EF80
07CFC0
0FC7C0
0FC7E0
0F87E0
1F83E0
1F03F0
1FFFF0
3FFFF0
3FFFF8
7FFFF8
7E00F8
7C00FC
FC007C
FC007E
ENDCHAR
STARTCHAR 0387
ENCODING 903
SWIDTH 366 0
DWIDTH 11 0
BBX 5 6 3 7
BITMAP
F8
F8
F8
F8
F8
F8
ENDCHAR
STARTCHAR 0388
ENCODING 904
SWIDTH 833 0
DWIDTH 25 0
BBX 23 24 0 0
BITMAP
1E0000
3C0000
38FFFE
70FFFE
F0FFFE
E0FFFE
00F800
00F800
00F800
00F800
00F800
00FFFC
00FFFC
00FFFC
00FFFC
00F800
00F800
00F800
00F800
00F800
00FFFE
00FFFE
00FFFE
00FFFE
ENDCHAR
STARTCHAR 0389
ENCODING 905
SWIDTH 1000 0
DWIDTH 30 0
BBX 27 24 0 0
BITMAP
1E000000
1C000000
38F803E0
78F803E0
F0F803E0
E0F803E0
00F803E0
00F803E0
00F803E0
00F803E0
00F803E0
00FFFFE0
00FFFFE0
00FFFFE0
00FFFFE0
00F803E0
00F803E0
00F803E0
00F803E0
00F803E0
00F803E0
00F803E0
00F803E0
00F803E0
ENDCHAR
STARTCHAR 038A
ENCODING 906
SWIDTH 566 0
DWIDTH 17 0
BBX 13 24 0 0
BITMAP
1E00
3C00
38F8
70F8
F0F8
E0F8
00F8
00F8
00F8
00F8
00F8
00F8
00F8
00F8
00F8
00F8
00F8
00F8
00F8
00F8
00F8
00F8
00F8
00F8
ENDCHAR
STARTCHAR 038C
ENCODING 908
SWIDTH 900 0
DWIDTH 27 0
BBX 25 24 0 0
BITMAP
1E000000
1C000000
383FC000
79FFF000
F3FFFC00
E7FFFE00
0FF0FE00
0FC03F00
1F803F00
1F801F80
1F801F80
1F801F80
1F001F80
1F001F80
1F001F80
1F801F80
1F801F80
1F803F00
0FC03F00
0FE0FE00
07FFFE00
03FFFC00
01FFF000
003FC000
ENDCHAR
STARTCHAR 038E
ENCODING 910
SWIDTH 966 0
DWIDTH 29 0
BBX 29 24 0 0
BITMAP
1E000000
3C000000
38FC01F8
70FE01F8
E07E03F0
E03F07E0
003F07E0
001F8FC0
000FDFC0
000FDF80
0007FF00
0003FF00
0003FE00
0001FC00
0000FC00
0000F800
0000F800
0000F800
0000F800
0000F800
0000F800
0000F800
0000F800
0000F800
ENDCHAR
STARTCHAR 038F
ENCODING 911
SWIDTH 900 0
DWIDTH 27 0
BBX 27 24 -1 0
BITMAP
0F000000
1E000000
3C1FE000
387FF800
71FFFE00
E3FFFF00
03F87F80
07E01F80
07E01FC0
0FC00FC0
0FC00FC0
0FC00FC0
0FC00FC0
0FC00FC0
0FC00FC0
0FC00FC0
07C00FC0
07E01F80
03F03F00
01F87E00
1FF87FE0
1FF87FE0
1FF87FE0
1FF87FE0
ENDCHAR
STARTCHAR 0390
ENCODING 912
SWIDTH 400 0
DWIDTH 12 0
BBX 10 29 1 0
BITMAP
03C0
0780
0F00
0E00
1C00
3800
E780
E780
E780
E780
0000
0000
0000
3E00
3E00
3E00
3E00
3E00
3E00
3E00
3E00
3E00
3E00
3E00
3E00
3E00
3FC0
3FC0
1FC0
ENDCHAR
STARTCHAR 0391
ENCODING 913
SWIDTH 766 0
DWIDTH 23 0
BBX 23 22 0 0
BITMAP
00FE00
00FF00
01FF00
01FF00
01FF80
03FF80
03EF80
07EFC0
07C7C0
07C7C0
0FC7E0
0F83E0
0F83F0
1F83F0
1FFFF0
1FFFF8
3FFFF8
3FFFF8
7E00FC
7E007C
7C007E
FC007E
ENDCHAR
STARTCHAR 0392
ENCODING 914
SWIDTH 766 0
DWIDTH 23 0
BBX 18 22 3 0
BITMAP
FFF800
FFFE00
FFFF00
FFFF00
F83F80
F81F80
F81F80
F81F80
F83F00
FFFF00
FFFC00
FFFF00
FFFF80
F81F80
F80FC0
F80FC0
F80FC0
F81FC0
FFFF80
FFFF80
FFFF00
FFF800
ENDCHAR
STARTCHAR 0393
ENCODING 915
SWIDTH 633 0
DWIDTH 19 0
BBX 15 22 3 0
BITMAP
FFFE
FFFE
FFFE
FFFE
F800
F800
F800
F800
F800
F800
F800
F800
F800
F800
F800
F800
F800
F800
F800
F800
F800
F800
ENDCHAR
STARTCHAR 0394
ENCODING 916
SWIDTH 766 0
DWIDTH 23 0
BBX 23 22 0 0
BITMAP
00FE00
00FF00
01FF00
01FF00
01FF80
03FF80
03EF80
07EFC0
07E7C0
07C7C0
0FC7E0
0FC3E0
0F83F0
1F83F0
1F81F0
1F01F8
3F01F8
3F00F8
7FFFFC
7FFFFC
7FFFFE
FFFFFE
ENDCHAR
STARTCHAR 0395
ENCODING 917
SWIDTH 700 0
DWIDTH 21 0
BBX 15 22 3 0
BITMAP
FFFE
FFFE
FFFE
FFFE
F800
F800
F800
F800
F800
FFFC
FFFC
FFFC
FFFC
F800
F800
F800
F800
F800
FFFE
FFFE
FFFE
FFFE
ENDCHAR
STARTCHAR 0396
ENCODING 918
SWIDTH 733 0
DWIDTH 22 0
BBX 19 22 1 0
BITMAP
7FFFE0
7FFFE0
7FFFE0
7FFFE0
000FC0
001F80
003F80
007F00
00FE00
00FC00
01F800
03F800
07F000
0FE000
0FC000
1F8000
3F8000
7F0000
FFFFE0
FFFFE0
FFFFE0
FFFFE0
ENDCHAR
STARTCHAR 0397
ENCODING 919
SWIDTH 833 0
DWIDTH 25 0
BBX 19 22 3 0
BITMAP
F803E0
F803E0
F803E0
F803E0
F803E0
F803E0
F803E0
F803E0
F803E0
FFFFE0
FFFFE0
FFFFE0
FFFFE0
F803E0
F803E0
F803E0
F803E0
F803E0
F803E0
F803E0
F803E0
F803E0
ENDCHAR
STARTCHAR 0398
ENCODING 920
SWIDTH 866 0
DWIDTH 26 0
BBX 23 22 1 0
BITMAP
00FF00
07FFC0
0FFFF0
1FFFF8
3F83F8
3F01FC
7E00FC
7E007E
7E007E
7CFF7E
FCFF7E
FCFF7E
7CFF7E
7E007E
7E007E
7E00FC
3F01FC
3F83F8
1FFFF8
0FFFF0
07FFC0
00FF00
ENDCHAR
STARTCHAR 0399
ENCODING 921
SWIDTH 366 0
DWIDTH 11 0
BBX 5 22 3 0
BITMAP
F8
F8
F8
F8
F8
F8
F8
F8
F8
F8
F8
F8
F8
F8
F8
F8
F8
F8
F8
F8
F8
F8
ENDCHAR
STARTCHAR 039A
ENCODING 922
SWIDTH 766 0
DWIDTH 23 0
BBX 21 22 3 0
BITMAP
F807F0
F80FE0
F81FC0
F83F80
F87F00
F8FE00
F9FC00
FBF800
FFF000
FFC000
FFC000
FFE000
FFF000
FBF800
F9FC00
F8FE00
F87F00
F83F80
F81FC0
F80FE0
F807F0
F803F8
ENDCHAR
STARTCHAR 039B
ENCODING 923
SWIDTH 766 0
DWIDTH 23 0
BBX 23 22 0 0
BITMAP
00FE00
00FF00
01FF00
01FF00
01FF80
03EF80
03EF80
07EFC0
07C7C0
07C7C0
0FC7E0
0F83E0
0F83F0
1F83F0
1F01F0
1F01F8
3F00F8
3E00F8
7E00FC
7E007C
7C007E
FC007E
ENDCHAR
STARTCHAR 039C
ENCODING 924
SWIDTH 1000 0
DWIDTH 30 0
BBX 24 22 3 0
BITMAP
FE007F
FF00FF
FF00FF
FF01FF
FF81FF
FF81FF
FFC3FF
FBC3DF
FBC7DF
F9E79F
F9EF9F
F9FF1F
F8FF1F
F8FF1F
F87E1F
F87E1F
F83C1F
F83C1F
F8001F
F8001F
F8001F
F8001F
ENDCHAR
STARTCHAR 039D
ENCODING 925
SWIDTH 833 0
DWIDTH 25 0
BBX 19 22 3 0
BITMAP
FC03E0
FE03E0
FE03E0
FF03E0
FF03E0
FF83E0
FF83E0
FFC3E0
FBE3E0
FBE3E0
F9F3E0
F8F3E0
F8FBE0
F87BE0
F87FE0
F83FE0
F83FE0
F81FE0
F81FE0
F80FE0
F80FE0
F807E0
ENDCHAR
STARTCHAR 039E
ENCODING 926
SWIDTH 633 0
DWIDTH 19 0
BBX 13 22 3 0
BITMAP
FFF8
FFF8
FFF8
FFF8
0000
0000
0000
0000
0000
7FF0
7FF0
7FF0
7FF0
0000
0000
0000
0000
0000
FFF8
FFF8
FFF8
FFF8
ENDCHAR
STARTCHAR 039F
ENCODING 927
SWIDTH 866 0
DWIDTH 26 0
BBX 23 22 1 0
BITMAP
00FF00
07FFC0
0FFFF0
1FFFF8
3F83F8
3F01FC
7E00FC
7E007E
7E007E
7C007E
FC007E
FC007E
7C007E
7E007E
7E007E
7E00FC
3F01FC
3F83F8
1FFFF8
0FFFF0
07FFC0
00FF00
ENDCHAR
STARTCHAR 03A0
ENCODING 928
SWIDTH 833 0
DWIDTH 25 0
BBX 19 22 3 0
BITMAP
FFFFE0
FFFFE0
FFFFE0
FFFFE0
F803E0
F803E0
F803E0
F803E0
F803E0
F803E0
F803E0
F803E0
F803E0
F803E0
F803E0
F803E0
F803E0
F803E0
F803E0
F803E0
F803E0
F803E0
ENDCHAR
STARTCHAR 03A1
ENCODING 929
SWIDTH 733 0
DWIDTH 22 0
BBX 18 22 3 0
BITMAP
FFF800
FFFE00
FFFF00
FFFF80
F81F80
F80FC0
F80FC0
F80FC0
F80FC0
F81F80
FFFF80
FFFF00
FFFE00
FFF800
F80000
F80000
F80000
F80000
F80000
F80000
F80000
F80000
ENDCHAR
STARTCHAR 03A3
ENCODING 931
SWIDTH 700 0
DWIDTH 21 0
BBX 15 22 3 0
BITMAP
FFFE
FFFE
FFFE
FFFE
FC00
7E00
3F00
1F80
07C0
03F0
01F0
03E0
07C0
0F80
1F00
3E00
7C00
F800
FFFE
FFFE
FFFE
FFFE
ENDCHAR
STARTCHAR 03A4
ENCODING 932
SWIDTH 666 0
DWIDTH 20 0
BBX 20 22 0 0
BITMAP
FFFFF0
FFFFF0
FFFFF0
FFFFF0
01F800
01F800
01F800
01F800
01F800
01F800
01F800
01F800
01F800
01F800
01F800
01F800
01F800
01F800
01F800
01F800
01F800
01F800
ENDCHAR
STARTCHAR 03A5
ENCODING 933
SWIDTH 733 0
DWIDTH 22 0
BBX 22 22 0 0
BITMAP
FC00FC
7E01F8
7E03F0
3F03F0
1F87E0
1F8FC0
0FCFC0
07FF80
07FF00
03FF00
01FE00
01FE00
00FC00
00FC00
00FC00
00FC00
00FC00
00FC00
00FC00
00FC00
00FC00
00FC00
ENDCHAR
STARTCHAR 03A6
ENCODING 934
SWIDTH 866 0
DWIDTH 26 0
BBX 23 22 1 0
BITMAP
007E00
007E00
01FF80
07FFE0
1FFFF0
3FFFF8
3F7FFC
7E7EFC
7E7E7E
7C7E7E
FC7E7E
FC7E7E
7C7E7E
7E7E7E
7E7EFC
3F7FFC
3FFFF8
1FFFF0
07FFE0
01FF80
007E00
007E00
ENDCHAR
STARTCHAR 03A7
ENCODING 935
SWIDTH 766 0
DWIDTH 23 0
BBX 21 22 1 0
BITMAP
FC01F8
7E03F0
3E03F0
3F07E0
1F8FC0
0F8FC0
0FDF80
07FF00
03FE00
03FE00
01FC00
01FC00
03FE00
07FF00
07FF00
0FDF80
1F8FC0
1F87E0
3F07E0
7E03F0
7E01F8
FC01F8
ENDCHAR
STARTCHAR 03A8
ENCODING 936
SWIDTH 833 0
DWIDTH 25 0
BBX 22 22 2 0
BITMAP
F8FCFC
F8FCFC
F8FCFC
F8FCFC
F8FCFC
F8FCFC
F8FCFC
F8FCFC
F8FCFC
FCFCF8
FCFCF8
7CFDF8
7EFFF0
3FFFF0
1FFFE0
0FFF80
03FF00
00FC00
00FC00
00FC00
00FC00
00FC00
ENDCHAR
STARTCHAR 03A9
ENCODING 937
SWIDTH 866 0
DWIDTH 26 0
BBX 24 22 1 0
BITMAP
00FF00
07FFC0
0FFFE0
1FFFF0
3F83F8
3F01FC
7E00FC
7E007E
7E007E
7C007E
FC007E
7C007E
7C007E
7E007E
7E00FC
3F00FC
3F01F8
0FC3F0
FFC3FF
FFC3FF
FFC3FF
FFC3FF
ENDCHAR
STARTCHAR 03AA
ENCODING 938
SWIDTH 366 0
DWIDTH 11 0
BBX 9 28 1 0
BITMAP
E380
E380
E380
E380
0000
0000
3E00
3E00
3E00
3E00
3E00
3E00
3E00
3E00
3E00
3E00
3E00
3E00
3E00
3E00
3E00
3E00
3E00
3E00
3E00
3E00
3E00
3E00
ENDCHAR
STARTCHAR 03AB
ENCODING 939
SWIDTH 733 0
DWIDTH 22 0
BBX 22 28 0 0
BITMAP
03CF00
03CF00
03CF00
03CF00
000000
000000
FC00FC
7E01F8
7E03F0
3F03F0
1F87E0
1F8FC0
0FCFC0
07FF80
07FF00
03FF00
01FE00
01FE00
00FC00
00FC00
00FC00
00FC00
00FC00
00FC00
00FC00
00FC00
00FC00
00FC00
ENDCHAR
STARTCHAR 03AC
ENCODING 940
SWIDTH 700 0
DWIDTH 21 0
BBX 18 24 1 0
BITMAP
003C00
007800
007000
00E000
01C000
01C000
000000
000000
07E7C0
1FFFC0
3FFF80
7E3F80
7C3F80
7C1F00
FC1F00
FC1F00
FC1E00
7C3F00
7C3F00
7C3F00
7E7F00
3FFFC0
1FFFC0
0FF3C0
ENDCHAR
STARTCHAR 03AD
ENCODING 941
SWIDTH 566 0
DWIDTH 17 0
BBX 13 24 2 0
BITMAP
00F0
01E0
01C0
0380
0700
0700
0000
0000
1F80
7FE0
FFF0
FC70
F810
F800
7FC0
1FC0
7FC0
FC00
F008
F018
FC38
FFF8
7FF0
1FC0
ENDCHAR
STARTCHAR 03AE
ENCODING 942
SWIDTH 700 0
DWIDTH 21 0
BBX 16 30 3 -6
BITMAP
0078
00F0
01E0
01C0
0380
0700
0000
0000
F8F8
FBFE
FFFE
FE3F
FC3F
F81F
F81F
F81F
F81F
F81F
F81F
F81F
F81F
F81F
F81F
F81F
001F
001F
001F
001F
001F
001F
ENDCHAR
STARTCHAR 03AF
ENCODING 943
SWIDTH 400 0
DWIDTH 12 0
BBX 8 24 2 0
BITMAP
0F
1E
1C
38
78
70
00
00
FC
FC
FC
FC
FC
FC
FC
FC
FC
FC
FC
FC
FC
FF
7F
3F
ENDCHAR
STARTCHAR 03B0
ENCODING 944
SWIDTH 666 0
DWIDTH 20 0
BBX 17 29 2 0
BITMAP
007800
00F000
00E000
01C000
038000
038000
1C7000
1C7000
1C7000
1C7000
000000
000000
000000
FC3C00
FC1E00
FC1F00
FC1F00
FC0F80
FC0F80
FC0F80
FC0F80
FC0F80
FC0F80
FC1F00
FC1F00
7C3F00
7FFE00
3FFC00
0FF000
ENDCHAR
STARTCHAR 03B1
ENCODING 945
SWIDTH 700 0
DWIDTH 21 0
BBX 18 16 1 0
BITMAP
07E7C0
1FFFC0
3FFF80
7E3F80
7C3F80
7C1F00
FC1F00
FC1F00
FC1E00
7C3F00
7C3F00
7C3F00
7E7F00
3FFFC0
1FFFC0
0FF3C0
ENDCHAR
STARTCHAR 03B2
ENCODING 946
SWIDTH 700 0
DWIDTH 21 0
BBX 17 29 3 -6
BITMAP
07E000
1FF800
3FFC00
7C7C00
F83E00
F83E00
F83E00
F83E00
F87C00
F8FC00
FBF000
FBFC00
FBFE00
F87F00
F81F80
F81F80
F81F80
F80F80
FC1F80
FE3F80
FFFF00
FBFE00
F8F800
F80000
F80000
F80000
F80000
F80000
F80000
ENDCHAR
STARTCHAR 03B3
ENCODING 947
SWIDTH 666 0
DWIDTH 20 0
BBX 20 22 0 -6
BITMAP
F801F0
FE03E0
FE03E0
1F07E0
1F07C0
0F87C0
0F8F80
078F80
07CF00
07DF00
03FF00
03FE00
01FE00
01FC00
01FC00
00FC00
00F800
00F800
00F800
00F800
00F800
00F800
ENDCHAR
STARTCHAR 03B4
ENCODING 948
SWIDTH 700 0
DWIDTH 21 0
BBX 18 23 1 0
BITMAP
03F800
0FFE00
1FFF00
3F0700
3E0100
3E0000
1F8000
1FF800
0FFE00
1FFF00
3E1F80
7C0FC0
7C07C0
FC07C0
FC07C0
FC07C0
FC07C0
7C0FC0
7E0FC0
3F1F80
3FFF00
0FFE00
03F800
ENDCHAR
STARTCHAR 03B5
ENCODING 949
SWIDTH 566 0
DWIDTH 17 0
BBX 13 16 2 0
BITMAP
1F80
7FE0
FFF0
FC70
F810
F800
7FC0
1FC0
7FC0
FC00
F008
F018
FC38
FFF8
7FF0
1FC0
ENDCHAR
STARTCHAR 03B6
ENCODING 950
SWIDTH 600 0
DWIDTH 18 0
BBX 15 29 1 -6
BITMAP
7FFE
7FFE
7FFE
7FFE
007C
01F0
07E0
0F80
1F00
3F00
3E00
7C00
7C00
FC00
FC00
FC00
FC00
FC00
7F00
7FF8
3FFC
1FFE
03FE
000E
000E
003E
003E
003C
0038
ENDCHAR
STARTCHAR 03B7
ENCODING 951
SWIDTH 700 0
DWIDTH 21 0
BBX 16 22 3 -6
BITMAP
F8F8
FBFE
FFFE
FE3F
FC3F
F81F
F81F
F81F
F81F
F81F
F81F
F81F
F81F
F81F
F81F
F81F
001F
001F
001F
001F
001F
001F
ENDCHAR
STARTCHAR 03B8
ENCODING 952
SWIDTH 700 0
DWIDTH 21 0
BBX 18 23 1 0
BITMAP
03F800
0FFE00
1FFF00
3F1F00
3E0F80
7E0F80
7C0FC0
7C07C0
FC07C0
FFFFC0
FFFFC0
FFFFC0
FC07C0
FC07C0
FC07C0
7C0FC0
7C0FC0
7E0F80
3E1F80
3F3F80
1FFF00
0FFE00
03F800
ENDCHAR
STARTCHAR 03B9
ENCODING 953
SWIDTH 400 0
DWIDTH 12 0
BBX 8 16 2 0
BITMAP
FC
FC
FC
FC
FC
FC
FC
FC
FC
FC
FC
FC
FC
FF
7F
3F
ENDCHAR
STARTCHAR 03BA
ENCODING 954
SWIDTH 700 0
DWIDTH 21 0
BBX 16 16 3 0
BITMAP
F87E
F8FC
F9F8
FBF0
FFE0
FFC0
FFC0
FFE0
FFE0
FBF0
F9F8
F9FC
F8FC
F87E
F87F
F83F
ENDCHAR
STARTCHAR 03BB
ENCODING 955
SWIDTH 633 0
DWIDTH 19 0
BBX 17 23 1 0
BITMAP
7E0000
7F0000
7F8000
0FC000
07C000
07E000
03E000
03E000
03F000
03F000
07F000
07F800
0FF800
0FFC00
1FFC00
1F7C00
1F7E00
3E3E00
3E3E00
7E1F00
7C1F00
FC1F80
F80F80
ENDCHAR
STARTCHAR 03BC
ENCODING 956
SWIDTH 733 0
DWIDTH 22 0
BBX 18 22 3 -6
BITMAP
F81F00
F81F00
F81F00
F81F00
F81F00
F81F00
F81F00
F81F00
F81F00
F81F00
F81F00
F83F00
FC3F00
FFFFC0
FFFFC0
FBC7C0
F80000
F80000
F80000
F80000
F80000
F80000
ENDCHAR
STARTCHAR 03BD
ENCODING 957
SWIDTH 666 0
DWIDTH 20 0
BBX 18 16 1 0
BITMAP
F81F00
F80F80
FC0F80
7C07C0
7C07C0
3E07C0
3E07C0
3E07C0
1F0FC0
1F0F80
0F1F00
0FBF00
0FBE00
07FC00
07F800
03F000
ENDCHAR
STARTCHAR 03BE
ENCODING 958
SWIDTH 600 0
DWIDTH 18 0
BBX 15 29 1 -6
BITMAP
7FFE
7FFE
7FFE
7FFE
0FC0
1F00
3E00
3E00
3E00
1F80
03F8
1FF8
3FF8
7F00
7C00
FC00
FC00
FC00
FE00
7FF8
3FFC
1FFE
07FE
000E
000E
003E
003E
003C
0038
ENDCHAR
STARTCHAR 03BF
ENCODING 959
SWIDTH 700 0
DWIDTH 21 0
BBX 18 16 1 0
BITMAP
03F800
0FFE00
3FFF00
7F1F80
7E0FC0
7C07C0
FC07C0
FC07C0
FC07C0
FC07C0
7C07C0
7E0FC0
7F1F80
3FFF00
1FFE00
03F800
ENDCHAR
STARTCHAR 03C0
ENCODING 960
SWIDTH 800 0
DWIDTH 24 0
BBX 21 16 1 0
BITMAP
FFFFF8
FFFFF8
FFFFF8
1F07C0
1F07C0
1F07C0
1F07C0
1F07C0
1F07C0
1F07C0
1F07C0
1F07C0
1F07C0
1F07F8
1F07F8
1F03F8
ENDCHAR
STARTCHAR 03C1
ENCODING 961
SWIDTH 700 0
DWIDTH 21 0
BBX 17 22 3 -6
BITMAP
07F000
1FFC00
3FFE00
7C3F00
FC1F80
F81F80
F80F80
F80F80
F80F80
F80F80
F81F80
FC1F80
FC3F00
FFFE00
FBFC00
F9F800
F80000
F80000
F80000
F80000
F80000
F80000
ENDCHAR
STARTCHAR 03C2
ENCODING 962
SWIDTH 600 0
DWIDTH 18 0
BBX 15 22 1 -6
BITMAP
03F8
0FFE
3FFE
3F06
7E02
7C00
FC00
FC00
FC00
FC00
7C00
7E00
7F00
3FF0
1FFC
07FC
001E
001E
003E
003C
003C
0030
ENDCHAR
STARTCHAR 03C3
ENCODING 963
SWIDTH 766 0
DWIDTH 23 0
BBX 21 16 1 0
BITMAP
07FFF8
1FFFF8
3FFFF8
7F1FC0
7E0FC0
7C07C0
FC07C0
FC07C0
FC07C0
FC07C0
7C07C0
7E0FC0
3F1F80
3FFF00
0FFE00
03F800
ENDCHAR
STARTCHAR 03C4
ENCODING 964
SWIDTH 633 0
DWIDTH 19 0
BBX 17 16 1 0
BITMAP
FFFF80
FFFF80
FFFF80
03E000
03E000
03E000
03E000
03E000
03E000
03E000
03E000
03E000
03E000
03FC00
03FC00
01FC00
ENDCHAR
STARTCHAR 03C5
ENCODING 965
SWIDTH 666 0
DWIDTH 20 0
BBX 17 16 2 0
BITMAP
FC3C00
FC1E00
FC1F00
FC1F00
FC0F80
FC0F80
FC0F80
FC0F80
FC0F80
FC0F80
FC1F00
FC1F00
7C3F00
7FFE00
3FFC00
0FF000
ENDCHAR
STARTCHAR 03C6
ENCODING 966
SWIDTH 766 0
DWIDTH 23 0
BBX 20 22 2 -6
BITMAP
0E3E00
1E7F80
3EFFC0
7CFBE0
7DFBE0
F9F3E0
F9F3F0
F9F3F0
F9F3F0
F9F3F0
FDF3E0
FDF3E0
7FF7E0
3FFFC0
1FFF80
07FE00
01F000
01F000
01F000
01F000
01F000
01F000
ENDCHAR
STARTCHAR 03C7
ENCODING 967
SWIDTH 633 0
DWIDTH 19 0
BBX 18 22 1 -6
BITMAP
F80F80
FE1F80
FF1F00
1F3F00
1FBE00
0FFE00
0FFC00
07F800
07F800
07F000
03F000
03E000
07F000
0FF000
0FF800
1FF800
1FF800
3F7C00
3E7E00
7E3FC0
7C1FC0
FC0FC0
ENDCHAR
STARTCHAR 03C8
ENCODING 968
SWIDTH 800 0
DWIDTH 24 0
BBX 20 22 2 -6
BITMAP
F9F3F0
F9F3F0
F9F3F0
F9F3F0
F9F3F0
F9F3F0
F9F3F0
F9F3F0
F9F3F0
F9F3F0
FDF3E0
7DF3E0
7FF7E0
3FFFC0
1FFF80
07FE00
01F000
01F000
01F000
01F000
01F000
01F000
ENDCHAR
STARTCHAR 03C9
ENCODING 969
SWIDTH 866 0
DWIDTH 26 0
BBX 24 16 1 0
BITMAP
1E0078
3E007C
3E007C
7C003E
7C003E
7C003F
FC7E3F
FC7E3F
FC7E3F
FC7E3F
FC7E3F
7C7E3E
7E7E7E
3FFFFC
3FE7FC
0FC3F0
ENDCHAR
STARTCHAR 03CA
ENCODING 970
SWIDTH 400 0
DWIDTH 12 0
BBX 10 23 1 0
BITMAP
E780
E780
E780
E780
0000
0000
0000
3E00
3E00
3E00
3E00
3E00
3E00
3E00
3E00
3E00
3E00
3E00
3E00
3E00
3FC0
3FC0
1FC0
ENDCHAR
STARTCHAR 03CB
ENCODING 971
SWIDTH 666 0
DWIDTH 20 0
BBX 17 23 2 0
BITMAP
1E7000
1E7000
1E7000
1E7000
000000
000000
000000
FC3C00
FC1E00
FC1F00
FC1F00
FC0F80
FC0F80
FC0F80
FC0F80
FC0F80
FC0F80
FC1F00
FC1F00
7C3F00
7FFE00
3FFC00
0FF000
ENDCHAR
STARTCHAR 03CC
ENCODING 972
SWIDTH 700 0
DWIDTH 21 0
BBX 18 24 1 0
BITMAP
003C00
007800
00F000
00E000
01C000
038000
000000
000000
03F800
0FFE00
3FFF00
7F1F80
7E0FC0
7C07C0
FC07C0
FC07C0
FC07C0
FC07C0
7C07C0
7E0FC0
7F1F80
3FFF00
1FFE00
03F800
ENDCHAR
STARTCHAR 03CD
ENCODING 973
SWIDTH 666 0
DWIDTH 20 0
BBX 17 24 2 0
BITMAP
007800
007000
00F000
01E000
01C000
038000
000000
000000
FC3C00
FC1E00
FC1F00
FC1F00
FC0F80
FC0F80
FC0F80
FC0F80
FC0F80
FC0F80
FC1F00
FC1F00
7C3F00
7FFE00
3FFC00
0FF000
ENDCHAR
STARTCHAR 03CE
ENCODING 974
SWIDTH 866 0
DWIDTH 26 0
BBX 24 24 1 0
BITMAP
000780
000780
000F00
001E00
001C00
003800
000000
000000
1E0078
3E007C
3E007C
7C003E
7C003E
7C003F
FC7E3F
FC7E3F
FC7E3F
FC7E3F
FC7E3F
7C7E3E
7E7E7E
3FFFFC
3FE7FC
0FC3F0
ENDCHAR
STARTCHAR 03CF
ENCODING 975
SWIDTH 766 0
DWIDTH 23 0
BBX 21 28 3 -6
BITMAP
F807F0
F80FE0
F81FC0
F83F80
F87F00
F8FE00
F9FC00
FBF800
FFF000
FFE000
FFC000
FFE000
FFF000
FFF800
FBFC00
F8FE00
F87F00
F83F80
F81FC0
F80FE0
F807F0
F803F8
0001F8
0003E0
0007C0
000780
000F00
001E00
ENDCHAR
STARTCHAR 03D0
ENCODING 976
SWIDTH 666 0
DWIDTH 20 0
BBX 16 23 2 0
BITMAP
07E0
1FF8
3FFC
7FFC
7C3E
F83E
F83E
F83E
F87E
FFFC
FFF8
FFFC
FFFE
F83F
F81F
F81F
F81F
F81F
7C3F
7F7E
3FFE
1FFC
0FF8
ENDCHAR
STARTCHAR 03D1
ENCODING 977
SWIDTH 666 0
DWIDTH 20 0
BBX 16 23 2 0
BITMAP
07F0
1FF8
3FFC
3FFE
3E3E
7C1F
7C1F
3C1F
3E0F
3F8F
1FFF
0FFF
F3FF
F01F
F81F
F81F
F81F
F81F
7C3E
7FFE
3FFC
1FF8
0FF0
ENDCHAR
STARTCHAR 03D2
ENCODING 978
SWIDTH 733 0
DWIDTH 22 0
BBX 21 22 1 0
BITMAP
F801E0
FE07F0
FF0FF8
FF9FF8
3F9FF8
0FFF78
07FC30
03FC00
03F800
01F800
01F800
01F800
01F800
01F800
01F800
01F800
01F800
01F800
01F800
01F800
01F800
01F800
ENDCHAR
STARTCHAR 03D3
ENCODING 979
SWIDTH 966 0
DWIDTH 29 0
BBX 29 24 0 0
BITMAP
1E000000
3C000000
38F800E0
70FE07F0
F0FF0FF8
E0FF9FF8
003F9FF8
000FFF78
0007FE30
0003FC00
0003FC00
0001F800
0001F800
0001F800
0001F800
0001F800
0001F800
0001F800
0001F800
0001F800
0001F800
0001F800
0001F800
0001F800
ENDCHAR
STARTCHAR 03D4
ENCODING 980
SWIDTH 733 0
DWIDTH 22 0
BBX 21 28 1 0
BITMAP
079C00
079C00
079C00
079C00
000000
000000
F801E0
FE07F0
FF0FF8
FF9FF8
3F9FF8
0FFF78
07FC30
03FC00
03F800
01F800
01F800
01F800
01F800
01F800
01F800
01F800
01F800
01F800
01F800
01F800
01F800
01F800
ENDCHAR
STARTCHAR 03D5
ENCODING 981
SWIDTH 800 0
DWIDTH 24 0
BBX 20 29 2 -6
BITMAP
01F000
01F000
01F000
01F000
01F000
01F000
03FC00
1FFF80
3FFFC0
7FFFE0
7FF7E0
FDF3E0
F9F3F0
F9F3F0
F9F1F0
F9F1F0
F9F3F0
FDF3F0
FDF7E0
7FFFE0
3FFFC0
1FFF80
0FFE00
01F000
01F000
01F000
01F000
01F000
01F000
ENDCHAR
STARTCHAR 03D6
ENCODING 982
SWIDTH 866 0
DWIDTH 26 0
BBX 24 16 1 0
BITMAP
FFFFFF
FFFFFF
FFFFFF
7C003E
7C003E
7C003F
FC7E3F
FC7E3F
FC7E3F
FC7E3F
FC7E3F
7C7E3E
7FFFFE
7FFFFE
3FE7FC
1FC3F8
ENDCHAR
STARTCHAR 03D7
ENCODING 983
SWIDTH 733 0
DWIDTH 22 0
BBX 19 22 2 -6
BITMAP
FE07C0
FF0FE0
FF0FE0
8F9FC0
0F9FC0
0FBF80
0FFF00
0FFE00
1FFC00
3FFC00
7F7C00
FE7C00
FE3E40
FC3FC0
FC1FC0
F80FC0
0007C0
000780
00FF80
00FF80
00FF00
007E00
ENDCHAR
STARTCHAR 03D8
ENCODING 984
SWIDTH 866 0
DWIDTH 26 0
BBX 23 28 1 -6
BITMAP
01FF00
07FFC0
0FFFF0
1FFFF8
3F83F8
3F00FC
7E00FC
7E007E
7E007E
7C007E
FC007E
FC007E
7C007E
7E007E
7E007E
7E00FC
7F00FC
3F81F8
1FFFF8
0FFFF0
07FFE0
01FF80
007E00
007E00
007E00
007E00
007E00
007E00
ENDCHAR
STARTCHAR 03D9
ENCODING 985
SWIDTH 700 0
DWIDTH 21 0
BBX 18 23 1 -6
BITMAP
01F000
0FFE00
1FFF00
3FFF80
7E1F80
7E0FC0
FC07C0
FC07C0
FC07C0
FC07C0
FC07C0
7C0FC0
7E0FC0
7F3F80
3FFF80
1FFF00
07FC00
01F000
01F000
01F000
01F000
01F000
01F000
ENDCHAR
STARTCHAR 03DA
ENCODING 986
SWIDTH 733 0
DWIDTH 22 0
BBX 19 28 1 -6
BITMAP
007FE0
07FFE0
0FFFE0
1FFFE0
3FF000
3F0000
7F0000
7E0000
7E0000
7C0000
FC0000
FC0000
7C0000
7E0000
7E0000
7E0000
3F0000
3F8000
1FF800
0FFE00
07FE00
01FF00
000F00
000700
000700
001F00
001E00
001C00
ENDCHAR
STARTCHAR 03DB
ENCODING 987
SWIDTH 600 0
DWIDTH 18 0
BBX 15 22 1 -6
BITMAP
0FFE
1FFE
3FFE
7F80
7E00
7C00
FC00
FC00
FC00
FC00
7C00
7E00
7FC0
3FF0
1FF8
07F8
0038
0038
0038
00F8
00F0
00E0
ENDCHAR
STARTCHAR 03DC
ENCODING 988
SWIDTH 700 0
DWIDTH 21 0
BBX 15 22 3 0
BITMAP
FFFE
FFFE
FFFE
FFFE
F800
F800
F800
F800
F800
FFFC
FFFC
FFFC
FFFC
F800
F800
F800
F800
F800
F800
F800
F800
F800
ENDCHAR
STARTCHAR 03DD
ENCODING 989
SWIDTH 500 0
DWIDTH 15 0
BBX 15 29 -2 -6
BITMAP
00F8
03FE
03FE
07FE
07E0
07C0
07C0
07C0
07C0
07C0
07FC
07FC
07FC
07C0
07C0
07C0
07C0
07C0
07C0
07C0
07C0
07C0
07C0
07C0
0FC0
9FC0
FF80
FF80
FF00
ENDCHAR
STARTCHAR 03DE
ENCODING 990
SWIDTH 700 0
DWIDTH 21 0
BBX 17 22 2 0
BITMAP
F00000
FE0000
FE0000
FE0000
3E0000
1E0000
3E0180
3E0F80
3C3F00
3DFF00
7FFF00
7FFE00
7FFE00
7FBE00
FE3C00
F03C00
807C00
007C00
007F80
007F80
003F80
000F80
ENDCHAR
STARTCHAR 03DF
ENCODING 991
SWIDTH 666 0
DWIDTH 20 0
BBX 14 23 3 0
BITMAP
0F00
1F00
1F00
1E00
3E00
3E00
3C00
7C00
7800
7FFC
7FFC
FFFC
FFF8
FFF8
00F8
00F0
01F0
01F0
01E0
01E0
03E0
03C0
03C0
ENDCHAR
STARTCHAR 03E0
ENCODING 992
SWIDTH 933 0
DWIDTH 28 0
BBX 23 28 2 -6
BITMAP
1FFC00
7FFF00
FFFF80
FFFFE0
FE0FF0
DE03F0
1E07F8
1E0FF8
1E1FFC
1E3E7C
1E7E7E
1E7C7E
007C3E
007C3E
007C3E
007C3E
007C3E
007C3E
007C3E
007C3E
007C3E
007C7E
00007C
00007C
000078
0000F8
0000F0
0001E0
ENDCHAR
STARTCHAR 03E1
ENCODING 993
SWIDTH 633 0
DWIDTH 19 0
BBX 15 22 1 -5
BITMAP
E000
FC00
FF00
FF80
1FC0
07E0
03F0
01F0
03F8
07FC
0F7C
0E7C
1EFE
3DFE
79FE
7BDE
F79E
001E
001E
001E
000E
000E
ENDCHAR
STARTCHAR 03E2
ENCODING 994
SWIDTH 1100 0
DWIDTH 33 0
BBX 30 28 1 -6
BITMAP
078007C0
0F8003E0
1F0003F0
1F0001F0
3F0001F8
3E0000F8
7E0000F8
7E0000FC
7E0000FC
7C07C0FC
FC07C0FC
FC07C0FC
7C07C0FC
7C07C0FC
7E0FC0FC
7E0FE0FC
7E0FE0FC
7F1FF1FC
3FFEFFF8
3FFCFFF8
1FFC7FF0
07F01FF0
000003E0
00000FC0
00003F00
0003FE00
000FF800
0007C000
ENDCHAR
STARTCHAR 03E3
ENCODING 995
SWIDTH 833 0
DWIDTH 25 0
BBX 21 22 2 -6
BITMAP
7C01F0
7C01F0
7800F0
F800F8
F800F8
F800F8
F8F8F8
F8F8F8
F8F8F8
F8F8F8
F8F8F8
F8F8F8
FFDFF8
7FDFF0
3FDFF0
1F07E0
0003C0
000F80
003F00
00FE00
07F800
03C000
ENDCHAR
STARTCHAR 03E4
ENCODING 996
SWIDTH 833 0
DWIDTH 25 0
BBX 21 28 1 -6
BITMAP
03E0F8
0FE0F8
1FE0F8
3FE0F8
3F80F8
7F00F8
7E00F8
7E00F8
7E00F8
7C00F8
FC00F8
FC00F8
7C01F8
7C01F8
7E01F8
7E01F8
7F03F8
3F07F8
3FFFF8
1FFEF8
0FFCF8
07F8F8
0000F8
0000F8
0000F8
0000F8
0000F8
0000F8
ENDCHAR
STARTCHAR 03E5
ENCODING 997
SWIDTH 700 0
DWIDTH 21 0
BBX 18 23 1 -6
BITMAP
038000
0F87C0
3F87C0
3F87C0
7E07C0
7E07C0
7C07C0
FC07C0
FC07C0
FC07C0
FC07C0
7C0FC0
7E0FC0
7FBFC0
3FFFC0
1FF7C0
0FE7C0
0007C0
0007C0
0007C0
0007C0
0007C0
0007C0
ENDCHAR
STARTCHAR 03E6
ENCODING 998
SWIDTH 933 0
DWIDTH 28 0
BBX 23 28 3 -6
BITMAP
F80000
F80000
F80000
F80000
F80000
F83F00
F8FFC0
F9FFF0
FBFFF8
FFEFFC
FF01FC
FE00FE
FC007E
FC003E
F8003E
F8003E
F8003E
F8007E
F8007E
F8007C
F800FC
F801F8
0007F8
001FF0
00FFC0
03FF80
03FC00
01E000
ENDCHAR
STARTCHAR 03E7
ENCODING 999
SWIDTH 733 0
DWIDTH 22 0
BBX 20 17 1 0
BITMAP
01E0C0
0FFCF0
1FFFE0
3FFFC0
3E1FC0
7C1FC0
7E3FC0
3FFFE0
3FFBE0
1FE1E0
0001E0
0001E0
0003E0
7E07E0
FFFFC0
FFFF80
47FF00
ENDCHAR
STARTCHAR 03E8
ENCODING 1000
SWIDTH 733 0
DWIDTH 22 0
BBX 19 28 2 -6
BITMAP
07FC00
1FFF00
3FFF80
7FFFC0
7E0FC0
FC0FE0
F807E0
0007E0
0007E0
0007C0
000FC0
000FC0
001F80
003F00
007E00
00FC00
01F800
07F000
0FE000
1FC000
7F8000
FE0020
FE00E0
7FCFE0
3FFFE0
1FFFC0
0FFF80
03FC00
ENDCHAR
STARTCHAR 03E9
ENCODING 1001
SWIDTH 666 0
DWIDTH 20 0
BBX 16 23 2 -6
BITMAP
07E0
1FFC
3FFE
7FFF
FC1F
F81F
000F
001F
001F
003E
007C
00F8
01F0
07E0
0FC0
1F80
7F00
FC00
FC01
7F0F
3FFF
1FFE
07F8
ENDCHAR
STARTCHAR 03EA
ENCODING 1002
SWIDTH 800 0
DWIDTH 24 0
BBX 20 22 2 0
BITMAP
F801F0
FC07F0
FE07F0
FF0FF0
FF1FF0
1F9F80
0FFF00
0FFE00
07FE00
03FC00
03F800
03FC00
07FE00
0FFE00
0FFF00
1F9F80
3F1F80
7F0FC0
FFFFF0
FFFFF0
FFFFF0
FFFFF0
ENDCHAR
STARTCHAR 03EB
ENCODING 1003
SWIDTH 666 0
DWIDTH 20 0
BBX 18 17 1 0
BITMAP
F807C0
FE1FC0
FE1FC0
FF3FC0
1FFE00
0FFC00
07F800
03F000
03F000
07F800
0FFC00
0FFE00
1F3E00
3F3F00
FFFFC0
FFFFC0
FFFFC0
ENDCHAR
STARTCHAR 03EC
ENCODING 1004
SWIDTH 766 0
DWIDTH 23 0
BBX 20 23 1 0
BITMAP
000010
007FF0
07FFF0
0FFFE0
1FC000
3F0000
7E3E00
7EFF80
7FFFC0
7FFFE0
7F0FE0
7E07F0
7E03F0
FC03F0
FC03F0
7C03F0
7C03F0
7E03F0
7E07E0
3F8FE0
3FFFC0
0FFF80
07FF00
ENDCHAR
STARTCHAR 03ED
ENCODING 1005
SWIDTH 700 0
DWIDTH 21 0
BBX 18 23 2 0
BITMAP
000080
00FF80
07FF80
1FFF00
3F8000
3E0000
7C7800
7DFE00
7FFF00
7FFF80
7E1F80
7C0FC0
7C0FC0
FC07C0
FC07C0
7C07C0
7C07C0
7C0FC0
7E0FC0
3F1F80
3FFF80
1FFF00
07FC00
ENDCHAR
STARTCHAR 03EE
ENCODING 1006
SWIDTH 666 0
DWIDTH 20 0
BBX 19 28 1 -6
BITMAP
03F000
03F000
03F000
03F000
03F000
03F000
FFFFE0
FFFFE0
FFFFE0
FFFFE0
F3F1E0
F3F1E0
03F000
03F000
03F000
03F000
03F000
03F000
03F000
03F000
03F000
03F000
03F000
03F000
03F000
03F000
03F000
03F000
ENDCHAR
STARTCHAR 03EF
ENCODING 1007
SWIDTH 600 0
DWIDTH 18 0
BBX 16 28 1 -6
BITMAP
07C0
07C0
07C0
07C0
07C0
07C0
FFFF
FFFF
FFFF
C7C7
C7C7
07C0
07C0
07C0
07C0
07C0
07C0
07C0
07C0
07C0
07C0
07C0
07C0
07C0
07C0
07C0
07C0
07C0
ENDCHAR
STARTCHAR 03F0
ENCODING 1008
SWIDTH 733 0
DWIDTH 22 0
BBX 19 16 2 0
BITMAP
FE07C0
FF0FE0
FF0FE0
8F9FC0
0F9FC0
0FBF80
0FFF00
0FFE00
1FFC00
3FFC00
7F7C00
FE7C00
FE3E40
FC3FC0
FC1FC0
F80FC0
ENDCHAR
STARTCHAR 03F1
ENCODING 1009
SWIDTH 700 0
DWIDTH 21 0
BBX 17 23 3 -6
BITMAP
03F000
1FFC00
3FFE00
7FFF00
7C3F00
F81F80
F81F80
F80F80
F80F80
F80F80
F80F80
F81F80
FC1F80
FF7F00
FFFF00
FFFE00
F9FC00
F80000
F80000
F80000
FFFF00
7FFF00
3FFF00
ENDCHAR
STARTCHAR 03F2
ENCODING 1010
SWIDTH 600 0
DWIDTH 18 0
BBX 15 16 1 0
BITMAP
03F8
0FFE
3FFE
3F06
7E02
7C00
FC00
FC00
FC00
FC00
7C00
7E02
3F06
3FFE
0FFE
03F8
ENDCHAR
STARTCHAR 03F3
ENCODING 1011
SWIDTH 333 0
DWIDTH 10 0
BBX 9 29 -1 -6
BITMAP
0F80
0F80
0F80
0F80
0F80
0000
0000
0F80
0F80
0F80
0F80
0F80
0F80
0F80
0F80
0F80
0F80
0F80
0F80
0F80
0F80
0F80
0F80
1F80
1F80
1F00
FF00
FE00
F800
ENDCHAR
STARTCHAR 03F4
ENCODING 1012
SWIDTH 866 0
DWIDTH 26 0
BBX 23 22 1 0
BITMAP
00FF00
07FFC0
0FFFF0
1FFFF8
3FC3F8
3F01FC
7E00FC
7E007E
7E007E
7FFFFE
FFFFFE
FFFFFE
7FFFFE
7C007E
7E007E
7E00FC
3F00FC
3F83F8
1FFFF8
0FFFF0
07FFC0
00FF00
ENDCHAR
STARTCHAR 03F5
ENCODING 1013
SWIDTH 633 0
DWIDTH 19 0
BBX 15 17 2 0
BITMAP
01F0
0FFE
3FFE
3FFE
7E02
FC00
FC00
FFFE
FFFE
FFFE
F800
FC00
7C00
7F06
3FFE
1FFE
0FFE
ENDCHAR
STARTCHAR 03F6
ENCODING 1014
SWIDTH 633 0
DWIDTH 19 0
BBX 15 17 2 0
BITMAP
3F00
FFE0
FFF0
FFF8
80FC
007C
007E
FFFE
FFFE
FFFE
003E
007E
007C
C1FC
FFF8
FFF0
FFC0
ENDCHAR
STARTCHAR 03F7
ENCODING 1015
SWIDTH 733 0
DWIDTH 22 0
BBX 18 22 3 0
BITMAP
F80000
F80000
F80000
F80000
FFF800
FFFE00
FFFF00
FFFF80
F81F80
F80FC0
F80FC0
F80FC0
F80FC0
F81F80
FFFF80
FFFF00
FFFE00
FFF800
F80000
F80000
F80000
F80000
ENDCHAR
STARTCHAR 03F8
ENCODING 1016
SWIDTH 700 0
DWIDTH 21 0
BBX 17 29 3 -6
BITMAP
F80000
F80000
F80000
F80000
F80000
F80000
F80000
F8F800
FBFC00
FFFE00
FC3F00
FC1F80
F81F80
F80F80
F80F80
F80F80
F80F80
F81F80
FC1F80
FC3F00
FFFE00
FBFC00
F8F800
F80000
F80000
F80000
F80000
F80000
F80000
ENDCHAR
STARTCHAR 03F9
ENCODING 1017
SWIDTH 733 0
DWIDTH 22 0
BBX 19 22 1 0
BITMAP
00FF00
03FFE0
0FFFE0
1FFFE0
3FC0E0
3F0020
7F0000
7E0000
7E0000
7C0000
FC0000
FC0000
7C0000
7E0000
7E0000
7F0000
3F0020
3FC0E0
1FFFE0
0FFFE0
03FFE0
00FF00
ENDCHAR
STARTCHAR 03FA
ENCODING 1018
SWIDTH 1000 0
DWIDTH 30 0
BBX 24 22 3 0
BITMAP
FE007F
FF00FF
FF81FF
FFC3FF
FFC7FF
FFE7FF
FFFFDF
FBFFDF
F9FF9F
F8FF1F
F87E1F
F87C1F
F8001F
F8001F
F8001F
F8001F
F8001F
F8001F
F8001F
F8001F
F8001F
F8001F
ENDCHAR
STARTCHAR 03FB
ENCODING 1019
SWIDTH 733 0
DWIDTH 22 0
BBX 17 22 2 -6
BITMAP
FE1F80
FF3F80
FF7F80
FFFF80
FFFF80
FBFF80
F9EF80
F9CF80
F80F80
F80F80
F80F80
F80F80
F80F80
F80F80
F80F80
F80F80
F80000
F80000
F80000
F80000
F80000
F80000
ENDCHAR
STARTCHAR 03FC
ENCODING 1020
SWIDTH 700 0
DWIDTH 21 0
BBX 19 23 1 -6
BITMAP
00FC00
07FF00
0FFF80
1FFFC0
1F0FC0
3E07E0
3E07E0
3E03E0
3E03E0
3E03E0
3E03E0
3E07E0
3F07E0
3FDFC0
3FFFC0
3FFF80
3E7F00
3E0000
3E0000
FFF000
FFF000
FFF000
3E0000
ENDCHAR
STARTCHAR 03FD
ENCODING 1021
SWIDTH 700 0
DWIDTH 21 0
BBX 19 22 1 0
BITMAP
3FF000
FFFC00
FFFE00
FFFF00
E07F80
801F80
000FC0
000FC0
000FC0
0007E0
0007E0
0007E0
0007E0
000FC0
000FC0
000FC0
001F80
C03F80
FFFF00
FFFE00
FFFC00
3FF000
ENDCHAR
STARTCHAR 03FE
ENCODING 1022
SWIDTH 733 0
DWIDTH 22 0
BBX 19 22 1 0
BITMAP
00FF00
03FFE0
0FFFE0
1FFFE0
3FC0E0
3F0020
7F0000
7E0000
7E0000
7C3F00
FC3F00
FC3F00
7C3F00
7E3F00
7E3F00
7F0000
3F0020
3FC0E0
1FFFE0
0FFFE0
03FFE0
00FF00
ENDCHAR
STARTCHAR 03FF
ENCODING 1023
SWIDTH 700 0
DWIDTH 21 0
BBX 19 22 1 0
BITMAP
3FF000
FFFC00
FFFE00
FFFF00
E07F80
801F80
000FC0
000FC0
000FC0
0F87E0
0F87E0
0F87E0
0F87E0
0F8FC0
0F8FC0
000FC0
001F80
C03F80
FFFF00
FFFE00
FFFC00
3FF000
ENDCHAR
STARTCHAR 0400
ENCODING 1024
SWIDTH 700 0
DWIDTH 21 0
BBX 15 27 3 0
BITMAP
0780
0380
01C0
00E0
0000
FFFE
FFFE
FFFE
FFFE
F800
F800
F800
F800
F800
FFFC
FFFC
FFFC
FFFC
F800
F800
F800
F800
F800
FFFE
FFFE
FFFE
FFFE
ENDCHAR
STARTCHAR 0401
ENCODING 1025
SWIDTH 700 0
DWIDTH 21 0
BBX 15 28 3 0
BITMAP
3CF0
3CF0
3CF0
3CF0
0000
0000
FFFE
FFFE
FFFE
FFFE
F800
F800
F800
F800
F800
FFFC
FFFC
FFFC
FFFC
F800
F800
F800
F800
F800
FFFE
FFFE
FFFE
FFFE
ENDCHAR
STARTCHAR 0402
ENCODING 1026
SWIDTH 866 0
DWIDTH 26 0
BBX 24 28 0 -6
BITMAP
FFFFC0
FFFFC0
FFFFC0
FFFFC0
07E000
07E000
07E000
07E000
07FFC0
07FFFC
07FFFE
07FFFE
07FFFF
07E03F
07E03F
07E03F
07E03F
07E03F
07E03F
07E03F
07E03F
07E03F
00003F
0000FE
0003FE
0003FC
0003F8
0003E0
ENDCHAR
STARTCHAR 0403
ENCODING 1027
SWIDTH 633 0
DWIDTH 19 0
BBX 15 27 3 0
BITMAP
00F0
01E0
03C0
0700
0000
FFFE
FFFE
FFFE
FFFE
F800
F800
F800
F800
F800
F800
F800
F800
F800
F800
F800
F800
F800
F800
F800
F800
F800
F800
ENDCHAR
STARTCHAR 0404
ENCODING 1028
SWIDTH 733 0
DWIDTH 22 0
BBX 19 22 1 0
BITMAP
00FF00
03FFE0
0FFFE0
1FFFE0
3FC0E0
3F0020
7F0000
7E0000
7E0000
7FFF00
FFFF00
FFFF00
7FFF00
7E0000
7E0000
7F0000
3F0020
3FC0E0
1FFFE0
0FFFE0
03FFE0
00FF00
ENDCHAR
STARTCHAR 0405
ENCODING 1029
SWIDTH 733 0
DWIDTH 22 0
BBX 17 22 2 0
BITMAP
07F800
1FFF00
7FFF00
7FFF00
FE0F00
F80100
F80000
FC0000
FF0000
7FF000
7FFE00
1FFF00
07FF80
007F80
001F80
000F80
800F80
F01F80
FFFF80
FFFF00
FFFE00
0FF800
ENDCHAR
STARTCHAR 0406
ENCODING 1030
SWIDTH 366 0
DWIDTH 11 0
BBX 5 22 3 0
BITMAP
F8
F8
F8
F8
F8
F8
F8
F8
F8
F8
F8
F8
F8
F8
F8
F8
F8
F8
F8
F8
F8
F8
ENDCHAR
STARTCHAR 0407
ENCODING 1031
SWIDTH 366 0
DWIDTH 11 0
BBX 9 28 1 0
BITMAP
E380
E380
E380
E380
0000
0000
3E00
3E00
3E00
3E00
3E00
3E00
3E00
3E00
3E00
3E00
3E00
3E00
3E00
3E00
3E00
3E00
3E00
3E00
3E00
3E00
3E00
3E00
ENDCHAR
STARTCHAR 0408
ENCODING 1032
SWIDTH 366 0
DWIDTH 11 0
BBX 10 28 -2 -6
BITMAP
07C0
07C0
07C0
07C0
07C0
07C0
07C0
07C0
07C0
07C0
07C0
07C0
07C0
07C0
07C0
07C0
07C0
07C0
07C0
07C0
07C0
07C0
0FC0
1FC0
FF80
FF80
FF00
F800
ENDCHAR
STARTCHAR 0409
ENCODING 1033
SWIDTH 1166 0
DWIDTH 35 0
BBX 32 22 1 0
BITMAP
03FFF800
03FFF800
03FFF800
03FFF800
03E0F800
03E0F800
03E0F800
03E0F800
03E0FF80
07E0FFF8
07E0FFFC
07E0FFFE
07E0FFFF
07E0F83F
07E0F83F
07C0F83F
0FC0F83F
7FC0F83F
FF80FFFE
FF00FFFE
FE00FFFC
E000FFF0
ENDCHAR
STARTCHAR 040A
ENCODING 1034
SWIDTH 1133 0
DWIDTH 34 0
BBX 29 22 3 0
BITMAP
F80FC000
F80FC000
F80FC000
F80FC000
F80FC000
F80FC000
F80FC000
F80FC000
FFFFF000
FFFFFFC0
FFFFFFE0
FFFFFFF0
FFFFFFF0
F80FC3F8
F80FC1F8
F80FC1F8
F80FC1F8
F80FC3F0
F80FFFF0
F80FFFE0
F80FFFC0
F80FFF00
ENDCHAR
STARTCHAR 040B
ENCODING 1035
SWIDTH 866 0
DWIDTH 26 0
BBX 24 22 0 0
BITMAP
FFFFC0
FFFFC0
FFFFC0
FFFFC0
07E000
07E000
07E000
07E000
07FFC0
07FFFC
07FFFE
07FFFE
07FFFF
07E03F
07E03F
07E03F
07E03F
07E03F
07E03F
07E03F
07E03F
07E03F
ENDCHAR
STARTCHAR 040C
ENCODING 1036
SWIDTH 833 0
DWIDTH 25 0
BBX 21 27 3 0
BITMAP
007800
007000
00E000
01C000
000000
F803F0
F807E0
F80FC0
F81F80
F83F00
F87E00
F8FC00
F9F800
FBF000
FFF000
FFF800
FFFC00
FFFC00
FE7E00
FC3F00
FC3F80
F81F80
F80FC0
F80FE0
F807E0
F803F0
F801F8
ENDCHAR
STARTCHAR 040D
ENCODING 1037
SWIDTH 833 0
DWIDTH 25 0
BBX 19 27 3 0
BITMAP
03C000
01C000
00E000
007000
000000
F807E0
F80FE0
F80FE0
F81FE0
F81FE0
F83FE0
F83FE0
F87FE0
F87BE0
F8FBE0
F9F3E0
F9F3E0
FBE3E0
FBE3E0
FFC3E0
FF83E0
FF83E0
FF03E0
FF03E0
FE03E0
FE03E0
FC03E0
ENDCHAR
STARTCHAR 040E
ENCODING 1038
SWIDTH 766 0
DWIDTH 23 0
BBX 21 27 1 0
BITMAP
030700
038E00
01FE00
00F800
000000
FC01F8
7C01F8
7E03F0
3E03F0
3F07E0
3F07E0
1F8FC0
1F8FC0
0FDF80
0FDF80
07FF00
07FF00
03FE00
03FE00
01FC00
01FC00
00FC00
01F800
1FF800
1FF000
1FE000
1F8000
ENDCHAR
STARTCHAR 040F
ENCODING 1039
SWIDTH 833 0
DWIDTH 25 0
BBX 19 27 3 -5
BITMAP
F803E0
F803E0
F803E0
F803E0
F803E0
F803E0
F803E0
F803E0
F803E0
F803E0
F803E0
F803E0
F803E0
F803E0
F803E0
F803E0
F803E0
F803E0
FFFFE0
FFFFE0
FFFFE0
FFFFE0
01F000
01F000
01F000
01F000
01F000
ENDCHAR
STARTCHAR 0410
ENCODING 1040
SWIDTH 766 0
DWIDTH 23 0
BBX 23 22 0 0
BITMAP
00FE00
00FF00
01FF00
01FF00
01FF80
03FF80
03EF80
07EFC0
07C7C0
07C7C0
0FC7E0
0F83E0
0F83F0
1F83F0
1FFFF0
1FFFF8
3FFFF8
3FFFF8
7E00FC
7E007C
7C007E
FC007E
ENDCHAR
STARTCHAR 0411
ENCODING 1041
SWIDTH 766 0
DWIDTH 23 0
BBX 18 22 3 0
BITMAP
FFFF00
FFFF00
FFFF00
FFFF00
F80000
F80000
F80000
F80000
F80000
FFF800
FFFE00
FFFF80
FFFF80
F81F80
F80FC0
F80FC0
F80FC0
F81FC0
FFFF80
FFFF80
FFFE00
FFF800
ENDCHAR
STARTCHAR 0412
ENCODING 1042
SWIDTH 766 0
DWIDTH 23 0
BBX 18 22 3 0
BITMAP
FFF800
FFFE00
FFFF00
FFFF00
F83F80
F81F80
F81F80
F81F80
F83F00
FFFF00
FFFC00
FFFF00
FFFF80
F81F80
F80FC0
F80FC0
F80FC0
F81FC0
FFFF80
FFFF80
FFFF00
FFF800
ENDCHAR
STARTCHAR 0413
ENCODING 1043
SWIDTH 633 0
DWIDTH 19 0
BBX 15 22 3 0
BITMAP
FFFE
FFFE
FFFE
FFFE
F800
F800
F800
F800
F800
F800
F800
F800
F800
F800
F800
F800
F800
F800
F800
F800
F800
F800
ENDCHAR
STARTCHAR 0414
ENCODING 1044
SWIDTH 900 0
DWIDTH 27 0
BBX 23 27 2 -5
BITMAP
0FFFF0
0FFFF0
0FFFF0
0FFFF0
0F83F0
0F83F0
0F83F0
0F83F0
0F83F0
0F83F0
0F83F0
0F83F0
0F83F0
0F83F0
0F83F0
1F83F0
1F83F0
3F03F0
FFFFFE
FFFFFE
FFFFFE
FFFFFE
F0001E
F0001E
F0001E
F0001E
F0001E
ENDCHAR
STARTCHAR 0415
ENCODING 1045
SWIDTH 700 0
DWIDTH 21 0
BBX 15 22 3 0
BITMAP
FFFE
FFFE
FFFE
FFFE
F800
F800
F800
F800
F800
FFFC
FFFC
FFFC
FFFC
F800
F800
F800
F800
F800
FFFE
FFFE
FFFE
FFFE
ENDCHAR
STARTCHAR 0416
ENCODING 1046
SWIDTH 1233 0
DWIDTH 37 0
BBX 35 22 1 0
BITMAP
7E01F00FC0
3F01F01F80
1F81F03F00
0FC1F07E00
0FC1F0FC00
07E1F1F800
03F1F1F000
01F9F3F000
00FDF7E000
00FFFFE000
01FFFFE000
01FFFFF000
03FFFFF800
07E7FDFC00
07E7F8FC00
0FC3F07E00
1F81F07F00
3F81F03F00
3F01F01F80
7E01F01FC0
FE01F00FC0
FC01F007E0
ENDCHAR
STARTCHAR 0417
ENCODING 1047
SWIDTH 700 0
DWIDTH 21 0
BBX 17 22 2 0
BITMAP
1FF000
FFFE00
FFFF00
FFFF00
C03F80
001F80
001F80
001F80
003F00
0FFE00
0FF800
0FFE00
0FFF00
003F80
001F80
000F80
801F80
E03F80
FFFF80
FFFF00
7FFE00
1FF000
ENDCHAR
STARTCHAR 0418
ENCODING 1048
SWIDTH 833 0
DWIDTH 25 0
BBX 19 22 3 0
BITMAP
F807E0
F80FE0
F80FE0
F81FE0
F81FE0
F83FE0
F83FE0
F87FE0
F87BE0
F8FBE0
F9F3E0
F9F3E0
FBE3E0
FBE3E0
FFC3E0
FF83E0
FF83E0
FF03E0
FF03E0
FE03E0
FE03E0
FC03E0
ENDCHAR
STARTCHAR 0419
ENCODING 1049
SWIDTH 833 0
DWIDTH 25 0
BBX 19 27 3 0
BITMAP
0C0C00
061C00
07F800
03F000
000000
F807E0
F80FE0
F80FE0
F81FE0
F81FE0
F83FE0
F83FE0
F87FE0
F87BE0
F8FBE0
F9F3E0
F9F3E0
FBE3E0
FBE3E0
FFC3E0
FF83E0
FF83E0
FF03E0
FF03E0
FE03E0
FE03E0
FC03E0
ENDCHAR
STARTCHAR 041A
ENCODING 1050
SWIDTH 833 0
DWIDTH 25 0
BBX 21 22 3 0
BITMAP
F803F0
F807E0
F80FC0
F81F80
F83F00
F87E00
F8FC00
F9F800
FBF000
FFF000
FFF800
FFFC00
FFFC00
FE7E00
FC3F00
FC3F80
F81F80
F80FC0
F80FE0
F807E0
F803F0
F801F8
ENDCHAR
ENDFONT
